G04 (created by PCBNEW (2011-nov-12)-testing) date Wed 25 Jan 2012 09:18:41 PM EST*
G01*
G70*
G90*
%MOIN*%
G04 Gerber Fmt 3.4, Leading zero omitted, Abs format*
%FSLAX34Y34*%
G04 APERTURE LIST*
%ADD10C,0.001000*%
%ADD11C,0.015000*%
%ADD12C,0.008000*%
G04 APERTURE END LIST*
G54D10*
G54D11*
X31000Y-51000D02*
X31000Y-52500D01*
X70000Y-51000D02*
X70000Y-52500D01*
X31000Y-51000D02*
X31000Y-30000D01*
X70000Y-52500D02*
X31000Y-52500D01*
X70000Y-50800D02*
X70000Y-51000D01*
X70000Y-30400D02*
X70000Y-50800D01*
X67500Y-28000D02*
X31000Y-28000D01*
X67500Y-28000D02*
X70000Y-30500D01*
X31000Y-30000D02*
X31000Y-28000D01*
G54D10*
X55159Y-40299D02*
X55435Y-40575D01*
X55435Y-40299D02*
X55159Y-40575D01*
X55159Y-44299D02*
X55435Y-44575D01*
X55435Y-44299D02*
X55159Y-44575D01*
G54D12*
X30397Y-54448D02*
X30397Y-53648D01*
X30588Y-53648D01*
X30702Y-53686D01*
X30778Y-53762D01*
X30817Y-53838D01*
X30855Y-53991D01*
X30855Y-54105D01*
X30817Y-54257D01*
X30778Y-54334D01*
X30702Y-54410D01*
X30588Y-54448D01*
X30397Y-54448D01*
X31197Y-54448D02*
X31197Y-53914D01*
X31197Y-54067D02*
X31236Y-53991D01*
X31274Y-53953D01*
X31350Y-53914D01*
X31426Y-53914D01*
X31692Y-54448D02*
X31692Y-53914D01*
X31692Y-53648D02*
X31654Y-53686D01*
X31692Y-53724D01*
X31731Y-53686D01*
X31692Y-53648D01*
X31692Y-53724D01*
X32188Y-54448D02*
X32112Y-54410D01*
X32073Y-54334D01*
X32073Y-53648D01*
X32607Y-54448D02*
X32531Y-54410D01*
X32492Y-54334D01*
X32492Y-53648D01*
X33521Y-54448D02*
X33521Y-53648D01*
X33788Y-54219D01*
X34055Y-53648D01*
X34055Y-54448D01*
X34778Y-54448D02*
X34778Y-54029D01*
X34740Y-53953D01*
X34664Y-53914D01*
X34512Y-53914D01*
X34435Y-53953D01*
X34778Y-54410D02*
X34702Y-54448D01*
X34512Y-54448D01*
X34435Y-54410D01*
X34397Y-54334D01*
X34397Y-54257D01*
X34435Y-54181D01*
X34512Y-54143D01*
X34702Y-54143D01*
X34778Y-54105D01*
X35159Y-53914D02*
X35159Y-54714D01*
X35159Y-53953D02*
X35236Y-53914D01*
X35388Y-53914D01*
X35464Y-53953D01*
X35502Y-53991D01*
X35540Y-54067D01*
X35540Y-54295D01*
X35502Y-54372D01*
X35464Y-54410D01*
X35388Y-54448D01*
X35236Y-54448D01*
X35159Y-54410D01*
X35883Y-54372D02*
X35922Y-54410D01*
X35883Y-54448D01*
X35845Y-54410D01*
X35883Y-54372D01*
X35883Y-54448D01*
X35883Y-53953D02*
X35922Y-53991D01*
X35883Y-54029D01*
X35845Y-53991D01*
X35883Y-53953D01*
X35883Y-54029D01*
X29731Y-55666D02*
X30007Y-55942D01*
X30007Y-55666D02*
X29731Y-55942D01*
X30550Y-55328D02*
X30626Y-55328D01*
X30702Y-55366D01*
X30740Y-55404D01*
X30778Y-55480D01*
X30817Y-55633D01*
X30817Y-55823D01*
X30778Y-55975D01*
X30740Y-56052D01*
X30702Y-56090D01*
X30626Y-56128D01*
X30550Y-56128D01*
X30474Y-56090D01*
X30436Y-56052D01*
X30397Y-55975D01*
X30359Y-55823D01*
X30359Y-55633D01*
X30397Y-55480D01*
X30436Y-55404D01*
X30474Y-55366D01*
X30550Y-55328D01*
X31159Y-56052D02*
X31198Y-56090D01*
X31159Y-56128D01*
X31121Y-56090D01*
X31159Y-56052D01*
X31159Y-56128D01*
X31693Y-55328D02*
X31769Y-55328D01*
X31845Y-55366D01*
X31883Y-55404D01*
X31921Y-55480D01*
X31960Y-55633D01*
X31960Y-55823D01*
X31921Y-55975D01*
X31883Y-56052D01*
X31845Y-56090D01*
X31769Y-56128D01*
X31693Y-56128D01*
X31617Y-56090D01*
X31579Y-56052D01*
X31540Y-55975D01*
X31502Y-55823D01*
X31502Y-55633D01*
X31540Y-55480D01*
X31579Y-55404D01*
X31617Y-55366D01*
X31693Y-55328D01*
X32264Y-55404D02*
X32302Y-55366D01*
X32379Y-55328D01*
X32569Y-55328D01*
X32645Y-55366D01*
X32683Y-55404D01*
X32722Y-55480D01*
X32722Y-55556D01*
X32683Y-55671D01*
X32226Y-56128D01*
X32722Y-56128D01*
X33179Y-55671D02*
X33103Y-55633D01*
X33064Y-55594D01*
X33026Y-55518D01*
X33026Y-55480D01*
X33064Y-55404D01*
X33103Y-55366D01*
X33179Y-55328D01*
X33331Y-55328D01*
X33407Y-55366D01*
X33445Y-55404D01*
X33484Y-55480D01*
X33484Y-55518D01*
X33445Y-55594D01*
X33407Y-55633D01*
X33331Y-55671D01*
X33179Y-55671D01*
X33103Y-55709D01*
X33064Y-55747D01*
X33026Y-55823D01*
X33026Y-55975D01*
X33064Y-56052D01*
X33103Y-56090D01*
X33179Y-56128D01*
X33331Y-56128D01*
X33407Y-56090D01*
X33445Y-56052D01*
X33484Y-55975D01*
X33484Y-55823D01*
X33445Y-55747D01*
X33407Y-55709D01*
X33331Y-55671D01*
X33788Y-55328D02*
X33788Y-55480D01*
X34093Y-55328D02*
X34093Y-55480D01*
X35618Y-55290D02*
X34932Y-56318D01*
X36647Y-55328D02*
X36723Y-55328D01*
X36799Y-55366D01*
X36837Y-55404D01*
X36875Y-55480D01*
X36914Y-55633D01*
X36914Y-55823D01*
X36875Y-55975D01*
X36837Y-56052D01*
X36799Y-56090D01*
X36723Y-56128D01*
X36647Y-56128D01*
X36571Y-56090D01*
X36533Y-56052D01*
X36494Y-55975D01*
X36456Y-55823D01*
X36456Y-55633D01*
X36494Y-55480D01*
X36533Y-55404D01*
X36571Y-55366D01*
X36647Y-55328D01*
X37256Y-56052D02*
X37295Y-56090D01*
X37256Y-56128D01*
X37218Y-56090D01*
X37256Y-56052D01*
X37256Y-56128D01*
X37561Y-55328D02*
X38095Y-55328D01*
X37752Y-56128D01*
X38552Y-55328D02*
X38628Y-55328D01*
X38704Y-55366D01*
X38742Y-55404D01*
X38780Y-55480D01*
X38819Y-55633D01*
X38819Y-55823D01*
X38780Y-55975D01*
X38742Y-56052D01*
X38704Y-56090D01*
X38628Y-56128D01*
X38552Y-56128D01*
X38476Y-56090D01*
X38438Y-56052D01*
X38399Y-55975D01*
X38361Y-55823D01*
X38361Y-55633D01*
X38399Y-55480D01*
X38438Y-55404D01*
X38476Y-55366D01*
X38552Y-55328D01*
X39161Y-56128D02*
X39161Y-55594D01*
X39161Y-55671D02*
X39200Y-55633D01*
X39276Y-55594D01*
X39390Y-55594D01*
X39466Y-55633D01*
X39504Y-55709D01*
X39504Y-56128D01*
X39504Y-55709D02*
X39542Y-55633D01*
X39619Y-55594D01*
X39733Y-55594D01*
X39809Y-55633D01*
X39847Y-55709D01*
X39847Y-56128D01*
X40228Y-56128D02*
X40228Y-55594D01*
X40228Y-55671D02*
X40267Y-55633D01*
X40343Y-55594D01*
X40457Y-55594D01*
X40533Y-55633D01*
X40571Y-55709D01*
X40571Y-56128D01*
X40571Y-55709D02*
X40609Y-55633D01*
X40686Y-55594D01*
X40800Y-55594D01*
X40876Y-55633D01*
X40914Y-55709D01*
X40914Y-56128D01*
X42134Y-56433D02*
X42096Y-56394D01*
X42020Y-56280D01*
X41982Y-56204D01*
X41944Y-56090D01*
X41905Y-55899D01*
X41905Y-55747D01*
X41944Y-55556D01*
X41982Y-55442D01*
X42020Y-55366D01*
X42096Y-55252D01*
X42134Y-55214D01*
X42400Y-55404D02*
X42438Y-55366D01*
X42515Y-55328D01*
X42705Y-55328D01*
X42781Y-55366D01*
X42819Y-55404D01*
X42858Y-55480D01*
X42858Y-55556D01*
X42819Y-55671D01*
X42362Y-56128D01*
X42858Y-56128D01*
X43810Y-56128D02*
X43810Y-55328D01*
X44153Y-56128D02*
X44153Y-55709D01*
X44115Y-55633D01*
X44039Y-55594D01*
X43925Y-55594D01*
X43849Y-55633D01*
X43810Y-55671D01*
X44649Y-56128D02*
X44573Y-56090D01*
X44534Y-56052D01*
X44496Y-55975D01*
X44496Y-55747D01*
X44534Y-55671D01*
X44573Y-55633D01*
X44649Y-55594D01*
X44763Y-55594D01*
X44839Y-55633D01*
X44877Y-55671D01*
X44915Y-55747D01*
X44915Y-55975D01*
X44877Y-56052D01*
X44839Y-56090D01*
X44763Y-56128D01*
X44649Y-56128D01*
X45373Y-56128D02*
X45297Y-56090D01*
X45258Y-56014D01*
X45258Y-55328D01*
X45982Y-56090D02*
X45906Y-56128D01*
X45754Y-56128D01*
X45677Y-56090D01*
X45639Y-56014D01*
X45639Y-55709D01*
X45677Y-55633D01*
X45754Y-55594D01*
X45906Y-55594D01*
X45982Y-55633D01*
X46020Y-55709D01*
X46020Y-55785D01*
X45639Y-55861D01*
X46325Y-56090D02*
X46402Y-56128D01*
X46554Y-56128D01*
X46630Y-56090D01*
X46668Y-56014D01*
X46668Y-55975D01*
X46630Y-55899D01*
X46554Y-55861D01*
X46440Y-55861D01*
X46363Y-55823D01*
X46325Y-55747D01*
X46325Y-55709D01*
X46363Y-55633D01*
X46440Y-55594D01*
X46554Y-55594D01*
X46630Y-55633D01*
X46935Y-56433D02*
X46973Y-56394D01*
X47050Y-56280D01*
X47088Y-56204D01*
X47126Y-56090D01*
X47164Y-55899D01*
X47164Y-55747D01*
X47126Y-55556D01*
X47088Y-55442D01*
X47050Y-55366D01*
X46973Y-55252D01*
X46935Y-55214D01*
M02*
