M48
INCH,TZ
T1C0.020
T2C0.024
T3C0.031
T4C0.032
T5C0.039
T6C0.060
T7C0.125
T8C0.126
%
G90
G05
T1
X4.260Y-4.500
X4.540Y-3.230
X4.540Y-3.290
X4.650Y-3.230
X4.650Y-3.280
X4.680Y-3.000
X4.760Y-4.470
X4.800Y-3.350
X4.800Y-4.050
X4.860Y-3.230
X4.860Y-3.290
X4.990Y-3.440
X5.025Y-4.425
X5.030Y-3.480
X5.030Y-4.060
X5.070Y-3.240
X5.090Y-4.080
X5.090Y-4.140
X5.090Y-4.190
X5.090Y-4.240
X5.090Y-4.300
X5.100Y-3.390
X5.125Y-3.550
X5.140Y-4.110
X5.140Y-4.160
X5.140Y-4.210
X5.140Y-4.250
X5.140Y-4.300
X5.210Y-3.780
X5.250Y-3.280
X5.250Y-4.220
X5.275Y-4.600
X5.340Y-4.320
X5.365Y-3.820
X5.390Y-4.170
X5.400Y-3.280
X5.440Y-3.390
X5.530Y-3.990
X5.530Y-4.170
X5.530Y-4.235
X5.530Y-4.310
X5.620Y-3.850
X5.650Y-3.355
X5.660Y-3.920
X5.670Y-4.230
X5.670Y-4.290
X5.670Y-4.350
X5.710Y-3.580
X5.730Y-4.370
X5.765Y-4.185
X5.890Y-3.010
T2
X4.090Y-3.971
X4.090Y-4.049
T3
X5.479Y-3.601
X5.479Y-3.701
X5.479Y-3.798
X5.479Y-3.898
X5.530Y-3.651
X5.530Y-3.848
X5.580Y-3.601
X5.580Y-3.701
X5.580Y-3.798
X5.580Y-3.898
T4
X3.850Y-3.960
X3.850Y-4.060
X4.025Y-2.900
X4.040Y-3.095
X4.125Y-2.900
X4.140Y-3.105
X4.225Y-2.900
X4.240Y-3.095
X4.325Y-2.900
X4.340Y-3.105
X4.400Y-3.445
X4.400Y-4.755
X4.400Y-4.995
X4.400Y-5.175
X4.425Y-2.900
X4.440Y-3.095
X4.500Y-3.455
X4.500Y-4.745
X4.500Y-5.010
X4.500Y-5.175
X4.540Y-3.105
X4.600Y-3.445
X4.600Y-4.755
X4.600Y-4.995
X4.600Y-5.175
X4.640Y-3.095
X4.700Y-3.455
X4.700Y-4.745
X4.700Y-5.005
X4.700Y-5.175
X4.740Y-3.105
X4.800Y-2.900
X4.800Y-4.995
X4.800Y-5.175
X4.858Y-3.963
X4.870Y-4.350
X4.870Y-4.550
X4.870Y-4.750
X4.880Y-4.250
X4.880Y-4.450
X4.880Y-4.650
X4.900Y-2.900
X4.900Y-3.095
X4.900Y-5.005
X4.900Y-5.175
X4.950Y-3.725
X4.950Y-3.835
X4.962Y-3.577
X5.000Y-2.900
X5.000Y-3.105
X5.095Y-4.650
X5.095Y-4.850
X5.100Y-2.900
X5.100Y-3.095
X5.100Y-4.995
X5.100Y-5.175
X5.105Y-4.550
X5.105Y-4.750
X5.200Y-2.900
X5.200Y-3.105
X5.200Y-3.340
X5.200Y-3.440
X5.200Y-5.005
X5.200Y-5.175
X5.210Y-3.875
X5.210Y-3.985
X5.300Y-2.900
X5.300Y-3.095
X5.300Y-3.340
X5.300Y-3.440
X5.300Y-4.995
X5.300Y-5.175
X5.400Y-2.900
X5.400Y-3.105
X5.400Y-5.005
X5.400Y-5.175
X5.500Y-2.900
X5.500Y-3.095
X5.500Y-4.995
X5.500Y-5.175
X5.600Y-2.900
X5.600Y-3.105
X5.600Y-5.005
X5.600Y-5.175
X5.700Y-4.995
X5.700Y-5.175
X5.800Y-3.095
X5.800Y-5.005
X5.800Y-5.175
X5.900Y-3.105
X6.000Y-3.095
X6.100Y-3.105
X6.200Y-2.900
X6.200Y-3.095
X6.300Y-2.900
X6.300Y-3.105
T5
X3.970Y-3.941
X3.970Y-4.079
T6
X4.920Y-4.125
T7
X3.650Y-5.000
X3.700Y-3.100
T8
X5.483Y-4.842
X6.881Y-3.287
T0
M30
