G04 (created by PCBNEW (2011-nov-12)-testing) date Wed 25 Jan 2012 09:18:38 PM EST*
G01*
G70*
G90*
%MOIN*%
G04 Gerber Fmt 3.4, Leading zero omitted, Abs format*
%FSLAX34Y34*%
G04 APERTURE LIST*
%ADD10C,0.001000*%
%ADD11C,0.015000*%
%ADD12C,0.008000*%
G04 APERTURE END LIST*
G54D10*
G54D11*
X31000Y-51000D02*
X31000Y-52500D01*
X70000Y-51000D02*
X70000Y-52500D01*
X31000Y-51000D02*
X31000Y-30000D01*
X70000Y-52500D02*
X31000Y-52500D01*
X70000Y-50800D02*
X70000Y-51000D01*
X70000Y-30400D02*
X70000Y-50800D01*
X67500Y-28000D02*
X31000Y-28000D01*
X67500Y-28000D02*
X70000Y-30500D01*
X31000Y-30000D02*
X31000Y-28000D01*
G54D10*
X42500Y-44900D02*
X42700Y-45100D01*
X42700Y-44900D02*
X42500Y-45100D01*
X45300Y-32200D02*
X45500Y-32400D01*
X45500Y-32200D02*
X45300Y-32400D01*
X45300Y-32800D02*
X45500Y-33000D01*
X45500Y-32800D02*
X45300Y-33000D01*
X46400Y-32200D02*
X46600Y-32400D01*
X46600Y-32200D02*
X46400Y-32400D01*
X46400Y-32700D02*
X46600Y-32900D01*
X46600Y-32700D02*
X46400Y-32900D01*
X46700Y-29900D02*
X46900Y-30100D01*
X46900Y-29900D02*
X46700Y-30100D01*
X47500Y-44600D02*
X47700Y-44800D01*
X47700Y-44600D02*
X47500Y-44800D01*
X47900Y-33400D02*
X48100Y-33600D01*
X48100Y-33400D02*
X47900Y-33600D01*
X47900Y-40400D02*
X48100Y-40600D01*
X48100Y-40400D02*
X47900Y-40600D01*
X48500Y-32200D02*
X48700Y-32400D01*
X48700Y-32200D02*
X48500Y-32400D01*
X48500Y-32800D02*
X48700Y-33000D01*
X48700Y-32800D02*
X48500Y-33000D01*
X49800Y-34300D02*
X50000Y-34500D01*
X50000Y-34300D02*
X49800Y-34500D01*
X50150Y-44150D02*
X50350Y-44350D01*
X50350Y-44150D02*
X50150Y-44350D01*
X50200Y-34700D02*
X50400Y-34900D01*
X50400Y-34700D02*
X50200Y-34900D01*
X50200Y-40500D02*
X50400Y-40700D01*
X50400Y-40500D02*
X50200Y-40700D01*
X50600Y-32300D02*
X50800Y-32500D01*
X50800Y-32300D02*
X50600Y-32500D01*
X50800Y-40700D02*
X51000Y-40900D01*
X51000Y-40700D02*
X50800Y-40900D01*
X50800Y-41300D02*
X51000Y-41500D01*
X51000Y-41300D02*
X50800Y-41500D01*
X50800Y-41800D02*
X51000Y-42000D01*
X51000Y-41800D02*
X50800Y-42000D01*
X50800Y-42300D02*
X51000Y-42500D01*
X51000Y-42300D02*
X50800Y-42500D01*
X50800Y-42900D02*
X51000Y-43100D01*
X51000Y-42900D02*
X50800Y-43100D01*
X50900Y-33800D02*
X51100Y-34000D01*
X51100Y-33800D02*
X50900Y-34000D01*
X51150Y-35400D02*
X51350Y-35600D01*
X51350Y-35400D02*
X51150Y-35600D01*
X51300Y-41000D02*
X51500Y-41200D01*
X51500Y-41000D02*
X51300Y-41200D01*
X51300Y-41500D02*
X51500Y-41700D01*
X51500Y-41500D02*
X51300Y-41700D01*
X51300Y-42000D02*
X51500Y-42200D01*
X51500Y-42000D02*
X51300Y-42200D01*
X51300Y-42400D02*
X51500Y-42600D01*
X51500Y-42400D02*
X51300Y-42600D01*
X51300Y-42900D02*
X51500Y-43100D01*
X51500Y-42900D02*
X51300Y-43100D01*
X52000Y-37700D02*
X52200Y-37900D01*
X52200Y-37700D02*
X52000Y-37900D01*
X52400Y-32700D02*
X52600Y-32900D01*
X52600Y-32700D02*
X52400Y-32900D01*
X52400Y-42100D02*
X52600Y-42300D01*
X52600Y-42100D02*
X52400Y-42300D01*
X52650Y-45900D02*
X52850Y-46100D01*
X52850Y-45900D02*
X52650Y-46100D01*
X53300Y-43100D02*
X53500Y-43300D01*
X53500Y-43100D02*
X53300Y-43300D01*
X53550Y-38100D02*
X53750Y-38300D01*
X53750Y-38100D02*
X53550Y-38300D01*
X53800Y-41600D02*
X54000Y-41800D01*
X54000Y-41600D02*
X53800Y-41800D01*
X53900Y-32700D02*
X54100Y-32900D01*
X54100Y-32700D02*
X53900Y-32900D01*
X54300Y-33800D02*
X54500Y-34000D01*
X54500Y-33800D02*
X54300Y-34000D01*
X55200Y-39800D02*
X55400Y-40000D01*
X55400Y-39800D02*
X55200Y-40000D01*
X55200Y-41600D02*
X55400Y-41800D01*
X55400Y-41600D02*
X55200Y-41800D01*
X55200Y-42250D02*
X55400Y-42450D01*
X55400Y-42250D02*
X55200Y-42450D01*
X55200Y-43000D02*
X55400Y-43200D01*
X55400Y-43000D02*
X55200Y-43200D01*
X56100Y-38400D02*
X56300Y-38600D01*
X56300Y-38400D02*
X56100Y-38600D01*
X56400Y-33450D02*
X56600Y-33650D01*
X56600Y-33450D02*
X56400Y-33650D01*
X56500Y-39100D02*
X56700Y-39300D01*
X56700Y-39100D02*
X56500Y-39300D01*
X56600Y-42200D02*
X56800Y-42400D01*
X56800Y-42200D02*
X56600Y-42400D01*
X56600Y-42800D02*
X56800Y-43000D01*
X56800Y-42800D02*
X56600Y-43000D01*
X56600Y-43400D02*
X56800Y-43600D01*
X56800Y-43400D02*
X56600Y-43600D01*
X57000Y-35700D02*
X57200Y-35900D01*
X57200Y-35700D02*
X57000Y-35900D01*
X57200Y-43600D02*
X57400Y-43800D01*
X57400Y-43600D02*
X57200Y-43800D01*
X57550Y-41750D02*
X57750Y-41950D01*
X57750Y-41750D02*
X57550Y-41950D01*
X58800Y-30000D02*
X59000Y-30200D01*
X59000Y-30000D02*
X58800Y-30200D01*
X41018Y-39706D02*
X41015Y-39728D01*
X41009Y-39750D01*
X40998Y-39771D01*
X40983Y-39789D01*
X40965Y-39803D01*
X40945Y-39814D01*
X40923Y-39821D01*
X40900Y-39823D01*
X40878Y-39821D01*
X40856Y-39815D01*
X40836Y-39804D01*
X40818Y-39790D01*
X40803Y-39772D01*
X40792Y-39752D01*
X40785Y-39730D01*
X40783Y-39707D01*
X40784Y-39685D01*
X40791Y-39663D01*
X40801Y-39643D01*
X40816Y-39625D01*
X40833Y-39610D01*
X40853Y-39598D01*
X40875Y-39591D01*
X40898Y-39589D01*
X40920Y-39590D01*
X40942Y-39596D01*
X40963Y-39607D01*
X40981Y-39621D01*
X40996Y-39638D01*
X41007Y-39659D01*
X41015Y-39680D01*
X41017Y-39703D01*
X41018Y-39706D01*
X41018Y-40494D02*
X41015Y-40516D01*
X41009Y-40538D01*
X40998Y-40559D01*
X40983Y-40577D01*
X40965Y-40591D01*
X40945Y-40602D01*
X40923Y-40609D01*
X40900Y-40611D01*
X40878Y-40609D01*
X40856Y-40603D01*
X40836Y-40592D01*
X40818Y-40578D01*
X40803Y-40560D01*
X40792Y-40540D01*
X40785Y-40518D01*
X40783Y-40495D01*
X40784Y-40473D01*
X40791Y-40451D01*
X40801Y-40431D01*
X40816Y-40413D01*
X40833Y-40398D01*
X40853Y-40386D01*
X40875Y-40379D01*
X40898Y-40377D01*
X40920Y-40378D01*
X40942Y-40384D01*
X40963Y-40395D01*
X40981Y-40409D01*
X40996Y-40426D01*
X41007Y-40447D01*
X41015Y-40468D01*
X41017Y-40491D01*
X41018Y-40494D01*
X54793Y-35852D02*
X54793Y-36162D01*
X54948Y-36007D02*
X54638Y-36007D01*
X54793Y-36852D02*
X54793Y-37162D01*
X54948Y-37007D02*
X54638Y-37007D01*
X54793Y-37821D02*
X54793Y-38131D01*
X54948Y-37976D02*
X54638Y-37976D01*
X54793Y-38821D02*
X54793Y-39131D01*
X54948Y-38976D02*
X54638Y-38976D01*
X55297Y-36352D02*
X55297Y-36662D01*
X55452Y-36507D02*
X55142Y-36507D01*
X55297Y-38321D02*
X55297Y-38631D01*
X55452Y-38476D02*
X55142Y-38476D01*
X55797Y-35852D02*
X55797Y-36162D01*
X55952Y-36007D02*
X55642Y-36007D01*
X55797Y-36852D02*
X55797Y-37162D01*
X55952Y-37007D02*
X55642Y-37007D01*
X55797Y-37821D02*
X55797Y-38131D01*
X55952Y-37976D02*
X55642Y-37976D01*
X55797Y-38821D02*
X55797Y-39131D01*
X55952Y-38976D02*
X55642Y-38976D01*
X38660Y-39600D02*
X38656Y-39631D01*
X38647Y-39660D01*
X38633Y-39688D01*
X38613Y-39712D01*
X38589Y-39732D01*
X38562Y-39747D01*
X38532Y-39756D01*
X38501Y-39759D01*
X38471Y-39757D01*
X38441Y-39748D01*
X38413Y-39733D01*
X38389Y-39714D01*
X38368Y-39690D01*
X38353Y-39663D01*
X38344Y-39633D01*
X38341Y-39602D01*
X38343Y-39572D01*
X38352Y-39542D01*
X38366Y-39514D01*
X38385Y-39489D01*
X38409Y-39469D01*
X38436Y-39454D01*
X38466Y-39444D01*
X38497Y-39441D01*
X38527Y-39443D01*
X38557Y-39451D01*
X38585Y-39465D01*
X38610Y-39485D01*
X38630Y-39508D01*
X38646Y-39535D01*
X38656Y-39565D01*
X38659Y-39596D01*
X38660Y-39600D01*
X38340Y-39440D02*
X38660Y-39760D01*
X38660Y-39440D02*
X38340Y-39760D01*
X38660Y-40600D02*
X38656Y-40631D01*
X38647Y-40660D01*
X38633Y-40688D01*
X38613Y-40712D01*
X38589Y-40732D01*
X38562Y-40747D01*
X38532Y-40756D01*
X38501Y-40759D01*
X38471Y-40757D01*
X38441Y-40748D01*
X38413Y-40733D01*
X38389Y-40714D01*
X38368Y-40690D01*
X38353Y-40663D01*
X38344Y-40633D01*
X38341Y-40602D01*
X38343Y-40572D01*
X38352Y-40542D01*
X38366Y-40514D01*
X38385Y-40489D01*
X38409Y-40469D01*
X38436Y-40454D01*
X38466Y-40444D01*
X38497Y-40441D01*
X38527Y-40443D01*
X38557Y-40451D01*
X38585Y-40465D01*
X38610Y-40485D01*
X38630Y-40508D01*
X38646Y-40535D01*
X38656Y-40565D01*
X38659Y-40596D01*
X38660Y-40600D01*
X38340Y-40440D02*
X38660Y-40760D01*
X38660Y-40440D02*
X38340Y-40760D01*
X40410Y-29000D02*
X40406Y-29031D01*
X40397Y-29060D01*
X40383Y-29088D01*
X40363Y-29112D01*
X40339Y-29132D01*
X40312Y-29147D01*
X40282Y-29156D01*
X40251Y-29159D01*
X40221Y-29157D01*
X40191Y-29148D01*
X40163Y-29133D01*
X40139Y-29114D01*
X40118Y-29090D01*
X40103Y-29063D01*
X40094Y-29033D01*
X40091Y-29002D01*
X40093Y-28972D01*
X40102Y-28942D01*
X40116Y-28914D01*
X40135Y-28889D01*
X40159Y-28869D01*
X40186Y-28854D01*
X40216Y-28844D01*
X40247Y-28841D01*
X40277Y-28843D01*
X40307Y-28851D01*
X40335Y-28865D01*
X40360Y-28885D01*
X40380Y-28908D01*
X40396Y-28935D01*
X40406Y-28965D01*
X40409Y-28996D01*
X40410Y-29000D01*
X40090Y-28840D02*
X40410Y-29160D01*
X40410Y-28840D02*
X40090Y-29160D01*
X40560Y-30950D02*
X40556Y-30981D01*
X40547Y-31010D01*
X40533Y-31038D01*
X40513Y-31062D01*
X40489Y-31082D01*
X40462Y-31097D01*
X40432Y-31106D01*
X40401Y-31109D01*
X40371Y-31107D01*
X40341Y-31098D01*
X40313Y-31083D01*
X40289Y-31064D01*
X40268Y-31040D01*
X40253Y-31013D01*
X40244Y-30983D01*
X40241Y-30952D01*
X40243Y-30922D01*
X40252Y-30892D01*
X40266Y-30864D01*
X40285Y-30839D01*
X40309Y-30819D01*
X40336Y-30804D01*
X40366Y-30794D01*
X40397Y-30791D01*
X40427Y-30793D01*
X40457Y-30801D01*
X40485Y-30815D01*
X40510Y-30835D01*
X40530Y-30858D01*
X40546Y-30885D01*
X40556Y-30915D01*
X40559Y-30946D01*
X40560Y-30950D01*
X40240Y-30790D02*
X40560Y-31110D01*
X40560Y-30790D02*
X40240Y-31110D01*
X41410Y-29000D02*
X41406Y-29031D01*
X41397Y-29060D01*
X41383Y-29088D01*
X41363Y-29112D01*
X41339Y-29132D01*
X41312Y-29147D01*
X41282Y-29156D01*
X41251Y-29159D01*
X41221Y-29157D01*
X41191Y-29148D01*
X41163Y-29133D01*
X41139Y-29114D01*
X41118Y-29090D01*
X41103Y-29063D01*
X41094Y-29033D01*
X41091Y-29002D01*
X41093Y-28972D01*
X41102Y-28942D01*
X41116Y-28914D01*
X41135Y-28889D01*
X41159Y-28869D01*
X41186Y-28854D01*
X41216Y-28844D01*
X41247Y-28841D01*
X41277Y-28843D01*
X41307Y-28851D01*
X41335Y-28865D01*
X41360Y-28885D01*
X41380Y-28908D01*
X41396Y-28935D01*
X41406Y-28965D01*
X41409Y-28996D01*
X41410Y-29000D01*
X41090Y-28840D02*
X41410Y-29160D01*
X41410Y-28840D02*
X41090Y-29160D01*
X41560Y-31050D02*
X41556Y-31081D01*
X41547Y-31110D01*
X41533Y-31138D01*
X41513Y-31162D01*
X41489Y-31182D01*
X41462Y-31197D01*
X41432Y-31206D01*
X41401Y-31209D01*
X41371Y-31207D01*
X41341Y-31198D01*
X41313Y-31183D01*
X41289Y-31164D01*
X41268Y-31140D01*
X41253Y-31113D01*
X41244Y-31083D01*
X41241Y-31052D01*
X41243Y-31022D01*
X41252Y-30992D01*
X41266Y-30964D01*
X41285Y-30939D01*
X41309Y-30919D01*
X41336Y-30904D01*
X41366Y-30894D01*
X41397Y-30891D01*
X41427Y-30893D01*
X41457Y-30901D01*
X41485Y-30915D01*
X41510Y-30935D01*
X41530Y-30958D01*
X41546Y-30985D01*
X41556Y-31015D01*
X41559Y-31046D01*
X41560Y-31050D01*
X41240Y-30890D02*
X41560Y-31210D01*
X41560Y-30890D02*
X41240Y-31210D01*
X42410Y-29000D02*
X42406Y-29031D01*
X42397Y-29060D01*
X42383Y-29088D01*
X42363Y-29112D01*
X42339Y-29132D01*
X42312Y-29147D01*
X42282Y-29156D01*
X42251Y-29159D01*
X42221Y-29157D01*
X42191Y-29148D01*
X42163Y-29133D01*
X42139Y-29114D01*
X42118Y-29090D01*
X42103Y-29063D01*
X42094Y-29033D01*
X42091Y-29002D01*
X42093Y-28972D01*
X42102Y-28942D01*
X42116Y-28914D01*
X42135Y-28889D01*
X42159Y-28869D01*
X42186Y-28854D01*
X42216Y-28844D01*
X42247Y-28841D01*
X42277Y-28843D01*
X42307Y-28851D01*
X42335Y-28865D01*
X42360Y-28885D01*
X42380Y-28908D01*
X42396Y-28935D01*
X42406Y-28965D01*
X42409Y-28996D01*
X42410Y-29000D01*
X42090Y-28840D02*
X42410Y-29160D01*
X42410Y-28840D02*
X42090Y-29160D01*
X42560Y-30950D02*
X42556Y-30981D01*
X42547Y-31010D01*
X42533Y-31038D01*
X42513Y-31062D01*
X42489Y-31082D01*
X42462Y-31097D01*
X42432Y-31106D01*
X42401Y-31109D01*
X42371Y-31107D01*
X42341Y-31098D01*
X42313Y-31083D01*
X42289Y-31064D01*
X42268Y-31040D01*
X42253Y-31013D01*
X42244Y-30983D01*
X42241Y-30952D01*
X42243Y-30922D01*
X42252Y-30892D01*
X42266Y-30864D01*
X42285Y-30839D01*
X42309Y-30819D01*
X42336Y-30804D01*
X42366Y-30794D01*
X42397Y-30791D01*
X42427Y-30793D01*
X42457Y-30801D01*
X42485Y-30815D01*
X42510Y-30835D01*
X42530Y-30858D01*
X42546Y-30885D01*
X42556Y-30915D01*
X42559Y-30946D01*
X42560Y-30950D01*
X42240Y-30790D02*
X42560Y-31110D01*
X42560Y-30790D02*
X42240Y-31110D01*
X43410Y-29000D02*
X43406Y-29031D01*
X43397Y-29060D01*
X43383Y-29088D01*
X43363Y-29112D01*
X43339Y-29132D01*
X43312Y-29147D01*
X43282Y-29156D01*
X43251Y-29159D01*
X43221Y-29157D01*
X43191Y-29148D01*
X43163Y-29133D01*
X43139Y-29114D01*
X43118Y-29090D01*
X43103Y-29063D01*
X43094Y-29033D01*
X43091Y-29002D01*
X43093Y-28972D01*
X43102Y-28942D01*
X43116Y-28914D01*
X43135Y-28889D01*
X43159Y-28869D01*
X43186Y-28854D01*
X43216Y-28844D01*
X43247Y-28841D01*
X43277Y-28843D01*
X43307Y-28851D01*
X43335Y-28865D01*
X43360Y-28885D01*
X43380Y-28908D01*
X43396Y-28935D01*
X43406Y-28965D01*
X43409Y-28996D01*
X43410Y-29000D01*
X43090Y-28840D02*
X43410Y-29160D01*
X43410Y-28840D02*
X43090Y-29160D01*
X43560Y-31050D02*
X43556Y-31081D01*
X43547Y-31110D01*
X43533Y-31138D01*
X43513Y-31162D01*
X43489Y-31182D01*
X43462Y-31197D01*
X43432Y-31206D01*
X43401Y-31209D01*
X43371Y-31207D01*
X43341Y-31198D01*
X43313Y-31183D01*
X43289Y-31164D01*
X43268Y-31140D01*
X43253Y-31113D01*
X43244Y-31083D01*
X43241Y-31052D01*
X43243Y-31022D01*
X43252Y-30992D01*
X43266Y-30964D01*
X43285Y-30939D01*
X43309Y-30919D01*
X43336Y-30904D01*
X43366Y-30894D01*
X43397Y-30891D01*
X43427Y-30893D01*
X43457Y-30901D01*
X43485Y-30915D01*
X43510Y-30935D01*
X43530Y-30958D01*
X43546Y-30985D01*
X43556Y-31015D01*
X43559Y-31046D01*
X43560Y-31050D01*
X43240Y-30890D02*
X43560Y-31210D01*
X43560Y-30890D02*
X43240Y-31210D01*
X44160Y-34450D02*
X44156Y-34481D01*
X44147Y-34510D01*
X44133Y-34538D01*
X44113Y-34562D01*
X44089Y-34582D01*
X44062Y-34597D01*
X44032Y-34606D01*
X44001Y-34609D01*
X43971Y-34607D01*
X43941Y-34598D01*
X43913Y-34583D01*
X43889Y-34564D01*
X43868Y-34540D01*
X43853Y-34513D01*
X43844Y-34483D01*
X43841Y-34452D01*
X43843Y-34422D01*
X43852Y-34392D01*
X43866Y-34364D01*
X43885Y-34339D01*
X43909Y-34319D01*
X43936Y-34304D01*
X43966Y-34294D01*
X43997Y-34291D01*
X44027Y-34293D01*
X44057Y-34301D01*
X44085Y-34315D01*
X44110Y-34335D01*
X44130Y-34358D01*
X44146Y-34385D01*
X44156Y-34415D01*
X44159Y-34446D01*
X44160Y-34450D01*
X43840Y-34290D02*
X44160Y-34610D01*
X44160Y-34290D02*
X43840Y-34610D01*
X44160Y-47550D02*
X44156Y-47581D01*
X44147Y-47610D01*
X44133Y-47638D01*
X44113Y-47662D01*
X44089Y-47682D01*
X44062Y-47697D01*
X44032Y-47706D01*
X44001Y-47709D01*
X43971Y-47707D01*
X43941Y-47698D01*
X43913Y-47683D01*
X43889Y-47664D01*
X43868Y-47640D01*
X43853Y-47613D01*
X43844Y-47583D01*
X43841Y-47552D01*
X43843Y-47522D01*
X43852Y-47492D01*
X43866Y-47464D01*
X43885Y-47439D01*
X43909Y-47419D01*
X43936Y-47404D01*
X43966Y-47394D01*
X43997Y-47391D01*
X44027Y-47393D01*
X44057Y-47401D01*
X44085Y-47415D01*
X44110Y-47435D01*
X44130Y-47458D01*
X44146Y-47485D01*
X44156Y-47515D01*
X44159Y-47546D01*
X44160Y-47550D01*
X43840Y-47390D02*
X44160Y-47710D01*
X44160Y-47390D02*
X43840Y-47710D01*
X44160Y-49950D02*
X44156Y-49981D01*
X44147Y-50010D01*
X44133Y-50038D01*
X44113Y-50062D01*
X44089Y-50082D01*
X44062Y-50097D01*
X44032Y-50106D01*
X44001Y-50109D01*
X43971Y-50107D01*
X43941Y-50098D01*
X43913Y-50083D01*
X43889Y-50064D01*
X43868Y-50040D01*
X43853Y-50013D01*
X43844Y-49983D01*
X43841Y-49952D01*
X43843Y-49922D01*
X43852Y-49892D01*
X43866Y-49864D01*
X43885Y-49839D01*
X43909Y-49819D01*
X43936Y-49804D01*
X43966Y-49794D01*
X43997Y-49791D01*
X44027Y-49793D01*
X44057Y-49801D01*
X44085Y-49815D01*
X44110Y-49835D01*
X44130Y-49858D01*
X44146Y-49885D01*
X44156Y-49915D01*
X44159Y-49946D01*
X44160Y-49950D01*
X43840Y-49790D02*
X44160Y-50110D01*
X44160Y-49790D02*
X43840Y-50110D01*
X44160Y-51750D02*
X44156Y-51781D01*
X44147Y-51810D01*
X44133Y-51838D01*
X44113Y-51862D01*
X44089Y-51882D01*
X44062Y-51897D01*
X44032Y-51906D01*
X44001Y-51909D01*
X43971Y-51907D01*
X43941Y-51898D01*
X43913Y-51883D01*
X43889Y-51864D01*
X43868Y-51840D01*
X43853Y-51813D01*
X43844Y-51783D01*
X43841Y-51752D01*
X43843Y-51722D01*
X43852Y-51692D01*
X43866Y-51664D01*
X43885Y-51639D01*
X43909Y-51619D01*
X43936Y-51604D01*
X43966Y-51594D01*
X43997Y-51591D01*
X44027Y-51593D01*
X44057Y-51601D01*
X44085Y-51615D01*
X44110Y-51635D01*
X44130Y-51658D01*
X44146Y-51685D01*
X44156Y-51715D01*
X44159Y-51746D01*
X44160Y-51750D01*
X43840Y-51590D02*
X44160Y-51910D01*
X44160Y-51590D02*
X43840Y-51910D01*
X44410Y-29000D02*
X44406Y-29031D01*
X44397Y-29060D01*
X44383Y-29088D01*
X44363Y-29112D01*
X44339Y-29132D01*
X44312Y-29147D01*
X44282Y-29156D01*
X44251Y-29159D01*
X44221Y-29157D01*
X44191Y-29148D01*
X44163Y-29133D01*
X44139Y-29114D01*
X44118Y-29090D01*
X44103Y-29063D01*
X44094Y-29033D01*
X44091Y-29002D01*
X44093Y-28972D01*
X44102Y-28942D01*
X44116Y-28914D01*
X44135Y-28889D01*
X44159Y-28869D01*
X44186Y-28854D01*
X44216Y-28844D01*
X44247Y-28841D01*
X44277Y-28843D01*
X44307Y-28851D01*
X44335Y-28865D01*
X44360Y-28885D01*
X44380Y-28908D01*
X44396Y-28935D01*
X44406Y-28965D01*
X44409Y-28996D01*
X44410Y-29000D01*
X44090Y-28840D02*
X44410Y-29160D01*
X44410Y-28840D02*
X44090Y-29160D01*
X44560Y-30950D02*
X44556Y-30981D01*
X44547Y-31010D01*
X44533Y-31038D01*
X44513Y-31062D01*
X44489Y-31082D01*
X44462Y-31097D01*
X44432Y-31106D01*
X44401Y-31109D01*
X44371Y-31107D01*
X44341Y-31098D01*
X44313Y-31083D01*
X44289Y-31064D01*
X44268Y-31040D01*
X44253Y-31013D01*
X44244Y-30983D01*
X44241Y-30952D01*
X44243Y-30922D01*
X44252Y-30892D01*
X44266Y-30864D01*
X44285Y-30839D01*
X44309Y-30819D01*
X44336Y-30804D01*
X44366Y-30794D01*
X44397Y-30791D01*
X44427Y-30793D01*
X44457Y-30801D01*
X44485Y-30815D01*
X44510Y-30835D01*
X44530Y-30858D01*
X44546Y-30885D01*
X44556Y-30915D01*
X44559Y-30946D01*
X44560Y-30950D01*
X44240Y-30790D02*
X44560Y-31110D01*
X44560Y-30790D02*
X44240Y-31110D01*
X45160Y-34550D02*
X45156Y-34581D01*
X45147Y-34610D01*
X45133Y-34638D01*
X45113Y-34662D01*
X45089Y-34682D01*
X45062Y-34697D01*
X45032Y-34706D01*
X45001Y-34709D01*
X44971Y-34707D01*
X44941Y-34698D01*
X44913Y-34683D01*
X44889Y-34664D01*
X44868Y-34640D01*
X44853Y-34613D01*
X44844Y-34583D01*
X44841Y-34552D01*
X44843Y-34522D01*
X44852Y-34492D01*
X44866Y-34464D01*
X44885Y-34439D01*
X44909Y-34419D01*
X44936Y-34404D01*
X44966Y-34394D01*
X44997Y-34391D01*
X45027Y-34393D01*
X45057Y-34401D01*
X45085Y-34415D01*
X45110Y-34435D01*
X45130Y-34458D01*
X45146Y-34485D01*
X45156Y-34515D01*
X45159Y-34546D01*
X45160Y-34550D01*
X44840Y-34390D02*
X45160Y-34710D01*
X45160Y-34390D02*
X44840Y-34710D01*
X45160Y-47450D02*
X45156Y-47481D01*
X45147Y-47510D01*
X45133Y-47538D01*
X45113Y-47562D01*
X45089Y-47582D01*
X45062Y-47597D01*
X45032Y-47606D01*
X45001Y-47609D01*
X44971Y-47607D01*
X44941Y-47598D01*
X44913Y-47583D01*
X44889Y-47564D01*
X44868Y-47540D01*
X44853Y-47513D01*
X44844Y-47483D01*
X44841Y-47452D01*
X44843Y-47422D01*
X44852Y-47392D01*
X44866Y-47364D01*
X44885Y-47339D01*
X44909Y-47319D01*
X44936Y-47304D01*
X44966Y-47294D01*
X44997Y-47291D01*
X45027Y-47293D01*
X45057Y-47301D01*
X45085Y-47315D01*
X45110Y-47335D01*
X45130Y-47358D01*
X45146Y-47385D01*
X45156Y-47415D01*
X45159Y-47446D01*
X45160Y-47450D01*
X44840Y-47290D02*
X45160Y-47610D01*
X45160Y-47290D02*
X44840Y-47610D01*
X45160Y-50100D02*
X45156Y-50131D01*
X45147Y-50160D01*
X45133Y-50188D01*
X45113Y-50212D01*
X45089Y-50232D01*
X45062Y-50247D01*
X45032Y-50256D01*
X45001Y-50259D01*
X44971Y-50257D01*
X44941Y-50248D01*
X44913Y-50233D01*
X44889Y-50214D01*
X44868Y-50190D01*
X44853Y-50163D01*
X44844Y-50133D01*
X44841Y-50102D01*
X44843Y-50072D01*
X44852Y-50042D01*
X44866Y-50014D01*
X44885Y-49989D01*
X44909Y-49969D01*
X44936Y-49954D01*
X44966Y-49944D01*
X44997Y-49941D01*
X45027Y-49943D01*
X45057Y-49951D01*
X45085Y-49965D01*
X45110Y-49985D01*
X45130Y-50008D01*
X45146Y-50035D01*
X45156Y-50065D01*
X45159Y-50096D01*
X45160Y-50100D01*
X44840Y-49940D02*
X45160Y-50260D01*
X45160Y-49940D02*
X44840Y-50260D01*
X45160Y-51750D02*
X45156Y-51781D01*
X45147Y-51810D01*
X45133Y-51838D01*
X45113Y-51862D01*
X45089Y-51882D01*
X45062Y-51897D01*
X45032Y-51906D01*
X45001Y-51909D01*
X44971Y-51907D01*
X44941Y-51898D01*
X44913Y-51883D01*
X44889Y-51864D01*
X44868Y-51840D01*
X44853Y-51813D01*
X44844Y-51783D01*
X44841Y-51752D01*
X44843Y-51722D01*
X44852Y-51692D01*
X44866Y-51664D01*
X44885Y-51639D01*
X44909Y-51619D01*
X44936Y-51604D01*
X44966Y-51594D01*
X44997Y-51591D01*
X45027Y-51593D01*
X45057Y-51601D01*
X45085Y-51615D01*
X45110Y-51635D01*
X45130Y-51658D01*
X45146Y-51685D01*
X45156Y-51715D01*
X45159Y-51746D01*
X45160Y-51750D01*
X44840Y-51590D02*
X45160Y-51910D01*
X45160Y-51590D02*
X44840Y-51910D01*
X45560Y-31050D02*
X45556Y-31081D01*
X45547Y-31110D01*
X45533Y-31138D01*
X45513Y-31162D01*
X45489Y-31182D01*
X45462Y-31197D01*
X45432Y-31206D01*
X45401Y-31209D01*
X45371Y-31207D01*
X45341Y-31198D01*
X45313Y-31183D01*
X45289Y-31164D01*
X45268Y-31140D01*
X45253Y-31113D01*
X45244Y-31083D01*
X45241Y-31052D01*
X45243Y-31022D01*
X45252Y-30992D01*
X45266Y-30964D01*
X45285Y-30939D01*
X45309Y-30919D01*
X45336Y-30904D01*
X45366Y-30894D01*
X45397Y-30891D01*
X45427Y-30893D01*
X45457Y-30901D01*
X45485Y-30915D01*
X45510Y-30935D01*
X45530Y-30958D01*
X45546Y-30985D01*
X45556Y-31015D01*
X45559Y-31046D01*
X45560Y-31050D01*
X45240Y-30890D02*
X45560Y-31210D01*
X45560Y-30890D02*
X45240Y-31210D01*
X46160Y-34450D02*
X46156Y-34481D01*
X46147Y-34510D01*
X46133Y-34538D01*
X46113Y-34562D01*
X46089Y-34582D01*
X46062Y-34597D01*
X46032Y-34606D01*
X46001Y-34609D01*
X45971Y-34607D01*
X45941Y-34598D01*
X45913Y-34583D01*
X45889Y-34564D01*
X45868Y-34540D01*
X45853Y-34513D01*
X45844Y-34483D01*
X45841Y-34452D01*
X45843Y-34422D01*
X45852Y-34392D01*
X45866Y-34364D01*
X45885Y-34339D01*
X45909Y-34319D01*
X45936Y-34304D01*
X45966Y-34294D01*
X45997Y-34291D01*
X46027Y-34293D01*
X46057Y-34301D01*
X46085Y-34315D01*
X46110Y-34335D01*
X46130Y-34358D01*
X46146Y-34385D01*
X46156Y-34415D01*
X46159Y-34446D01*
X46160Y-34450D01*
X45840Y-34290D02*
X46160Y-34610D01*
X46160Y-34290D02*
X45840Y-34610D01*
X46160Y-47550D02*
X46156Y-47581D01*
X46147Y-47610D01*
X46133Y-47638D01*
X46113Y-47662D01*
X46089Y-47682D01*
X46062Y-47697D01*
X46032Y-47706D01*
X46001Y-47709D01*
X45971Y-47707D01*
X45941Y-47698D01*
X45913Y-47683D01*
X45889Y-47664D01*
X45868Y-47640D01*
X45853Y-47613D01*
X45844Y-47583D01*
X45841Y-47552D01*
X45843Y-47522D01*
X45852Y-47492D01*
X45866Y-47464D01*
X45885Y-47439D01*
X45909Y-47419D01*
X45936Y-47404D01*
X45966Y-47394D01*
X45997Y-47391D01*
X46027Y-47393D01*
X46057Y-47401D01*
X46085Y-47415D01*
X46110Y-47435D01*
X46130Y-47458D01*
X46146Y-47485D01*
X46156Y-47515D01*
X46159Y-47546D01*
X46160Y-47550D01*
X45840Y-47390D02*
X46160Y-47710D01*
X46160Y-47390D02*
X45840Y-47710D01*
X46160Y-49950D02*
X46156Y-49981D01*
X46147Y-50010D01*
X46133Y-50038D01*
X46113Y-50062D01*
X46089Y-50082D01*
X46062Y-50097D01*
X46032Y-50106D01*
X46001Y-50109D01*
X45971Y-50107D01*
X45941Y-50098D01*
X45913Y-50083D01*
X45889Y-50064D01*
X45868Y-50040D01*
X45853Y-50013D01*
X45844Y-49983D01*
X45841Y-49952D01*
X45843Y-49922D01*
X45852Y-49892D01*
X45866Y-49864D01*
X45885Y-49839D01*
X45909Y-49819D01*
X45936Y-49804D01*
X45966Y-49794D01*
X45997Y-49791D01*
X46027Y-49793D01*
X46057Y-49801D01*
X46085Y-49815D01*
X46110Y-49835D01*
X46130Y-49858D01*
X46146Y-49885D01*
X46156Y-49915D01*
X46159Y-49946D01*
X46160Y-49950D01*
X45840Y-49790D02*
X46160Y-50110D01*
X46160Y-49790D02*
X45840Y-50110D01*
X46160Y-51750D02*
X46156Y-51781D01*
X46147Y-51810D01*
X46133Y-51838D01*
X46113Y-51862D01*
X46089Y-51882D01*
X46062Y-51897D01*
X46032Y-51906D01*
X46001Y-51909D01*
X45971Y-51907D01*
X45941Y-51898D01*
X45913Y-51883D01*
X45889Y-51864D01*
X45868Y-51840D01*
X45853Y-51813D01*
X45844Y-51783D01*
X45841Y-51752D01*
X45843Y-51722D01*
X45852Y-51692D01*
X45866Y-51664D01*
X45885Y-51639D01*
X45909Y-51619D01*
X45936Y-51604D01*
X45966Y-51594D01*
X45997Y-51591D01*
X46027Y-51593D01*
X46057Y-51601D01*
X46085Y-51615D01*
X46110Y-51635D01*
X46130Y-51658D01*
X46146Y-51685D01*
X46156Y-51715D01*
X46159Y-51746D01*
X46160Y-51750D01*
X45840Y-51590D02*
X46160Y-51910D01*
X46160Y-51590D02*
X45840Y-51910D01*
X46560Y-30950D02*
X46556Y-30981D01*
X46547Y-31010D01*
X46533Y-31038D01*
X46513Y-31062D01*
X46489Y-31082D01*
X46462Y-31097D01*
X46432Y-31106D01*
X46401Y-31109D01*
X46371Y-31107D01*
X46341Y-31098D01*
X46313Y-31083D01*
X46289Y-31064D01*
X46268Y-31040D01*
X46253Y-31013D01*
X46244Y-30983D01*
X46241Y-30952D01*
X46243Y-30922D01*
X46252Y-30892D01*
X46266Y-30864D01*
X46285Y-30839D01*
X46309Y-30819D01*
X46336Y-30804D01*
X46366Y-30794D01*
X46397Y-30791D01*
X46427Y-30793D01*
X46457Y-30801D01*
X46485Y-30815D01*
X46510Y-30835D01*
X46530Y-30858D01*
X46546Y-30885D01*
X46556Y-30915D01*
X46559Y-30946D01*
X46560Y-30950D01*
X46240Y-30790D02*
X46560Y-31110D01*
X46560Y-30790D02*
X46240Y-31110D01*
X47160Y-34550D02*
X47156Y-34581D01*
X47147Y-34610D01*
X47133Y-34638D01*
X47113Y-34662D01*
X47089Y-34682D01*
X47062Y-34697D01*
X47032Y-34706D01*
X47001Y-34709D01*
X46971Y-34707D01*
X46941Y-34698D01*
X46913Y-34683D01*
X46889Y-34664D01*
X46868Y-34640D01*
X46853Y-34613D01*
X46844Y-34583D01*
X46841Y-34552D01*
X46843Y-34522D01*
X46852Y-34492D01*
X46866Y-34464D01*
X46885Y-34439D01*
X46909Y-34419D01*
X46936Y-34404D01*
X46966Y-34394D01*
X46997Y-34391D01*
X47027Y-34393D01*
X47057Y-34401D01*
X47085Y-34415D01*
X47110Y-34435D01*
X47130Y-34458D01*
X47146Y-34485D01*
X47156Y-34515D01*
X47159Y-34546D01*
X47160Y-34550D01*
X46840Y-34390D02*
X47160Y-34710D01*
X47160Y-34390D02*
X46840Y-34710D01*
X47160Y-47450D02*
X47156Y-47481D01*
X47147Y-47510D01*
X47133Y-47538D01*
X47113Y-47562D01*
X47089Y-47582D01*
X47062Y-47597D01*
X47032Y-47606D01*
X47001Y-47609D01*
X46971Y-47607D01*
X46941Y-47598D01*
X46913Y-47583D01*
X46889Y-47564D01*
X46868Y-47540D01*
X46853Y-47513D01*
X46844Y-47483D01*
X46841Y-47452D01*
X46843Y-47422D01*
X46852Y-47392D01*
X46866Y-47364D01*
X46885Y-47339D01*
X46909Y-47319D01*
X46936Y-47304D01*
X46966Y-47294D01*
X46997Y-47291D01*
X47027Y-47293D01*
X47057Y-47301D01*
X47085Y-47315D01*
X47110Y-47335D01*
X47130Y-47358D01*
X47146Y-47385D01*
X47156Y-47415D01*
X47159Y-47446D01*
X47160Y-47450D01*
X46840Y-47290D02*
X47160Y-47610D01*
X47160Y-47290D02*
X46840Y-47610D01*
X47160Y-50050D02*
X47156Y-50081D01*
X47147Y-50110D01*
X47133Y-50138D01*
X47113Y-50162D01*
X47089Y-50182D01*
X47062Y-50197D01*
X47032Y-50206D01*
X47001Y-50209D01*
X46971Y-50207D01*
X46941Y-50198D01*
X46913Y-50183D01*
X46889Y-50164D01*
X46868Y-50140D01*
X46853Y-50113D01*
X46844Y-50083D01*
X46841Y-50052D01*
X46843Y-50022D01*
X46852Y-49992D01*
X46866Y-49964D01*
X46885Y-49939D01*
X46909Y-49919D01*
X46936Y-49904D01*
X46966Y-49894D01*
X46997Y-49891D01*
X47027Y-49893D01*
X47057Y-49901D01*
X47085Y-49915D01*
X47110Y-49935D01*
X47130Y-49958D01*
X47146Y-49985D01*
X47156Y-50015D01*
X47159Y-50046D01*
X47160Y-50050D01*
X46840Y-49890D02*
X47160Y-50210D01*
X47160Y-49890D02*
X46840Y-50210D01*
X47160Y-51750D02*
X47156Y-51781D01*
X47147Y-51810D01*
X47133Y-51838D01*
X47113Y-51862D01*
X47089Y-51882D01*
X47062Y-51897D01*
X47032Y-51906D01*
X47001Y-51909D01*
X46971Y-51907D01*
X46941Y-51898D01*
X46913Y-51883D01*
X46889Y-51864D01*
X46868Y-51840D01*
X46853Y-51813D01*
X46844Y-51783D01*
X46841Y-51752D01*
X46843Y-51722D01*
X46852Y-51692D01*
X46866Y-51664D01*
X46885Y-51639D01*
X46909Y-51619D01*
X46936Y-51604D01*
X46966Y-51594D01*
X46997Y-51591D01*
X47027Y-51593D01*
X47057Y-51601D01*
X47085Y-51615D01*
X47110Y-51635D01*
X47130Y-51658D01*
X47146Y-51685D01*
X47156Y-51715D01*
X47159Y-51746D01*
X47160Y-51750D01*
X46840Y-51590D02*
X47160Y-51910D01*
X47160Y-51590D02*
X46840Y-51910D01*
X47560Y-31050D02*
X47556Y-31081D01*
X47547Y-31110D01*
X47533Y-31138D01*
X47513Y-31162D01*
X47489Y-31182D01*
X47462Y-31197D01*
X47432Y-31206D01*
X47401Y-31209D01*
X47371Y-31207D01*
X47341Y-31198D01*
X47313Y-31183D01*
X47289Y-31164D01*
X47268Y-31140D01*
X47253Y-31113D01*
X47244Y-31083D01*
X47241Y-31052D01*
X47243Y-31022D01*
X47252Y-30992D01*
X47266Y-30964D01*
X47285Y-30939D01*
X47309Y-30919D01*
X47336Y-30904D01*
X47366Y-30894D01*
X47397Y-30891D01*
X47427Y-30893D01*
X47457Y-30901D01*
X47485Y-30915D01*
X47510Y-30935D01*
X47530Y-30958D01*
X47546Y-30985D01*
X47556Y-31015D01*
X47559Y-31046D01*
X47560Y-31050D01*
X47240Y-30890D02*
X47560Y-31210D01*
X47560Y-30890D02*
X47240Y-31210D01*
X48160Y-29000D02*
X48156Y-29031D01*
X48147Y-29060D01*
X48133Y-29088D01*
X48113Y-29112D01*
X48089Y-29132D01*
X48062Y-29147D01*
X48032Y-29156D01*
X48001Y-29159D01*
X47971Y-29157D01*
X47941Y-29148D01*
X47913Y-29133D01*
X47889Y-29114D01*
X47868Y-29090D01*
X47853Y-29063D01*
X47844Y-29033D01*
X47841Y-29002D01*
X47843Y-28972D01*
X47852Y-28942D01*
X47866Y-28914D01*
X47885Y-28889D01*
X47909Y-28869D01*
X47936Y-28854D01*
X47966Y-28844D01*
X47997Y-28841D01*
X48027Y-28843D01*
X48057Y-28851D01*
X48085Y-28865D01*
X48110Y-28885D01*
X48130Y-28908D01*
X48146Y-28935D01*
X48156Y-28965D01*
X48159Y-28996D01*
X48160Y-29000D01*
X47840Y-28840D02*
X48160Y-29160D01*
X48160Y-28840D02*
X47840Y-29160D01*
X48160Y-49950D02*
X48156Y-49981D01*
X48147Y-50010D01*
X48133Y-50038D01*
X48113Y-50062D01*
X48089Y-50082D01*
X48062Y-50097D01*
X48032Y-50106D01*
X48001Y-50109D01*
X47971Y-50107D01*
X47941Y-50098D01*
X47913Y-50083D01*
X47889Y-50064D01*
X47868Y-50040D01*
X47853Y-50013D01*
X47844Y-49983D01*
X47841Y-49952D01*
X47843Y-49922D01*
X47852Y-49892D01*
X47866Y-49864D01*
X47885Y-49839D01*
X47909Y-49819D01*
X47936Y-49804D01*
X47966Y-49794D01*
X47997Y-49791D01*
X48027Y-49793D01*
X48057Y-49801D01*
X48085Y-49815D01*
X48110Y-49835D01*
X48130Y-49858D01*
X48146Y-49885D01*
X48156Y-49915D01*
X48159Y-49946D01*
X48160Y-49950D01*
X47840Y-49790D02*
X48160Y-50110D01*
X48160Y-49790D02*
X47840Y-50110D01*
X48160Y-51750D02*
X48156Y-51781D01*
X48147Y-51810D01*
X48133Y-51838D01*
X48113Y-51862D01*
X48089Y-51882D01*
X48062Y-51897D01*
X48032Y-51906D01*
X48001Y-51909D01*
X47971Y-51907D01*
X47941Y-51898D01*
X47913Y-51883D01*
X47889Y-51864D01*
X47868Y-51840D01*
X47853Y-51813D01*
X47844Y-51783D01*
X47841Y-51752D01*
X47843Y-51722D01*
X47852Y-51692D01*
X47866Y-51664D01*
X47885Y-51639D01*
X47909Y-51619D01*
X47936Y-51604D01*
X47966Y-51594D01*
X47997Y-51591D01*
X48027Y-51593D01*
X48057Y-51601D01*
X48085Y-51615D01*
X48110Y-51635D01*
X48130Y-51658D01*
X48146Y-51685D01*
X48156Y-51715D01*
X48159Y-51746D01*
X48160Y-51750D01*
X47840Y-51590D02*
X48160Y-51910D01*
X48160Y-51590D02*
X47840Y-51910D01*
X48742Y-39632D02*
X48738Y-39663D01*
X48729Y-39692D01*
X48715Y-39720D01*
X48695Y-39744D01*
X48671Y-39764D01*
X48644Y-39779D01*
X48614Y-39788D01*
X48583Y-39791D01*
X48553Y-39789D01*
X48523Y-39780D01*
X48495Y-39765D01*
X48471Y-39746D01*
X48450Y-39722D01*
X48435Y-39695D01*
X48426Y-39665D01*
X48423Y-39634D01*
X48425Y-39604D01*
X48434Y-39574D01*
X48448Y-39546D01*
X48467Y-39521D01*
X48491Y-39501D01*
X48518Y-39486D01*
X48548Y-39476D01*
X48579Y-39473D01*
X48609Y-39475D01*
X48639Y-39483D01*
X48667Y-39497D01*
X48692Y-39517D01*
X48712Y-39540D01*
X48728Y-39567D01*
X48738Y-39597D01*
X48741Y-39628D01*
X48742Y-39632D01*
X48422Y-39472D02*
X48742Y-39792D01*
X48742Y-39472D02*
X48422Y-39792D01*
X48860Y-43500D02*
X48856Y-43531D01*
X48847Y-43560D01*
X48833Y-43588D01*
X48813Y-43612D01*
X48789Y-43632D01*
X48762Y-43647D01*
X48732Y-43656D01*
X48701Y-43659D01*
X48671Y-43657D01*
X48641Y-43648D01*
X48613Y-43633D01*
X48589Y-43614D01*
X48568Y-43590D01*
X48553Y-43563D01*
X48544Y-43533D01*
X48541Y-43502D01*
X48543Y-43472D01*
X48552Y-43442D01*
X48566Y-43414D01*
X48585Y-43389D01*
X48609Y-43369D01*
X48636Y-43354D01*
X48666Y-43344D01*
X48697Y-43341D01*
X48727Y-43343D01*
X48757Y-43351D01*
X48785Y-43365D01*
X48810Y-43385D01*
X48830Y-43408D01*
X48846Y-43435D01*
X48856Y-43465D01*
X48859Y-43496D01*
X48860Y-43500D01*
X48540Y-43340D02*
X48860Y-43660D01*
X48860Y-43340D02*
X48540Y-43660D01*
X48860Y-45500D02*
X48856Y-45531D01*
X48847Y-45560D01*
X48833Y-45588D01*
X48813Y-45612D01*
X48789Y-45632D01*
X48762Y-45647D01*
X48732Y-45656D01*
X48701Y-45659D01*
X48671Y-45657D01*
X48641Y-45648D01*
X48613Y-45633D01*
X48589Y-45614D01*
X48568Y-45590D01*
X48553Y-45563D01*
X48544Y-45533D01*
X48541Y-45502D01*
X48543Y-45472D01*
X48552Y-45442D01*
X48566Y-45414D01*
X48585Y-45389D01*
X48609Y-45369D01*
X48636Y-45354D01*
X48666Y-45344D01*
X48697Y-45341D01*
X48727Y-45343D01*
X48757Y-45351D01*
X48785Y-45365D01*
X48810Y-45385D01*
X48830Y-45408D01*
X48846Y-45435D01*
X48856Y-45465D01*
X48859Y-45496D01*
X48860Y-45500D01*
X48540Y-45340D02*
X48860Y-45660D01*
X48860Y-45340D02*
X48540Y-45660D01*
X48860Y-47500D02*
X48856Y-47531D01*
X48847Y-47560D01*
X48833Y-47588D01*
X48813Y-47612D01*
X48789Y-47632D01*
X48762Y-47647D01*
X48732Y-47656D01*
X48701Y-47659D01*
X48671Y-47657D01*
X48641Y-47648D01*
X48613Y-47633D01*
X48589Y-47614D01*
X48568Y-47590D01*
X48553Y-47563D01*
X48544Y-47533D01*
X48541Y-47502D01*
X48543Y-47472D01*
X48552Y-47442D01*
X48566Y-47414D01*
X48585Y-47389D01*
X48609Y-47369D01*
X48636Y-47354D01*
X48666Y-47344D01*
X48697Y-47341D01*
X48727Y-47343D01*
X48757Y-47351D01*
X48785Y-47365D01*
X48810Y-47385D01*
X48830Y-47408D01*
X48846Y-47435D01*
X48856Y-47465D01*
X48859Y-47496D01*
X48860Y-47500D01*
X48540Y-47340D02*
X48860Y-47660D01*
X48860Y-47340D02*
X48540Y-47660D01*
X48960Y-42500D02*
X48956Y-42531D01*
X48947Y-42560D01*
X48933Y-42588D01*
X48913Y-42612D01*
X48889Y-42632D01*
X48862Y-42647D01*
X48832Y-42656D01*
X48801Y-42659D01*
X48771Y-42657D01*
X48741Y-42648D01*
X48713Y-42633D01*
X48689Y-42614D01*
X48668Y-42590D01*
X48653Y-42563D01*
X48644Y-42533D01*
X48641Y-42502D01*
X48643Y-42472D01*
X48652Y-42442D01*
X48666Y-42414D01*
X48685Y-42389D01*
X48709Y-42369D01*
X48736Y-42354D01*
X48766Y-42344D01*
X48797Y-42341D01*
X48827Y-42343D01*
X48857Y-42351D01*
X48885Y-42365D01*
X48910Y-42385D01*
X48930Y-42408D01*
X48946Y-42435D01*
X48956Y-42465D01*
X48959Y-42496D01*
X48960Y-42500D01*
X48640Y-42340D02*
X48960Y-42660D01*
X48960Y-42340D02*
X48640Y-42660D01*
X48960Y-44500D02*
X48956Y-44531D01*
X48947Y-44560D01*
X48933Y-44588D01*
X48913Y-44612D01*
X48889Y-44632D01*
X48862Y-44647D01*
X48832Y-44656D01*
X48801Y-44659D01*
X48771Y-44657D01*
X48741Y-44648D01*
X48713Y-44633D01*
X48689Y-44614D01*
X48668Y-44590D01*
X48653Y-44563D01*
X48644Y-44533D01*
X48641Y-44502D01*
X48643Y-44472D01*
X48652Y-44442D01*
X48666Y-44414D01*
X48685Y-44389D01*
X48709Y-44369D01*
X48736Y-44354D01*
X48766Y-44344D01*
X48797Y-44341D01*
X48827Y-44343D01*
X48857Y-44351D01*
X48885Y-44365D01*
X48910Y-44385D01*
X48930Y-44408D01*
X48946Y-44435D01*
X48956Y-44465D01*
X48959Y-44496D01*
X48960Y-44500D01*
X48640Y-44340D02*
X48960Y-44660D01*
X48960Y-44340D02*
X48640Y-44660D01*
X48960Y-46500D02*
X48956Y-46531D01*
X48947Y-46560D01*
X48933Y-46588D01*
X48913Y-46612D01*
X48889Y-46632D01*
X48862Y-46647D01*
X48832Y-46656D01*
X48801Y-46659D01*
X48771Y-46657D01*
X48741Y-46648D01*
X48713Y-46633D01*
X48689Y-46614D01*
X48668Y-46590D01*
X48653Y-46563D01*
X48644Y-46533D01*
X48641Y-46502D01*
X48643Y-46472D01*
X48652Y-46442D01*
X48666Y-46414D01*
X48685Y-46389D01*
X48709Y-46369D01*
X48736Y-46354D01*
X48766Y-46344D01*
X48797Y-46341D01*
X48827Y-46343D01*
X48857Y-46351D01*
X48885Y-46365D01*
X48910Y-46385D01*
X48930Y-46408D01*
X48946Y-46435D01*
X48956Y-46465D01*
X48959Y-46496D01*
X48960Y-46500D01*
X48640Y-46340D02*
X48960Y-46660D01*
X48960Y-46340D02*
X48640Y-46660D01*
X49160Y-29000D02*
X49156Y-29031D01*
X49147Y-29060D01*
X49133Y-29088D01*
X49113Y-29112D01*
X49089Y-29132D01*
X49062Y-29147D01*
X49032Y-29156D01*
X49001Y-29159D01*
X48971Y-29157D01*
X48941Y-29148D01*
X48913Y-29133D01*
X48889Y-29114D01*
X48868Y-29090D01*
X48853Y-29063D01*
X48844Y-29033D01*
X48841Y-29002D01*
X48843Y-28972D01*
X48852Y-28942D01*
X48866Y-28914D01*
X48885Y-28889D01*
X48909Y-28869D01*
X48936Y-28854D01*
X48966Y-28844D01*
X48997Y-28841D01*
X49027Y-28843D01*
X49057Y-28851D01*
X49085Y-28865D01*
X49110Y-28885D01*
X49130Y-28908D01*
X49146Y-28935D01*
X49156Y-28965D01*
X49159Y-28996D01*
X49160Y-29000D01*
X48840Y-28840D02*
X49160Y-29160D01*
X49160Y-28840D02*
X48840Y-29160D01*
X49160Y-30950D02*
X49156Y-30981D01*
X49147Y-31010D01*
X49133Y-31038D01*
X49113Y-31062D01*
X49089Y-31082D01*
X49062Y-31097D01*
X49032Y-31106D01*
X49001Y-31109D01*
X48971Y-31107D01*
X48941Y-31098D01*
X48913Y-31083D01*
X48889Y-31064D01*
X48868Y-31040D01*
X48853Y-31013D01*
X48844Y-30983D01*
X48841Y-30952D01*
X48843Y-30922D01*
X48852Y-30892D01*
X48866Y-30864D01*
X48885Y-30839D01*
X48909Y-30819D01*
X48936Y-30804D01*
X48966Y-30794D01*
X48997Y-30791D01*
X49027Y-30793D01*
X49057Y-30801D01*
X49085Y-30815D01*
X49110Y-30835D01*
X49130Y-30858D01*
X49146Y-30885D01*
X49156Y-30915D01*
X49159Y-30946D01*
X49160Y-30950D01*
X48840Y-30790D02*
X49160Y-31110D01*
X49160Y-30790D02*
X48840Y-31110D01*
X49160Y-50050D02*
X49156Y-50081D01*
X49147Y-50110D01*
X49133Y-50138D01*
X49113Y-50162D01*
X49089Y-50182D01*
X49062Y-50197D01*
X49032Y-50206D01*
X49001Y-50209D01*
X48971Y-50207D01*
X48941Y-50198D01*
X48913Y-50183D01*
X48889Y-50164D01*
X48868Y-50140D01*
X48853Y-50113D01*
X48844Y-50083D01*
X48841Y-50052D01*
X48843Y-50022D01*
X48852Y-49992D01*
X48866Y-49964D01*
X48885Y-49939D01*
X48909Y-49919D01*
X48936Y-49904D01*
X48966Y-49894D01*
X48997Y-49891D01*
X49027Y-49893D01*
X49057Y-49901D01*
X49085Y-49915D01*
X49110Y-49935D01*
X49130Y-49958D01*
X49146Y-49985D01*
X49156Y-50015D01*
X49159Y-50046D01*
X49160Y-50050D01*
X48840Y-49890D02*
X49160Y-50210D01*
X49160Y-49890D02*
X48840Y-50210D01*
X49160Y-51750D02*
X49156Y-51781D01*
X49147Y-51810D01*
X49133Y-51838D01*
X49113Y-51862D01*
X49089Y-51882D01*
X49062Y-51897D01*
X49032Y-51906D01*
X49001Y-51909D01*
X48971Y-51907D01*
X48941Y-51898D01*
X48913Y-51883D01*
X48889Y-51864D01*
X48868Y-51840D01*
X48853Y-51813D01*
X48844Y-51783D01*
X48841Y-51752D01*
X48843Y-51722D01*
X48852Y-51692D01*
X48866Y-51664D01*
X48885Y-51639D01*
X48909Y-51619D01*
X48936Y-51604D01*
X48966Y-51594D01*
X48997Y-51591D01*
X49027Y-51593D01*
X49057Y-51601D01*
X49085Y-51615D01*
X49110Y-51635D01*
X49130Y-51658D01*
X49146Y-51685D01*
X49156Y-51715D01*
X49159Y-51746D01*
X49160Y-51750D01*
X48840Y-51590D02*
X49160Y-51910D01*
X49160Y-51590D02*
X48840Y-51910D01*
X49661Y-37250D02*
X49657Y-37281D01*
X49648Y-37310D01*
X49634Y-37338D01*
X49614Y-37362D01*
X49590Y-37382D01*
X49563Y-37397D01*
X49533Y-37406D01*
X49502Y-37409D01*
X49472Y-37407D01*
X49442Y-37398D01*
X49414Y-37383D01*
X49390Y-37364D01*
X49369Y-37340D01*
X49354Y-37313D01*
X49345Y-37283D01*
X49342Y-37252D01*
X49344Y-37222D01*
X49353Y-37192D01*
X49367Y-37164D01*
X49386Y-37139D01*
X49410Y-37119D01*
X49437Y-37104D01*
X49467Y-37094D01*
X49498Y-37091D01*
X49528Y-37093D01*
X49558Y-37101D01*
X49586Y-37115D01*
X49611Y-37135D01*
X49631Y-37158D01*
X49647Y-37185D01*
X49657Y-37215D01*
X49660Y-37246D01*
X49661Y-37250D01*
X49341Y-37090D02*
X49661Y-37410D01*
X49661Y-37090D02*
X49341Y-37410D01*
X49661Y-38350D02*
X49657Y-38381D01*
X49648Y-38410D01*
X49634Y-38438D01*
X49614Y-38462D01*
X49590Y-38482D01*
X49563Y-38497D01*
X49533Y-38506D01*
X49502Y-38509D01*
X49472Y-38507D01*
X49442Y-38498D01*
X49414Y-38483D01*
X49390Y-38464D01*
X49369Y-38440D01*
X49354Y-38413D01*
X49345Y-38383D01*
X49342Y-38352D01*
X49344Y-38322D01*
X49353Y-38292D01*
X49367Y-38264D01*
X49386Y-38239D01*
X49410Y-38219D01*
X49437Y-38204D01*
X49467Y-38194D01*
X49498Y-38191D01*
X49528Y-38193D01*
X49558Y-38201D01*
X49586Y-38215D01*
X49611Y-38235D01*
X49631Y-38258D01*
X49647Y-38285D01*
X49657Y-38315D01*
X49660Y-38346D01*
X49661Y-38350D01*
X49341Y-38190D02*
X49661Y-38510D01*
X49661Y-38190D02*
X49341Y-38510D01*
X49778Y-35768D02*
X49774Y-35799D01*
X49765Y-35828D01*
X49751Y-35856D01*
X49731Y-35880D01*
X49707Y-35900D01*
X49680Y-35915D01*
X49650Y-35924D01*
X49619Y-35927D01*
X49589Y-35925D01*
X49559Y-35916D01*
X49531Y-35901D01*
X49507Y-35882D01*
X49486Y-35858D01*
X49471Y-35831D01*
X49462Y-35801D01*
X49459Y-35770D01*
X49461Y-35740D01*
X49470Y-35710D01*
X49484Y-35682D01*
X49503Y-35657D01*
X49527Y-35637D01*
X49554Y-35622D01*
X49584Y-35612D01*
X49615Y-35609D01*
X49645Y-35611D01*
X49675Y-35619D01*
X49703Y-35633D01*
X49728Y-35653D01*
X49748Y-35676D01*
X49764Y-35703D01*
X49774Y-35733D01*
X49777Y-35764D01*
X49778Y-35768D01*
X49458Y-35608D02*
X49778Y-35928D01*
X49778Y-35608D02*
X49458Y-35928D01*
X50160Y-29000D02*
X50156Y-29031D01*
X50147Y-29060D01*
X50133Y-29088D01*
X50113Y-29112D01*
X50089Y-29132D01*
X50062Y-29147D01*
X50032Y-29156D01*
X50001Y-29159D01*
X49971Y-29157D01*
X49941Y-29148D01*
X49913Y-29133D01*
X49889Y-29114D01*
X49868Y-29090D01*
X49853Y-29063D01*
X49844Y-29033D01*
X49841Y-29002D01*
X49843Y-28972D01*
X49852Y-28942D01*
X49866Y-28914D01*
X49885Y-28889D01*
X49909Y-28869D01*
X49936Y-28854D01*
X49966Y-28844D01*
X49997Y-28841D01*
X50027Y-28843D01*
X50057Y-28851D01*
X50085Y-28865D01*
X50110Y-28885D01*
X50130Y-28908D01*
X50146Y-28935D01*
X50156Y-28965D01*
X50159Y-28996D01*
X50160Y-29000D01*
X49840Y-28840D02*
X50160Y-29160D01*
X50160Y-28840D02*
X49840Y-29160D01*
X50160Y-31050D02*
X50156Y-31081D01*
X50147Y-31110D01*
X50133Y-31138D01*
X50113Y-31162D01*
X50089Y-31182D01*
X50062Y-31197D01*
X50032Y-31206D01*
X50001Y-31209D01*
X49971Y-31207D01*
X49941Y-31198D01*
X49913Y-31183D01*
X49889Y-31164D01*
X49868Y-31140D01*
X49853Y-31113D01*
X49844Y-31083D01*
X49841Y-31052D01*
X49843Y-31022D01*
X49852Y-30992D01*
X49866Y-30964D01*
X49885Y-30939D01*
X49909Y-30919D01*
X49936Y-30904D01*
X49966Y-30894D01*
X49997Y-30891D01*
X50027Y-30893D01*
X50057Y-30901D01*
X50085Y-30915D01*
X50110Y-30935D01*
X50130Y-30958D01*
X50146Y-30985D01*
X50156Y-31015D01*
X50159Y-31046D01*
X50160Y-31050D01*
X49840Y-30890D02*
X50160Y-31210D01*
X50160Y-30890D02*
X49840Y-31210D01*
X51110Y-46500D02*
X51106Y-46531D01*
X51097Y-46560D01*
X51083Y-46588D01*
X51063Y-46612D01*
X51039Y-46632D01*
X51012Y-46647D01*
X50982Y-46656D01*
X50951Y-46659D01*
X50921Y-46657D01*
X50891Y-46648D01*
X50863Y-46633D01*
X50839Y-46614D01*
X50818Y-46590D01*
X50803Y-46563D01*
X50794Y-46533D01*
X50791Y-46502D01*
X50793Y-46472D01*
X50802Y-46442D01*
X50816Y-46414D01*
X50835Y-46389D01*
X50859Y-46369D01*
X50886Y-46354D01*
X50916Y-46344D01*
X50947Y-46341D01*
X50977Y-46343D01*
X51007Y-46351D01*
X51035Y-46365D01*
X51060Y-46385D01*
X51080Y-46408D01*
X51096Y-46435D01*
X51106Y-46465D01*
X51109Y-46496D01*
X51110Y-46500D01*
X50790Y-46340D02*
X51110Y-46660D01*
X51110Y-46340D02*
X50790Y-46660D01*
X51110Y-48500D02*
X51106Y-48531D01*
X51097Y-48560D01*
X51083Y-48588D01*
X51063Y-48612D01*
X51039Y-48632D01*
X51012Y-48647D01*
X50982Y-48656D01*
X50951Y-48659D01*
X50921Y-48657D01*
X50891Y-48648D01*
X50863Y-48633D01*
X50839Y-48614D01*
X50818Y-48590D01*
X50803Y-48563D01*
X50794Y-48533D01*
X50791Y-48502D01*
X50793Y-48472D01*
X50802Y-48442D01*
X50816Y-48414D01*
X50835Y-48389D01*
X50859Y-48369D01*
X50886Y-48354D01*
X50916Y-48344D01*
X50947Y-48341D01*
X50977Y-48343D01*
X51007Y-48351D01*
X51035Y-48365D01*
X51060Y-48385D01*
X51080Y-48408D01*
X51096Y-48435D01*
X51106Y-48465D01*
X51109Y-48496D01*
X51110Y-48500D01*
X50790Y-48340D02*
X51110Y-48660D01*
X51110Y-48340D02*
X50790Y-48660D01*
X51160Y-29000D02*
X51156Y-29031D01*
X51147Y-29060D01*
X51133Y-29088D01*
X51113Y-29112D01*
X51089Y-29132D01*
X51062Y-29147D01*
X51032Y-29156D01*
X51001Y-29159D01*
X50971Y-29157D01*
X50941Y-29148D01*
X50913Y-29133D01*
X50889Y-29114D01*
X50868Y-29090D01*
X50853Y-29063D01*
X50844Y-29033D01*
X50841Y-29002D01*
X50843Y-28972D01*
X50852Y-28942D01*
X50866Y-28914D01*
X50885Y-28889D01*
X50909Y-28869D01*
X50936Y-28854D01*
X50966Y-28844D01*
X50997Y-28841D01*
X51027Y-28843D01*
X51057Y-28851D01*
X51085Y-28865D01*
X51110Y-28885D01*
X51130Y-28908D01*
X51146Y-28935D01*
X51156Y-28965D01*
X51159Y-28996D01*
X51160Y-29000D01*
X50840Y-28840D02*
X51160Y-29160D01*
X51160Y-28840D02*
X50840Y-29160D01*
X51160Y-30950D02*
X51156Y-30981D01*
X51147Y-31010D01*
X51133Y-31038D01*
X51113Y-31062D01*
X51089Y-31082D01*
X51062Y-31097D01*
X51032Y-31106D01*
X51001Y-31109D01*
X50971Y-31107D01*
X50941Y-31098D01*
X50913Y-31083D01*
X50889Y-31064D01*
X50868Y-31040D01*
X50853Y-31013D01*
X50844Y-30983D01*
X50841Y-30952D01*
X50843Y-30922D01*
X50852Y-30892D01*
X50866Y-30864D01*
X50885Y-30839D01*
X50909Y-30819D01*
X50936Y-30804D01*
X50966Y-30794D01*
X50997Y-30791D01*
X51027Y-30793D01*
X51057Y-30801D01*
X51085Y-30815D01*
X51110Y-30835D01*
X51130Y-30858D01*
X51146Y-30885D01*
X51156Y-30915D01*
X51159Y-30946D01*
X51160Y-30950D01*
X50840Y-30790D02*
X51160Y-31110D01*
X51160Y-30790D02*
X50840Y-31110D01*
X51160Y-49950D02*
X51156Y-49981D01*
X51147Y-50010D01*
X51133Y-50038D01*
X51113Y-50062D01*
X51089Y-50082D01*
X51062Y-50097D01*
X51032Y-50106D01*
X51001Y-50109D01*
X50971Y-50107D01*
X50941Y-50098D01*
X50913Y-50083D01*
X50889Y-50064D01*
X50868Y-50040D01*
X50853Y-50013D01*
X50844Y-49983D01*
X50841Y-49952D01*
X50843Y-49922D01*
X50852Y-49892D01*
X50866Y-49864D01*
X50885Y-49839D01*
X50909Y-49819D01*
X50936Y-49804D01*
X50966Y-49794D01*
X50997Y-49791D01*
X51027Y-49793D01*
X51057Y-49801D01*
X51085Y-49815D01*
X51110Y-49835D01*
X51130Y-49858D01*
X51146Y-49885D01*
X51156Y-49915D01*
X51159Y-49946D01*
X51160Y-49950D01*
X50840Y-49790D02*
X51160Y-50110D01*
X51160Y-49790D02*
X50840Y-50110D01*
X51160Y-51750D02*
X51156Y-51781D01*
X51147Y-51810D01*
X51133Y-51838D01*
X51113Y-51862D01*
X51089Y-51882D01*
X51062Y-51897D01*
X51032Y-51906D01*
X51001Y-51909D01*
X50971Y-51907D01*
X50941Y-51898D01*
X50913Y-51883D01*
X50889Y-51864D01*
X50868Y-51840D01*
X50853Y-51813D01*
X50844Y-51783D01*
X50841Y-51752D01*
X50843Y-51722D01*
X50852Y-51692D01*
X50866Y-51664D01*
X50885Y-51639D01*
X50909Y-51619D01*
X50936Y-51604D01*
X50966Y-51594D01*
X50997Y-51591D01*
X51027Y-51593D01*
X51057Y-51601D01*
X51085Y-51615D01*
X51110Y-51635D01*
X51130Y-51658D01*
X51146Y-51685D01*
X51156Y-51715D01*
X51159Y-51746D01*
X51160Y-51750D01*
X50840Y-51590D02*
X51160Y-51910D01*
X51160Y-51590D02*
X50840Y-51910D01*
X51210Y-45500D02*
X51206Y-45531D01*
X51197Y-45560D01*
X51183Y-45588D01*
X51163Y-45612D01*
X51139Y-45632D01*
X51112Y-45647D01*
X51082Y-45656D01*
X51051Y-45659D01*
X51021Y-45657D01*
X50991Y-45648D01*
X50963Y-45633D01*
X50939Y-45614D01*
X50918Y-45590D01*
X50903Y-45563D01*
X50894Y-45533D01*
X50891Y-45502D01*
X50893Y-45472D01*
X50902Y-45442D01*
X50916Y-45414D01*
X50935Y-45389D01*
X50959Y-45369D01*
X50986Y-45354D01*
X51016Y-45344D01*
X51047Y-45341D01*
X51077Y-45343D01*
X51107Y-45351D01*
X51135Y-45365D01*
X51160Y-45385D01*
X51180Y-45408D01*
X51196Y-45435D01*
X51206Y-45465D01*
X51209Y-45496D01*
X51210Y-45500D01*
X50890Y-45340D02*
X51210Y-45660D01*
X51210Y-45340D02*
X50890Y-45660D01*
X51210Y-47500D02*
X51206Y-47531D01*
X51197Y-47560D01*
X51183Y-47588D01*
X51163Y-47612D01*
X51139Y-47632D01*
X51112Y-47647D01*
X51082Y-47656D01*
X51051Y-47659D01*
X51021Y-47657D01*
X50991Y-47648D01*
X50963Y-47633D01*
X50939Y-47614D01*
X50918Y-47590D01*
X50903Y-47563D01*
X50894Y-47533D01*
X50891Y-47502D01*
X50893Y-47472D01*
X50902Y-47442D01*
X50916Y-47414D01*
X50935Y-47389D01*
X50959Y-47369D01*
X50986Y-47354D01*
X51016Y-47344D01*
X51047Y-47341D01*
X51077Y-47343D01*
X51107Y-47351D01*
X51135Y-47365D01*
X51160Y-47385D01*
X51180Y-47408D01*
X51196Y-47435D01*
X51206Y-47465D01*
X51209Y-47496D01*
X51210Y-47500D01*
X50890Y-47340D02*
X51210Y-47660D01*
X51210Y-47340D02*
X50890Y-47660D01*
X52160Y-29000D02*
X52156Y-29031D01*
X52147Y-29060D01*
X52133Y-29088D01*
X52113Y-29112D01*
X52089Y-29132D01*
X52062Y-29147D01*
X52032Y-29156D01*
X52001Y-29159D01*
X51971Y-29157D01*
X51941Y-29148D01*
X51913Y-29133D01*
X51889Y-29114D01*
X51868Y-29090D01*
X51853Y-29063D01*
X51844Y-29033D01*
X51841Y-29002D01*
X51843Y-28972D01*
X51852Y-28942D01*
X51866Y-28914D01*
X51885Y-28889D01*
X51909Y-28869D01*
X51936Y-28854D01*
X51966Y-28844D01*
X51997Y-28841D01*
X52027Y-28843D01*
X52057Y-28851D01*
X52085Y-28865D01*
X52110Y-28885D01*
X52130Y-28908D01*
X52146Y-28935D01*
X52156Y-28965D01*
X52159Y-28996D01*
X52160Y-29000D01*
X51840Y-28840D02*
X52160Y-29160D01*
X52160Y-28840D02*
X51840Y-29160D01*
X52160Y-31050D02*
X52156Y-31081D01*
X52147Y-31110D01*
X52133Y-31138D01*
X52113Y-31162D01*
X52089Y-31182D01*
X52062Y-31197D01*
X52032Y-31206D01*
X52001Y-31209D01*
X51971Y-31207D01*
X51941Y-31198D01*
X51913Y-31183D01*
X51889Y-31164D01*
X51868Y-31140D01*
X51853Y-31113D01*
X51844Y-31083D01*
X51841Y-31052D01*
X51843Y-31022D01*
X51852Y-30992D01*
X51866Y-30964D01*
X51885Y-30939D01*
X51909Y-30919D01*
X51936Y-30904D01*
X51966Y-30894D01*
X51997Y-30891D01*
X52027Y-30893D01*
X52057Y-30901D01*
X52085Y-30915D01*
X52110Y-30935D01*
X52130Y-30958D01*
X52146Y-30985D01*
X52156Y-31015D01*
X52159Y-31046D01*
X52160Y-31050D01*
X51840Y-30890D02*
X52160Y-31210D01*
X52160Y-30890D02*
X51840Y-31210D01*
X52160Y-33400D02*
X52156Y-33431D01*
X52147Y-33460D01*
X52133Y-33488D01*
X52113Y-33512D01*
X52089Y-33532D01*
X52062Y-33547D01*
X52032Y-33556D01*
X52001Y-33559D01*
X51971Y-33557D01*
X51941Y-33548D01*
X51913Y-33533D01*
X51889Y-33514D01*
X51868Y-33490D01*
X51853Y-33463D01*
X51844Y-33433D01*
X51841Y-33402D01*
X51843Y-33372D01*
X51852Y-33342D01*
X51866Y-33314D01*
X51885Y-33289D01*
X51909Y-33269D01*
X51936Y-33254D01*
X51966Y-33244D01*
X51997Y-33241D01*
X52027Y-33243D01*
X52057Y-33251D01*
X52085Y-33265D01*
X52110Y-33285D01*
X52130Y-33308D01*
X52146Y-33335D01*
X52156Y-33365D01*
X52159Y-33396D01*
X52160Y-33400D01*
X51840Y-33240D02*
X52160Y-33560D01*
X52160Y-33240D02*
X51840Y-33560D01*
X52160Y-34400D02*
X52156Y-34431D01*
X52147Y-34460D01*
X52133Y-34488D01*
X52113Y-34512D01*
X52089Y-34532D01*
X52062Y-34547D01*
X52032Y-34556D01*
X52001Y-34559D01*
X51971Y-34557D01*
X51941Y-34548D01*
X51913Y-34533D01*
X51889Y-34514D01*
X51868Y-34490D01*
X51853Y-34463D01*
X51844Y-34433D01*
X51841Y-34402D01*
X51843Y-34372D01*
X51852Y-34342D01*
X51866Y-34314D01*
X51885Y-34289D01*
X51909Y-34269D01*
X51936Y-34254D01*
X51966Y-34244D01*
X51997Y-34241D01*
X52027Y-34243D01*
X52057Y-34251D01*
X52085Y-34265D01*
X52110Y-34285D01*
X52130Y-34308D01*
X52146Y-34335D01*
X52156Y-34365D01*
X52159Y-34396D01*
X52160Y-34400D01*
X51840Y-34240D02*
X52160Y-34560D01*
X52160Y-34240D02*
X51840Y-34560D01*
X52160Y-50050D02*
X52156Y-50081D01*
X52147Y-50110D01*
X52133Y-50138D01*
X52113Y-50162D01*
X52089Y-50182D01*
X52062Y-50197D01*
X52032Y-50206D01*
X52001Y-50209D01*
X51971Y-50207D01*
X51941Y-50198D01*
X51913Y-50183D01*
X51889Y-50164D01*
X51868Y-50140D01*
X51853Y-50113D01*
X51844Y-50083D01*
X51841Y-50052D01*
X51843Y-50022D01*
X51852Y-49992D01*
X51866Y-49964D01*
X51885Y-49939D01*
X51909Y-49919D01*
X51936Y-49904D01*
X51966Y-49894D01*
X51997Y-49891D01*
X52027Y-49893D01*
X52057Y-49901D01*
X52085Y-49915D01*
X52110Y-49935D01*
X52130Y-49958D01*
X52146Y-49985D01*
X52156Y-50015D01*
X52159Y-50046D01*
X52160Y-50050D01*
X51840Y-49890D02*
X52160Y-50210D01*
X52160Y-49890D02*
X51840Y-50210D01*
X52160Y-51750D02*
X52156Y-51781D01*
X52147Y-51810D01*
X52133Y-51838D01*
X52113Y-51862D01*
X52089Y-51882D01*
X52062Y-51897D01*
X52032Y-51906D01*
X52001Y-51909D01*
X51971Y-51907D01*
X51941Y-51898D01*
X51913Y-51883D01*
X51889Y-51864D01*
X51868Y-51840D01*
X51853Y-51813D01*
X51844Y-51783D01*
X51841Y-51752D01*
X51843Y-51722D01*
X51852Y-51692D01*
X51866Y-51664D01*
X51885Y-51639D01*
X51909Y-51619D01*
X51936Y-51604D01*
X51966Y-51594D01*
X51997Y-51591D01*
X52027Y-51593D01*
X52057Y-51601D01*
X52085Y-51615D01*
X52110Y-51635D01*
X52130Y-51658D01*
X52146Y-51685D01*
X52156Y-51715D01*
X52159Y-51746D01*
X52160Y-51750D01*
X51840Y-51590D02*
X52160Y-51910D01*
X52160Y-51590D02*
X51840Y-51910D01*
X52259Y-38750D02*
X52255Y-38781D01*
X52246Y-38810D01*
X52232Y-38838D01*
X52212Y-38862D01*
X52188Y-38882D01*
X52161Y-38897D01*
X52131Y-38906D01*
X52100Y-38909D01*
X52070Y-38907D01*
X52040Y-38898D01*
X52012Y-38883D01*
X51988Y-38864D01*
X51967Y-38840D01*
X51952Y-38813D01*
X51943Y-38783D01*
X51940Y-38752D01*
X51942Y-38722D01*
X51951Y-38692D01*
X51965Y-38664D01*
X51984Y-38639D01*
X52008Y-38619D01*
X52035Y-38604D01*
X52065Y-38594D01*
X52096Y-38591D01*
X52126Y-38593D01*
X52156Y-38601D01*
X52184Y-38615D01*
X52209Y-38635D01*
X52229Y-38658D01*
X52245Y-38685D01*
X52255Y-38715D01*
X52258Y-38746D01*
X52259Y-38750D01*
X51939Y-38590D02*
X52259Y-38910D01*
X52259Y-38590D02*
X51939Y-38910D01*
X52259Y-39850D02*
X52255Y-39881D01*
X52246Y-39910D01*
X52232Y-39938D01*
X52212Y-39962D01*
X52188Y-39982D01*
X52161Y-39997D01*
X52131Y-40006D01*
X52100Y-40009D01*
X52070Y-40007D01*
X52040Y-39998D01*
X52012Y-39983D01*
X51988Y-39964D01*
X51967Y-39940D01*
X51952Y-39913D01*
X51943Y-39883D01*
X51940Y-39852D01*
X51942Y-39822D01*
X51951Y-39792D01*
X51965Y-39764D01*
X51984Y-39739D01*
X52008Y-39719D01*
X52035Y-39704D01*
X52065Y-39694D01*
X52096Y-39691D01*
X52126Y-39693D01*
X52156Y-39701D01*
X52184Y-39715D01*
X52209Y-39735D01*
X52229Y-39758D01*
X52245Y-39785D01*
X52255Y-39815D01*
X52258Y-39846D01*
X52259Y-39850D01*
X51939Y-39690D02*
X52259Y-40010D01*
X52259Y-39690D02*
X51939Y-40010D01*
X53160Y-29000D02*
X53156Y-29031D01*
X53147Y-29060D01*
X53133Y-29088D01*
X53113Y-29112D01*
X53089Y-29132D01*
X53062Y-29147D01*
X53032Y-29156D01*
X53001Y-29159D01*
X52971Y-29157D01*
X52941Y-29148D01*
X52913Y-29133D01*
X52889Y-29114D01*
X52868Y-29090D01*
X52853Y-29063D01*
X52844Y-29033D01*
X52841Y-29002D01*
X52843Y-28972D01*
X52852Y-28942D01*
X52866Y-28914D01*
X52885Y-28889D01*
X52909Y-28869D01*
X52936Y-28854D01*
X52966Y-28844D01*
X52997Y-28841D01*
X53027Y-28843D01*
X53057Y-28851D01*
X53085Y-28865D01*
X53110Y-28885D01*
X53130Y-28908D01*
X53146Y-28935D01*
X53156Y-28965D01*
X53159Y-28996D01*
X53160Y-29000D01*
X52840Y-28840D02*
X53160Y-29160D01*
X53160Y-28840D02*
X52840Y-29160D01*
X53160Y-30950D02*
X53156Y-30981D01*
X53147Y-31010D01*
X53133Y-31038D01*
X53113Y-31062D01*
X53089Y-31082D01*
X53062Y-31097D01*
X53032Y-31106D01*
X53001Y-31109D01*
X52971Y-31107D01*
X52941Y-31098D01*
X52913Y-31083D01*
X52889Y-31064D01*
X52868Y-31040D01*
X52853Y-31013D01*
X52844Y-30983D01*
X52841Y-30952D01*
X52843Y-30922D01*
X52852Y-30892D01*
X52866Y-30864D01*
X52885Y-30839D01*
X52909Y-30819D01*
X52936Y-30804D01*
X52966Y-30794D01*
X52997Y-30791D01*
X53027Y-30793D01*
X53057Y-30801D01*
X53085Y-30815D01*
X53110Y-30835D01*
X53130Y-30858D01*
X53146Y-30885D01*
X53156Y-30915D01*
X53159Y-30946D01*
X53160Y-30950D01*
X52840Y-30790D02*
X53160Y-31110D01*
X53160Y-30790D02*
X52840Y-31110D01*
X53160Y-33400D02*
X53156Y-33431D01*
X53147Y-33460D01*
X53133Y-33488D01*
X53113Y-33512D01*
X53089Y-33532D01*
X53062Y-33547D01*
X53032Y-33556D01*
X53001Y-33559D01*
X52971Y-33557D01*
X52941Y-33548D01*
X52913Y-33533D01*
X52889Y-33514D01*
X52868Y-33490D01*
X52853Y-33463D01*
X52844Y-33433D01*
X52841Y-33402D01*
X52843Y-33372D01*
X52852Y-33342D01*
X52866Y-33314D01*
X52885Y-33289D01*
X52909Y-33269D01*
X52936Y-33254D01*
X52966Y-33244D01*
X52997Y-33241D01*
X53027Y-33243D01*
X53057Y-33251D01*
X53085Y-33265D01*
X53110Y-33285D01*
X53130Y-33308D01*
X53146Y-33335D01*
X53156Y-33365D01*
X53159Y-33396D01*
X53160Y-33400D01*
X52840Y-33240D02*
X53160Y-33560D01*
X53160Y-33240D02*
X52840Y-33560D01*
X53160Y-34400D02*
X53156Y-34431D01*
X53147Y-34460D01*
X53133Y-34488D01*
X53113Y-34512D01*
X53089Y-34532D01*
X53062Y-34547D01*
X53032Y-34556D01*
X53001Y-34559D01*
X52971Y-34557D01*
X52941Y-34548D01*
X52913Y-34533D01*
X52889Y-34514D01*
X52868Y-34490D01*
X52853Y-34463D01*
X52844Y-34433D01*
X52841Y-34402D01*
X52843Y-34372D01*
X52852Y-34342D01*
X52866Y-34314D01*
X52885Y-34289D01*
X52909Y-34269D01*
X52936Y-34254D01*
X52966Y-34244D01*
X52997Y-34241D01*
X53027Y-34243D01*
X53057Y-34251D01*
X53085Y-34265D01*
X53110Y-34285D01*
X53130Y-34308D01*
X53146Y-34335D01*
X53156Y-34365D01*
X53159Y-34396D01*
X53160Y-34400D01*
X52840Y-34240D02*
X53160Y-34560D01*
X53160Y-34240D02*
X52840Y-34560D01*
X53160Y-49950D02*
X53156Y-49981D01*
X53147Y-50010D01*
X53133Y-50038D01*
X53113Y-50062D01*
X53089Y-50082D01*
X53062Y-50097D01*
X53032Y-50106D01*
X53001Y-50109D01*
X52971Y-50107D01*
X52941Y-50098D01*
X52913Y-50083D01*
X52889Y-50064D01*
X52868Y-50040D01*
X52853Y-50013D01*
X52844Y-49983D01*
X52841Y-49952D01*
X52843Y-49922D01*
X52852Y-49892D01*
X52866Y-49864D01*
X52885Y-49839D01*
X52909Y-49819D01*
X52936Y-49804D01*
X52966Y-49794D01*
X52997Y-49791D01*
X53027Y-49793D01*
X53057Y-49801D01*
X53085Y-49815D01*
X53110Y-49835D01*
X53130Y-49858D01*
X53146Y-49885D01*
X53156Y-49915D01*
X53159Y-49946D01*
X53160Y-49950D01*
X52840Y-49790D02*
X53160Y-50110D01*
X53160Y-49790D02*
X52840Y-50110D01*
X53160Y-51750D02*
X53156Y-51781D01*
X53147Y-51810D01*
X53133Y-51838D01*
X53113Y-51862D01*
X53089Y-51882D01*
X53062Y-51897D01*
X53032Y-51906D01*
X53001Y-51909D01*
X52971Y-51907D01*
X52941Y-51898D01*
X52913Y-51883D01*
X52889Y-51864D01*
X52868Y-51840D01*
X52853Y-51813D01*
X52844Y-51783D01*
X52841Y-51752D01*
X52843Y-51722D01*
X52852Y-51692D01*
X52866Y-51664D01*
X52885Y-51639D01*
X52909Y-51619D01*
X52936Y-51604D01*
X52966Y-51594D01*
X52997Y-51591D01*
X53027Y-51593D01*
X53057Y-51601D01*
X53085Y-51615D01*
X53110Y-51635D01*
X53130Y-51658D01*
X53146Y-51685D01*
X53156Y-51715D01*
X53159Y-51746D01*
X53160Y-51750D01*
X52840Y-51590D02*
X53160Y-51910D01*
X53160Y-51590D02*
X52840Y-51910D01*
X54160Y-29000D02*
X54156Y-29031D01*
X54147Y-29060D01*
X54133Y-29088D01*
X54113Y-29112D01*
X54089Y-29132D01*
X54062Y-29147D01*
X54032Y-29156D01*
X54001Y-29159D01*
X53971Y-29157D01*
X53941Y-29148D01*
X53913Y-29133D01*
X53889Y-29114D01*
X53868Y-29090D01*
X53853Y-29063D01*
X53844Y-29033D01*
X53841Y-29002D01*
X53843Y-28972D01*
X53852Y-28942D01*
X53866Y-28914D01*
X53885Y-28889D01*
X53909Y-28869D01*
X53936Y-28854D01*
X53966Y-28844D01*
X53997Y-28841D01*
X54027Y-28843D01*
X54057Y-28851D01*
X54085Y-28865D01*
X54110Y-28885D01*
X54130Y-28908D01*
X54146Y-28935D01*
X54156Y-28965D01*
X54159Y-28996D01*
X54160Y-29000D01*
X53840Y-28840D02*
X54160Y-29160D01*
X54160Y-28840D02*
X53840Y-29160D01*
X54160Y-31050D02*
X54156Y-31081D01*
X54147Y-31110D01*
X54133Y-31138D01*
X54113Y-31162D01*
X54089Y-31182D01*
X54062Y-31197D01*
X54032Y-31206D01*
X54001Y-31209D01*
X53971Y-31207D01*
X53941Y-31198D01*
X53913Y-31183D01*
X53889Y-31164D01*
X53868Y-31140D01*
X53853Y-31113D01*
X53844Y-31083D01*
X53841Y-31052D01*
X53843Y-31022D01*
X53852Y-30992D01*
X53866Y-30964D01*
X53885Y-30939D01*
X53909Y-30919D01*
X53936Y-30904D01*
X53966Y-30894D01*
X53997Y-30891D01*
X54027Y-30893D01*
X54057Y-30901D01*
X54085Y-30915D01*
X54110Y-30935D01*
X54130Y-30958D01*
X54146Y-30985D01*
X54156Y-31015D01*
X54159Y-31046D01*
X54160Y-31050D01*
X53840Y-30890D02*
X54160Y-31210D01*
X54160Y-30890D02*
X53840Y-31210D01*
X54160Y-50050D02*
X54156Y-50081D01*
X54147Y-50110D01*
X54133Y-50138D01*
X54113Y-50162D01*
X54089Y-50182D01*
X54062Y-50197D01*
X54032Y-50206D01*
X54001Y-50209D01*
X53971Y-50207D01*
X53941Y-50198D01*
X53913Y-50183D01*
X53889Y-50164D01*
X53868Y-50140D01*
X53853Y-50113D01*
X53844Y-50083D01*
X53841Y-50052D01*
X53843Y-50022D01*
X53852Y-49992D01*
X53866Y-49964D01*
X53885Y-49939D01*
X53909Y-49919D01*
X53936Y-49904D01*
X53966Y-49894D01*
X53997Y-49891D01*
X54027Y-49893D01*
X54057Y-49901D01*
X54085Y-49915D01*
X54110Y-49935D01*
X54130Y-49958D01*
X54146Y-49985D01*
X54156Y-50015D01*
X54159Y-50046D01*
X54160Y-50050D01*
X53840Y-49890D02*
X54160Y-50210D01*
X54160Y-49890D02*
X53840Y-50210D01*
X54160Y-51750D02*
X54156Y-51781D01*
X54147Y-51810D01*
X54133Y-51838D01*
X54113Y-51862D01*
X54089Y-51882D01*
X54062Y-51897D01*
X54032Y-51906D01*
X54001Y-51909D01*
X53971Y-51907D01*
X53941Y-51898D01*
X53913Y-51883D01*
X53889Y-51864D01*
X53868Y-51840D01*
X53853Y-51813D01*
X53844Y-51783D01*
X53841Y-51752D01*
X53843Y-51722D01*
X53852Y-51692D01*
X53866Y-51664D01*
X53885Y-51639D01*
X53909Y-51619D01*
X53936Y-51604D01*
X53966Y-51594D01*
X53997Y-51591D01*
X54027Y-51593D01*
X54057Y-51601D01*
X54085Y-51615D01*
X54110Y-51635D01*
X54130Y-51658D01*
X54146Y-51685D01*
X54156Y-51715D01*
X54159Y-51746D01*
X54160Y-51750D01*
X53840Y-51590D02*
X54160Y-51910D01*
X54160Y-51590D02*
X53840Y-51910D01*
X55160Y-29000D02*
X55156Y-29031D01*
X55147Y-29060D01*
X55133Y-29088D01*
X55113Y-29112D01*
X55089Y-29132D01*
X55062Y-29147D01*
X55032Y-29156D01*
X55001Y-29159D01*
X54971Y-29157D01*
X54941Y-29148D01*
X54913Y-29133D01*
X54889Y-29114D01*
X54868Y-29090D01*
X54853Y-29063D01*
X54844Y-29033D01*
X54841Y-29002D01*
X54843Y-28972D01*
X54852Y-28942D01*
X54866Y-28914D01*
X54885Y-28889D01*
X54909Y-28869D01*
X54936Y-28854D01*
X54966Y-28844D01*
X54997Y-28841D01*
X55027Y-28843D01*
X55057Y-28851D01*
X55085Y-28865D01*
X55110Y-28885D01*
X55130Y-28908D01*
X55146Y-28935D01*
X55156Y-28965D01*
X55159Y-28996D01*
X55160Y-29000D01*
X54840Y-28840D02*
X55160Y-29160D01*
X55160Y-28840D02*
X54840Y-29160D01*
X55160Y-30950D02*
X55156Y-30981D01*
X55147Y-31010D01*
X55133Y-31038D01*
X55113Y-31062D01*
X55089Y-31082D01*
X55062Y-31097D01*
X55032Y-31106D01*
X55001Y-31109D01*
X54971Y-31107D01*
X54941Y-31098D01*
X54913Y-31083D01*
X54889Y-31064D01*
X54868Y-31040D01*
X54853Y-31013D01*
X54844Y-30983D01*
X54841Y-30952D01*
X54843Y-30922D01*
X54852Y-30892D01*
X54866Y-30864D01*
X54885Y-30839D01*
X54909Y-30819D01*
X54936Y-30804D01*
X54966Y-30794D01*
X54997Y-30791D01*
X55027Y-30793D01*
X55057Y-30801D01*
X55085Y-30815D01*
X55110Y-30835D01*
X55130Y-30858D01*
X55146Y-30885D01*
X55156Y-30915D01*
X55159Y-30946D01*
X55160Y-30950D01*
X54840Y-30790D02*
X55160Y-31110D01*
X55160Y-30790D02*
X54840Y-31110D01*
X55160Y-49950D02*
X55156Y-49981D01*
X55147Y-50010D01*
X55133Y-50038D01*
X55113Y-50062D01*
X55089Y-50082D01*
X55062Y-50097D01*
X55032Y-50106D01*
X55001Y-50109D01*
X54971Y-50107D01*
X54941Y-50098D01*
X54913Y-50083D01*
X54889Y-50064D01*
X54868Y-50040D01*
X54853Y-50013D01*
X54844Y-49983D01*
X54841Y-49952D01*
X54843Y-49922D01*
X54852Y-49892D01*
X54866Y-49864D01*
X54885Y-49839D01*
X54909Y-49819D01*
X54936Y-49804D01*
X54966Y-49794D01*
X54997Y-49791D01*
X55027Y-49793D01*
X55057Y-49801D01*
X55085Y-49815D01*
X55110Y-49835D01*
X55130Y-49858D01*
X55146Y-49885D01*
X55156Y-49915D01*
X55159Y-49946D01*
X55160Y-49950D01*
X54840Y-49790D02*
X55160Y-50110D01*
X55160Y-49790D02*
X54840Y-50110D01*
X55160Y-51750D02*
X55156Y-51781D01*
X55147Y-51810D01*
X55133Y-51838D01*
X55113Y-51862D01*
X55089Y-51882D01*
X55062Y-51897D01*
X55032Y-51906D01*
X55001Y-51909D01*
X54971Y-51907D01*
X54941Y-51898D01*
X54913Y-51883D01*
X54889Y-51864D01*
X54868Y-51840D01*
X54853Y-51813D01*
X54844Y-51783D01*
X54841Y-51752D01*
X54843Y-51722D01*
X54852Y-51692D01*
X54866Y-51664D01*
X54885Y-51639D01*
X54909Y-51619D01*
X54936Y-51604D01*
X54966Y-51594D01*
X54997Y-51591D01*
X55027Y-51593D01*
X55057Y-51601D01*
X55085Y-51615D01*
X55110Y-51635D01*
X55130Y-51658D01*
X55146Y-51685D01*
X55156Y-51715D01*
X55159Y-51746D01*
X55160Y-51750D01*
X54840Y-51590D02*
X55160Y-51910D01*
X55160Y-51590D02*
X54840Y-51910D01*
X56160Y-29000D02*
X56156Y-29031D01*
X56147Y-29060D01*
X56133Y-29088D01*
X56113Y-29112D01*
X56089Y-29132D01*
X56062Y-29147D01*
X56032Y-29156D01*
X56001Y-29159D01*
X55971Y-29157D01*
X55941Y-29148D01*
X55913Y-29133D01*
X55889Y-29114D01*
X55868Y-29090D01*
X55853Y-29063D01*
X55844Y-29033D01*
X55841Y-29002D01*
X55843Y-28972D01*
X55852Y-28942D01*
X55866Y-28914D01*
X55885Y-28889D01*
X55909Y-28869D01*
X55936Y-28854D01*
X55966Y-28844D01*
X55997Y-28841D01*
X56027Y-28843D01*
X56057Y-28851D01*
X56085Y-28865D01*
X56110Y-28885D01*
X56130Y-28908D01*
X56146Y-28935D01*
X56156Y-28965D01*
X56159Y-28996D01*
X56160Y-29000D01*
X55840Y-28840D02*
X56160Y-29160D01*
X56160Y-28840D02*
X55840Y-29160D01*
X56160Y-31050D02*
X56156Y-31081D01*
X56147Y-31110D01*
X56133Y-31138D01*
X56113Y-31162D01*
X56089Y-31182D01*
X56062Y-31197D01*
X56032Y-31206D01*
X56001Y-31209D01*
X55971Y-31207D01*
X55941Y-31198D01*
X55913Y-31183D01*
X55889Y-31164D01*
X55868Y-31140D01*
X55853Y-31113D01*
X55844Y-31083D01*
X55841Y-31052D01*
X55843Y-31022D01*
X55852Y-30992D01*
X55866Y-30964D01*
X55885Y-30939D01*
X55909Y-30919D01*
X55936Y-30904D01*
X55966Y-30894D01*
X55997Y-30891D01*
X56027Y-30893D01*
X56057Y-30901D01*
X56085Y-30915D01*
X56110Y-30935D01*
X56130Y-30958D01*
X56146Y-30985D01*
X56156Y-31015D01*
X56159Y-31046D01*
X56160Y-31050D01*
X55840Y-30890D02*
X56160Y-31210D01*
X56160Y-30890D02*
X55840Y-31210D01*
X56160Y-50050D02*
X56156Y-50081D01*
X56147Y-50110D01*
X56133Y-50138D01*
X56113Y-50162D01*
X56089Y-50182D01*
X56062Y-50197D01*
X56032Y-50206D01*
X56001Y-50209D01*
X55971Y-50207D01*
X55941Y-50198D01*
X55913Y-50183D01*
X55889Y-50164D01*
X55868Y-50140D01*
X55853Y-50113D01*
X55844Y-50083D01*
X55841Y-50052D01*
X55843Y-50022D01*
X55852Y-49992D01*
X55866Y-49964D01*
X55885Y-49939D01*
X55909Y-49919D01*
X55936Y-49904D01*
X55966Y-49894D01*
X55997Y-49891D01*
X56027Y-49893D01*
X56057Y-49901D01*
X56085Y-49915D01*
X56110Y-49935D01*
X56130Y-49958D01*
X56146Y-49985D01*
X56156Y-50015D01*
X56159Y-50046D01*
X56160Y-50050D01*
X55840Y-49890D02*
X56160Y-50210D01*
X56160Y-49890D02*
X55840Y-50210D01*
X56160Y-51750D02*
X56156Y-51781D01*
X56147Y-51810D01*
X56133Y-51838D01*
X56113Y-51862D01*
X56089Y-51882D01*
X56062Y-51897D01*
X56032Y-51906D01*
X56001Y-51909D01*
X55971Y-51907D01*
X55941Y-51898D01*
X55913Y-51883D01*
X55889Y-51864D01*
X55868Y-51840D01*
X55853Y-51813D01*
X55844Y-51783D01*
X55841Y-51752D01*
X55843Y-51722D01*
X55852Y-51692D01*
X55866Y-51664D01*
X55885Y-51639D01*
X55909Y-51619D01*
X55936Y-51604D01*
X55966Y-51594D01*
X55997Y-51591D01*
X56027Y-51593D01*
X56057Y-51601D01*
X56085Y-51615D01*
X56110Y-51635D01*
X56130Y-51658D01*
X56146Y-51685D01*
X56156Y-51715D01*
X56159Y-51746D01*
X56160Y-51750D01*
X55840Y-51590D02*
X56160Y-51910D01*
X56160Y-51590D02*
X55840Y-51910D01*
X57160Y-49950D02*
X57156Y-49981D01*
X57147Y-50010D01*
X57133Y-50038D01*
X57113Y-50062D01*
X57089Y-50082D01*
X57062Y-50097D01*
X57032Y-50106D01*
X57001Y-50109D01*
X56971Y-50107D01*
X56941Y-50098D01*
X56913Y-50083D01*
X56889Y-50064D01*
X56868Y-50040D01*
X56853Y-50013D01*
X56844Y-49983D01*
X56841Y-49952D01*
X56843Y-49922D01*
X56852Y-49892D01*
X56866Y-49864D01*
X56885Y-49839D01*
X56909Y-49819D01*
X56936Y-49804D01*
X56966Y-49794D01*
X56997Y-49791D01*
X57027Y-49793D01*
X57057Y-49801D01*
X57085Y-49815D01*
X57110Y-49835D01*
X57130Y-49858D01*
X57146Y-49885D01*
X57156Y-49915D01*
X57159Y-49946D01*
X57160Y-49950D01*
X56840Y-49790D02*
X57160Y-50110D01*
X57160Y-49790D02*
X56840Y-50110D01*
X57160Y-51750D02*
X57156Y-51781D01*
X57147Y-51810D01*
X57133Y-51838D01*
X57113Y-51862D01*
X57089Y-51882D01*
X57062Y-51897D01*
X57032Y-51906D01*
X57001Y-51909D01*
X56971Y-51907D01*
X56941Y-51898D01*
X56913Y-51883D01*
X56889Y-51864D01*
X56868Y-51840D01*
X56853Y-51813D01*
X56844Y-51783D01*
X56841Y-51752D01*
X56843Y-51722D01*
X56852Y-51692D01*
X56866Y-51664D01*
X56885Y-51639D01*
X56909Y-51619D01*
X56936Y-51604D01*
X56966Y-51594D01*
X56997Y-51591D01*
X57027Y-51593D01*
X57057Y-51601D01*
X57085Y-51615D01*
X57110Y-51635D01*
X57130Y-51658D01*
X57146Y-51685D01*
X57156Y-51715D01*
X57159Y-51746D01*
X57160Y-51750D01*
X56840Y-51590D02*
X57160Y-51910D01*
X57160Y-51590D02*
X56840Y-51910D01*
X58160Y-30950D02*
X58156Y-30981D01*
X58147Y-31010D01*
X58133Y-31038D01*
X58113Y-31062D01*
X58089Y-31082D01*
X58062Y-31097D01*
X58032Y-31106D01*
X58001Y-31109D01*
X57971Y-31107D01*
X57941Y-31098D01*
X57913Y-31083D01*
X57889Y-31064D01*
X57868Y-31040D01*
X57853Y-31013D01*
X57844Y-30983D01*
X57841Y-30952D01*
X57843Y-30922D01*
X57852Y-30892D01*
X57866Y-30864D01*
X57885Y-30839D01*
X57909Y-30819D01*
X57936Y-30804D01*
X57966Y-30794D01*
X57997Y-30791D01*
X58027Y-30793D01*
X58057Y-30801D01*
X58085Y-30815D01*
X58110Y-30835D01*
X58130Y-30858D01*
X58146Y-30885D01*
X58156Y-30915D01*
X58159Y-30946D01*
X58160Y-30950D01*
X57840Y-30790D02*
X58160Y-31110D01*
X58160Y-30790D02*
X57840Y-31110D01*
X58160Y-50050D02*
X58156Y-50081D01*
X58147Y-50110D01*
X58133Y-50138D01*
X58113Y-50162D01*
X58089Y-50182D01*
X58062Y-50197D01*
X58032Y-50206D01*
X58001Y-50209D01*
X57971Y-50207D01*
X57941Y-50198D01*
X57913Y-50183D01*
X57889Y-50164D01*
X57868Y-50140D01*
X57853Y-50113D01*
X57844Y-50083D01*
X57841Y-50052D01*
X57843Y-50022D01*
X57852Y-49992D01*
X57866Y-49964D01*
X57885Y-49939D01*
X57909Y-49919D01*
X57936Y-49904D01*
X57966Y-49894D01*
X57997Y-49891D01*
X58027Y-49893D01*
X58057Y-49901D01*
X58085Y-49915D01*
X58110Y-49935D01*
X58130Y-49958D01*
X58146Y-49985D01*
X58156Y-50015D01*
X58159Y-50046D01*
X58160Y-50050D01*
X57840Y-49890D02*
X58160Y-50210D01*
X58160Y-49890D02*
X57840Y-50210D01*
X58160Y-51750D02*
X58156Y-51781D01*
X58147Y-51810D01*
X58133Y-51838D01*
X58113Y-51862D01*
X58089Y-51882D01*
X58062Y-51897D01*
X58032Y-51906D01*
X58001Y-51909D01*
X57971Y-51907D01*
X57941Y-51898D01*
X57913Y-51883D01*
X57889Y-51864D01*
X57868Y-51840D01*
X57853Y-51813D01*
X57844Y-51783D01*
X57841Y-51752D01*
X57843Y-51722D01*
X57852Y-51692D01*
X57866Y-51664D01*
X57885Y-51639D01*
X57909Y-51619D01*
X57936Y-51604D01*
X57966Y-51594D01*
X57997Y-51591D01*
X58027Y-51593D01*
X58057Y-51601D01*
X58085Y-51615D01*
X58110Y-51635D01*
X58130Y-51658D01*
X58146Y-51685D01*
X58156Y-51715D01*
X58159Y-51746D01*
X58160Y-51750D01*
X57840Y-51590D02*
X58160Y-51910D01*
X58160Y-51590D02*
X57840Y-51910D01*
X59160Y-31050D02*
X59156Y-31081D01*
X59147Y-31110D01*
X59133Y-31138D01*
X59113Y-31162D01*
X59089Y-31182D01*
X59062Y-31197D01*
X59032Y-31206D01*
X59001Y-31209D01*
X58971Y-31207D01*
X58941Y-31198D01*
X58913Y-31183D01*
X58889Y-31164D01*
X58868Y-31140D01*
X58853Y-31113D01*
X58844Y-31083D01*
X58841Y-31052D01*
X58843Y-31022D01*
X58852Y-30992D01*
X58866Y-30964D01*
X58885Y-30939D01*
X58909Y-30919D01*
X58936Y-30904D01*
X58966Y-30894D01*
X58997Y-30891D01*
X59027Y-30893D01*
X59057Y-30901D01*
X59085Y-30915D01*
X59110Y-30935D01*
X59130Y-30958D01*
X59146Y-30985D01*
X59156Y-31015D01*
X59159Y-31046D01*
X59160Y-31050D01*
X58840Y-30890D02*
X59160Y-31210D01*
X59160Y-30890D02*
X58840Y-31210D01*
X60160Y-30950D02*
X60156Y-30981D01*
X60147Y-31010D01*
X60133Y-31038D01*
X60113Y-31062D01*
X60089Y-31082D01*
X60062Y-31097D01*
X60032Y-31106D01*
X60001Y-31109D01*
X59971Y-31107D01*
X59941Y-31098D01*
X59913Y-31083D01*
X59889Y-31064D01*
X59868Y-31040D01*
X59853Y-31013D01*
X59844Y-30983D01*
X59841Y-30952D01*
X59843Y-30922D01*
X59852Y-30892D01*
X59866Y-30864D01*
X59885Y-30839D01*
X59909Y-30819D01*
X59936Y-30804D01*
X59966Y-30794D01*
X59997Y-30791D01*
X60027Y-30793D01*
X60057Y-30801D01*
X60085Y-30815D01*
X60110Y-30835D01*
X60130Y-30858D01*
X60146Y-30885D01*
X60156Y-30915D01*
X60159Y-30946D01*
X60160Y-30950D01*
X59840Y-30790D02*
X60160Y-31110D01*
X60160Y-30790D02*
X59840Y-31110D01*
X61160Y-31050D02*
X61156Y-31081D01*
X61147Y-31110D01*
X61133Y-31138D01*
X61113Y-31162D01*
X61089Y-31182D01*
X61062Y-31197D01*
X61032Y-31206D01*
X61001Y-31209D01*
X60971Y-31207D01*
X60941Y-31198D01*
X60913Y-31183D01*
X60889Y-31164D01*
X60868Y-31140D01*
X60853Y-31113D01*
X60844Y-31083D01*
X60841Y-31052D01*
X60843Y-31022D01*
X60852Y-30992D01*
X60866Y-30964D01*
X60885Y-30939D01*
X60909Y-30919D01*
X60936Y-30904D01*
X60966Y-30894D01*
X60997Y-30891D01*
X61027Y-30893D01*
X61057Y-30901D01*
X61085Y-30915D01*
X61110Y-30935D01*
X61130Y-30958D01*
X61146Y-30985D01*
X61156Y-31015D01*
X61159Y-31046D01*
X61160Y-31050D01*
X60840Y-30890D02*
X61160Y-31210D01*
X61160Y-30890D02*
X60840Y-31210D01*
X62160Y-29000D02*
X62156Y-29031D01*
X62147Y-29060D01*
X62133Y-29088D01*
X62113Y-29112D01*
X62089Y-29132D01*
X62062Y-29147D01*
X62032Y-29156D01*
X62001Y-29159D01*
X61971Y-29157D01*
X61941Y-29148D01*
X61913Y-29133D01*
X61889Y-29114D01*
X61868Y-29090D01*
X61853Y-29063D01*
X61844Y-29033D01*
X61841Y-29002D01*
X61843Y-28972D01*
X61852Y-28942D01*
X61866Y-28914D01*
X61885Y-28889D01*
X61909Y-28869D01*
X61936Y-28854D01*
X61966Y-28844D01*
X61997Y-28841D01*
X62027Y-28843D01*
X62057Y-28851D01*
X62085Y-28865D01*
X62110Y-28885D01*
X62130Y-28908D01*
X62146Y-28935D01*
X62156Y-28965D01*
X62159Y-28996D01*
X62160Y-29000D01*
X61840Y-28840D02*
X62160Y-29160D01*
X62160Y-28840D02*
X61840Y-29160D01*
X62160Y-30950D02*
X62156Y-30981D01*
X62147Y-31010D01*
X62133Y-31038D01*
X62113Y-31062D01*
X62089Y-31082D01*
X62062Y-31097D01*
X62032Y-31106D01*
X62001Y-31109D01*
X61971Y-31107D01*
X61941Y-31098D01*
X61913Y-31083D01*
X61889Y-31064D01*
X61868Y-31040D01*
X61853Y-31013D01*
X61844Y-30983D01*
X61841Y-30952D01*
X61843Y-30922D01*
X61852Y-30892D01*
X61866Y-30864D01*
X61885Y-30839D01*
X61909Y-30819D01*
X61936Y-30804D01*
X61966Y-30794D01*
X61997Y-30791D01*
X62027Y-30793D01*
X62057Y-30801D01*
X62085Y-30815D01*
X62110Y-30835D01*
X62130Y-30858D01*
X62146Y-30885D01*
X62156Y-30915D01*
X62159Y-30946D01*
X62160Y-30950D01*
X61840Y-30790D02*
X62160Y-31110D01*
X62160Y-30790D02*
X61840Y-31110D01*
X63160Y-29000D02*
X63156Y-29031D01*
X63147Y-29060D01*
X63133Y-29088D01*
X63113Y-29112D01*
X63089Y-29132D01*
X63062Y-29147D01*
X63032Y-29156D01*
X63001Y-29159D01*
X62971Y-29157D01*
X62941Y-29148D01*
X62913Y-29133D01*
X62889Y-29114D01*
X62868Y-29090D01*
X62853Y-29063D01*
X62844Y-29033D01*
X62841Y-29002D01*
X62843Y-28972D01*
X62852Y-28942D01*
X62866Y-28914D01*
X62885Y-28889D01*
X62909Y-28869D01*
X62936Y-28854D01*
X62966Y-28844D01*
X62997Y-28841D01*
X63027Y-28843D01*
X63057Y-28851D01*
X63085Y-28865D01*
X63110Y-28885D01*
X63130Y-28908D01*
X63146Y-28935D01*
X63156Y-28965D01*
X63159Y-28996D01*
X63160Y-29000D01*
X62840Y-28840D02*
X63160Y-29160D01*
X63160Y-28840D02*
X62840Y-29160D01*
X63160Y-31050D02*
X63156Y-31081D01*
X63147Y-31110D01*
X63133Y-31138D01*
X63113Y-31162D01*
X63089Y-31182D01*
X63062Y-31197D01*
X63032Y-31206D01*
X63001Y-31209D01*
X62971Y-31207D01*
X62941Y-31198D01*
X62913Y-31183D01*
X62889Y-31164D01*
X62868Y-31140D01*
X62853Y-31113D01*
X62844Y-31083D01*
X62841Y-31052D01*
X62843Y-31022D01*
X62852Y-30992D01*
X62866Y-30964D01*
X62885Y-30939D01*
X62909Y-30919D01*
X62936Y-30904D01*
X62966Y-30894D01*
X62997Y-30891D01*
X63027Y-30893D01*
X63057Y-30901D01*
X63085Y-30915D01*
X63110Y-30935D01*
X63130Y-30958D01*
X63146Y-30985D01*
X63156Y-31015D01*
X63159Y-31046D01*
X63160Y-31050D01*
X62840Y-30890D02*
X63160Y-31210D01*
X63160Y-30890D02*
X62840Y-31210D01*
X39897Y-39411D02*
X39893Y-39449D01*
X39882Y-39486D01*
X39864Y-39520D01*
X39839Y-39549D01*
X39810Y-39574D01*
X39776Y-39592D01*
X39739Y-39603D01*
X39701Y-39607D01*
X39664Y-39604D01*
X39627Y-39593D01*
X39593Y-39575D01*
X39563Y-39551D01*
X39538Y-39522D01*
X39519Y-39488D01*
X39508Y-39451D01*
X39504Y-39413D01*
X39507Y-39376D01*
X39517Y-39339D01*
X39535Y-39305D01*
X39559Y-39275D01*
X39588Y-39250D01*
X39622Y-39231D01*
X39658Y-39219D01*
X39696Y-39215D01*
X39734Y-39217D01*
X39771Y-39228D01*
X39805Y-39245D01*
X39835Y-39269D01*
X39860Y-39298D01*
X39879Y-39331D01*
X39892Y-39368D01*
X39896Y-39406D01*
X39897Y-39411D01*
X39503Y-39411D02*
X39897Y-39411D01*
X39897Y-40789D02*
X39893Y-40827D01*
X39882Y-40864D01*
X39864Y-40898D01*
X39839Y-40927D01*
X39810Y-40952D01*
X39776Y-40970D01*
X39739Y-40981D01*
X39701Y-40985D01*
X39664Y-40982D01*
X39627Y-40971D01*
X39593Y-40953D01*
X39563Y-40929D01*
X39538Y-40900D01*
X39519Y-40866D01*
X39508Y-40829D01*
X39504Y-40791D01*
X39507Y-40754D01*
X39517Y-40717D01*
X39535Y-40683D01*
X39559Y-40653D01*
X39588Y-40628D01*
X39622Y-40609D01*
X39658Y-40597D01*
X39696Y-40593D01*
X39734Y-40595D01*
X39771Y-40606D01*
X39805Y-40623D01*
X39835Y-40647D01*
X39860Y-40676D01*
X39879Y-40709D01*
X39892Y-40746D01*
X39896Y-40784D01*
X39897Y-40789D01*
X39503Y-40789D02*
X39897Y-40789D01*
X49500Y-41250D02*
X49494Y-41308D01*
X49477Y-41364D01*
X49449Y-41416D01*
X49412Y-41461D01*
X49367Y-41498D01*
X49316Y-41526D01*
X49260Y-41543D01*
X49202Y-41549D01*
X49144Y-41544D01*
X49088Y-41528D01*
X49036Y-41501D01*
X48991Y-41464D01*
X48953Y-41419D01*
X48925Y-41368D01*
X48907Y-41312D01*
X48901Y-41254D01*
X48905Y-41196D01*
X48922Y-41140D01*
X48948Y-41088D01*
X48985Y-41042D01*
X49029Y-41004D01*
X49080Y-40976D01*
X49136Y-40957D01*
X49194Y-40951D01*
X49252Y-40955D01*
X49308Y-40971D01*
X49360Y-40997D01*
X49406Y-41033D01*
X49445Y-41078D01*
X49474Y-41128D01*
X49492Y-41184D01*
X49499Y-41242D01*
X49500Y-41250D01*
X49200Y-40950D02*
X49200Y-41550D01*
X36942Y-50442D02*
X36942Y-49558D01*
X36058Y-49558D01*
X36058Y-50442D01*
X36942Y-50442D01*
X37442Y-31442D02*
X37442Y-30558D01*
X36558Y-30558D01*
X36558Y-31442D01*
X37442Y-31442D01*
X54832Y-49047D02*
X55462Y-48417D01*
X54832Y-47787D01*
X54202Y-48417D01*
X54832Y-49047D01*
X68808Y-33496D02*
X69438Y-32866D01*
X68808Y-32236D01*
X68178Y-32866D01*
X68808Y-33496D01*
G54D12*
X30397Y-54448D02*
X30397Y-53648D01*
X30588Y-53648D01*
X30702Y-53686D01*
X30778Y-53762D01*
X30817Y-53838D01*
X30855Y-53991D01*
X30855Y-54105D01*
X30817Y-54257D01*
X30778Y-54334D01*
X30702Y-54410D01*
X30588Y-54448D01*
X30397Y-54448D01*
X31197Y-54448D02*
X31197Y-53914D01*
X31197Y-54067D02*
X31236Y-53991D01*
X31274Y-53953D01*
X31350Y-53914D01*
X31426Y-53914D01*
X31692Y-54448D02*
X31692Y-53914D01*
X31692Y-53648D02*
X31654Y-53686D01*
X31692Y-53724D01*
X31731Y-53686D01*
X31692Y-53648D01*
X31692Y-53724D01*
X32188Y-54448D02*
X32112Y-54410D01*
X32073Y-54334D01*
X32073Y-53648D01*
X32607Y-54448D02*
X32531Y-54410D01*
X32492Y-54334D01*
X32492Y-53648D01*
X33521Y-54448D02*
X33521Y-53648D01*
X33788Y-54219D01*
X34055Y-53648D01*
X34055Y-54448D01*
X34778Y-54448D02*
X34778Y-54029D01*
X34740Y-53953D01*
X34664Y-53914D01*
X34512Y-53914D01*
X34435Y-53953D01*
X34778Y-54410D02*
X34702Y-54448D01*
X34512Y-54448D01*
X34435Y-54410D01*
X34397Y-54334D01*
X34397Y-54257D01*
X34435Y-54181D01*
X34512Y-54143D01*
X34702Y-54143D01*
X34778Y-54105D01*
X35159Y-53914D02*
X35159Y-54714D01*
X35159Y-53953D02*
X35236Y-53914D01*
X35388Y-53914D01*
X35464Y-53953D01*
X35502Y-53991D01*
X35540Y-54067D01*
X35540Y-54295D01*
X35502Y-54372D01*
X35464Y-54410D01*
X35388Y-54448D01*
X35236Y-54448D01*
X35159Y-54410D01*
X35883Y-54372D02*
X35922Y-54410D01*
X35883Y-54448D01*
X35845Y-54410D01*
X35883Y-54372D01*
X35883Y-54448D01*
X35883Y-53953D02*
X35922Y-53991D01*
X35883Y-54029D01*
X35845Y-53991D01*
X35883Y-53953D01*
X35883Y-54029D01*
X29807Y-55704D02*
X30007Y-55904D01*
X30007Y-55704D02*
X29807Y-55904D01*
X30550Y-55328D02*
X30626Y-55328D01*
X30702Y-55366D01*
X30740Y-55404D01*
X30778Y-55480D01*
X30817Y-55633D01*
X30817Y-55823D01*
X30778Y-55975D01*
X30740Y-56052D01*
X30702Y-56090D01*
X30626Y-56128D01*
X30550Y-56128D01*
X30474Y-56090D01*
X30436Y-56052D01*
X30397Y-55975D01*
X30359Y-55823D01*
X30359Y-55633D01*
X30397Y-55480D01*
X30436Y-55404D01*
X30474Y-55366D01*
X30550Y-55328D01*
X31159Y-56052D02*
X31198Y-56090D01*
X31159Y-56128D01*
X31121Y-56090D01*
X31159Y-56052D01*
X31159Y-56128D01*
X31693Y-55328D02*
X31769Y-55328D01*
X31845Y-55366D01*
X31883Y-55404D01*
X31921Y-55480D01*
X31960Y-55633D01*
X31960Y-55823D01*
X31921Y-55975D01*
X31883Y-56052D01*
X31845Y-56090D01*
X31769Y-56128D01*
X31693Y-56128D01*
X31617Y-56090D01*
X31579Y-56052D01*
X31540Y-55975D01*
X31502Y-55823D01*
X31502Y-55633D01*
X31540Y-55480D01*
X31579Y-55404D01*
X31617Y-55366D01*
X31693Y-55328D01*
X32264Y-55404D02*
X32302Y-55366D01*
X32379Y-55328D01*
X32569Y-55328D01*
X32645Y-55366D01*
X32683Y-55404D01*
X32722Y-55480D01*
X32722Y-55556D01*
X32683Y-55671D01*
X32226Y-56128D01*
X32722Y-56128D01*
X33217Y-55328D02*
X33293Y-55328D01*
X33369Y-55366D01*
X33407Y-55404D01*
X33445Y-55480D01*
X33484Y-55633D01*
X33484Y-55823D01*
X33445Y-55975D01*
X33407Y-56052D01*
X33369Y-56090D01*
X33293Y-56128D01*
X33217Y-56128D01*
X33141Y-56090D01*
X33103Y-56052D01*
X33064Y-55975D01*
X33026Y-55823D01*
X33026Y-55633D01*
X33064Y-55480D01*
X33103Y-55404D01*
X33141Y-55366D01*
X33217Y-55328D01*
X33788Y-55328D02*
X33788Y-55480D01*
X34093Y-55328D02*
X34093Y-55480D01*
X35618Y-55290D02*
X34932Y-56318D01*
X36647Y-55328D02*
X36723Y-55328D01*
X36799Y-55366D01*
X36837Y-55404D01*
X36875Y-55480D01*
X36914Y-55633D01*
X36914Y-55823D01*
X36875Y-55975D01*
X36837Y-56052D01*
X36799Y-56090D01*
X36723Y-56128D01*
X36647Y-56128D01*
X36571Y-56090D01*
X36533Y-56052D01*
X36494Y-55975D01*
X36456Y-55823D01*
X36456Y-55633D01*
X36494Y-55480D01*
X36533Y-55404D01*
X36571Y-55366D01*
X36647Y-55328D01*
X37256Y-56052D02*
X37295Y-56090D01*
X37256Y-56128D01*
X37218Y-56090D01*
X37256Y-56052D01*
X37256Y-56128D01*
X38018Y-55328D02*
X37637Y-55328D01*
X37599Y-55709D01*
X37637Y-55671D01*
X37714Y-55633D01*
X37904Y-55633D01*
X37980Y-55671D01*
X38018Y-55709D01*
X38057Y-55785D01*
X38057Y-55975D01*
X38018Y-56052D01*
X37980Y-56090D01*
X37904Y-56128D01*
X37714Y-56128D01*
X37637Y-56090D01*
X37599Y-56052D01*
X38819Y-56128D02*
X38361Y-56128D01*
X38590Y-56128D02*
X38590Y-55328D01*
X38514Y-55442D01*
X38438Y-55518D01*
X38361Y-55556D01*
X39161Y-56128D02*
X39161Y-55594D01*
X39161Y-55671D02*
X39200Y-55633D01*
X39276Y-55594D01*
X39390Y-55594D01*
X39466Y-55633D01*
X39504Y-55709D01*
X39504Y-56128D01*
X39504Y-55709D02*
X39542Y-55633D01*
X39619Y-55594D01*
X39733Y-55594D01*
X39809Y-55633D01*
X39847Y-55709D01*
X39847Y-56128D01*
X40228Y-56128D02*
X40228Y-55594D01*
X40228Y-55671D02*
X40267Y-55633D01*
X40343Y-55594D01*
X40457Y-55594D01*
X40533Y-55633D01*
X40571Y-55709D01*
X40571Y-56128D01*
X40571Y-55709D02*
X40609Y-55633D01*
X40686Y-55594D01*
X40800Y-55594D01*
X40876Y-55633D01*
X40914Y-55709D01*
X40914Y-56128D01*
X42134Y-56433D02*
X42096Y-56394D01*
X42020Y-56280D01*
X41982Y-56204D01*
X41944Y-56090D01*
X41905Y-55899D01*
X41905Y-55747D01*
X41944Y-55556D01*
X41982Y-55442D01*
X42020Y-55366D01*
X42096Y-55252D01*
X42134Y-55214D01*
X42819Y-55328D02*
X42438Y-55328D01*
X42400Y-55709D01*
X42438Y-55671D01*
X42515Y-55633D01*
X42705Y-55633D01*
X42781Y-55671D01*
X42819Y-55709D01*
X42858Y-55785D01*
X42858Y-55975D01*
X42819Y-56052D01*
X42781Y-56090D01*
X42705Y-56128D01*
X42515Y-56128D01*
X42438Y-56090D01*
X42400Y-56052D01*
X43620Y-56128D02*
X43162Y-56128D01*
X43391Y-56128D02*
X43391Y-55328D01*
X43315Y-55442D01*
X43239Y-55518D01*
X43162Y-55556D01*
X44572Y-56128D02*
X44572Y-55328D01*
X44915Y-56128D02*
X44915Y-55709D01*
X44877Y-55633D01*
X44801Y-55594D01*
X44687Y-55594D01*
X44611Y-55633D01*
X44572Y-55671D01*
X45411Y-56128D02*
X45335Y-56090D01*
X45296Y-56052D01*
X45258Y-55975D01*
X45258Y-55747D01*
X45296Y-55671D01*
X45335Y-55633D01*
X45411Y-55594D01*
X45525Y-55594D01*
X45601Y-55633D01*
X45639Y-55671D01*
X45677Y-55747D01*
X45677Y-55975D01*
X45639Y-56052D01*
X45601Y-56090D01*
X45525Y-56128D01*
X45411Y-56128D01*
X46135Y-56128D02*
X46059Y-56090D01*
X46020Y-56014D01*
X46020Y-55328D01*
X46744Y-56090D02*
X46668Y-56128D01*
X46516Y-56128D01*
X46439Y-56090D01*
X46401Y-56014D01*
X46401Y-55709D01*
X46439Y-55633D01*
X46516Y-55594D01*
X46668Y-55594D01*
X46744Y-55633D01*
X46782Y-55709D01*
X46782Y-55785D01*
X46401Y-55861D01*
X47087Y-56090D02*
X47164Y-56128D01*
X47316Y-56128D01*
X47392Y-56090D01*
X47430Y-56014D01*
X47430Y-55975D01*
X47392Y-55899D01*
X47316Y-55861D01*
X47202Y-55861D01*
X47125Y-55823D01*
X47087Y-55747D01*
X47087Y-55709D01*
X47125Y-55633D01*
X47202Y-55594D01*
X47316Y-55594D01*
X47392Y-55633D01*
X47697Y-56433D02*
X47735Y-56394D01*
X47812Y-56280D01*
X47850Y-56204D01*
X47888Y-56090D01*
X47926Y-55899D01*
X47926Y-55747D01*
X47888Y-55556D01*
X47850Y-55442D01*
X47812Y-55366D01*
X47735Y-55252D01*
X47697Y-55214D01*
G54D10*
X30007Y-56859D02*
X30004Y-56881D01*
X29998Y-56903D01*
X29987Y-56924D01*
X29972Y-56942D01*
X29954Y-56956D01*
X29934Y-56967D01*
X29912Y-56974D01*
X29889Y-56976D01*
X29867Y-56974D01*
X29845Y-56968D01*
X29825Y-56957D01*
X29807Y-56943D01*
X29792Y-56925D01*
X29781Y-56905D01*
X29774Y-56883D01*
X29772Y-56860D01*
X29773Y-56838D01*
X29780Y-56816D01*
X29790Y-56796D01*
X29805Y-56778D01*
X29822Y-56763D01*
X29842Y-56751D01*
X29864Y-56744D01*
X29887Y-56742D01*
X29909Y-56743D01*
X29931Y-56749D01*
X29952Y-56760D01*
X29970Y-56774D01*
X29985Y-56791D01*
X29996Y-56812D01*
X30004Y-56833D01*
X30006Y-56856D01*
X30007Y-56859D01*
G54D12*
X30550Y-56383D02*
X30626Y-56383D01*
X30702Y-56421D01*
X30740Y-56459D01*
X30778Y-56535D01*
X30817Y-56688D01*
X30817Y-56878D01*
X30778Y-57030D01*
X30740Y-57107D01*
X30702Y-57145D01*
X30626Y-57183D01*
X30550Y-57183D01*
X30474Y-57145D01*
X30436Y-57107D01*
X30397Y-57030D01*
X30359Y-56878D01*
X30359Y-56688D01*
X30397Y-56535D01*
X30436Y-56459D01*
X30474Y-56421D01*
X30550Y-56383D01*
X31159Y-57107D02*
X31198Y-57145D01*
X31159Y-57183D01*
X31121Y-57145D01*
X31159Y-57107D01*
X31159Y-57183D01*
X31693Y-56383D02*
X31769Y-56383D01*
X31845Y-56421D01*
X31883Y-56459D01*
X31921Y-56535D01*
X31960Y-56688D01*
X31960Y-56878D01*
X31921Y-57030D01*
X31883Y-57107D01*
X31845Y-57145D01*
X31769Y-57183D01*
X31693Y-57183D01*
X31617Y-57145D01*
X31579Y-57107D01*
X31540Y-57030D01*
X31502Y-56878D01*
X31502Y-56688D01*
X31540Y-56535D01*
X31579Y-56459D01*
X31617Y-56421D01*
X31693Y-56383D01*
X32264Y-56459D02*
X32302Y-56421D01*
X32379Y-56383D01*
X32569Y-56383D01*
X32645Y-56421D01*
X32683Y-56459D01*
X32722Y-56535D01*
X32722Y-56611D01*
X32683Y-56726D01*
X32226Y-57183D01*
X32722Y-57183D01*
X33407Y-56649D02*
X33407Y-57183D01*
X33217Y-56345D02*
X33026Y-56916D01*
X33522Y-56916D01*
X33788Y-56383D02*
X33788Y-56535D01*
X34093Y-56383D02*
X34093Y-56535D01*
X35618Y-56345D02*
X34932Y-57373D01*
X36647Y-56383D02*
X36723Y-56383D01*
X36799Y-56421D01*
X36837Y-56459D01*
X36875Y-56535D01*
X36914Y-56688D01*
X36914Y-56878D01*
X36875Y-57030D01*
X36837Y-57107D01*
X36799Y-57145D01*
X36723Y-57183D01*
X36647Y-57183D01*
X36571Y-57145D01*
X36533Y-57107D01*
X36494Y-57030D01*
X36456Y-56878D01*
X36456Y-56688D01*
X36494Y-56535D01*
X36533Y-56459D01*
X36571Y-56421D01*
X36647Y-56383D01*
X37256Y-57107D02*
X37295Y-57145D01*
X37256Y-57183D01*
X37218Y-57145D01*
X37256Y-57107D01*
X37256Y-57183D01*
X37980Y-56383D02*
X37828Y-56383D01*
X37752Y-56421D01*
X37714Y-56459D01*
X37637Y-56573D01*
X37599Y-56726D01*
X37599Y-57030D01*
X37637Y-57107D01*
X37676Y-57145D01*
X37752Y-57183D01*
X37904Y-57183D01*
X37980Y-57145D01*
X38018Y-57107D01*
X38057Y-57030D01*
X38057Y-56840D01*
X38018Y-56764D01*
X37980Y-56726D01*
X37904Y-56688D01*
X37752Y-56688D01*
X37676Y-56726D01*
X37637Y-56764D01*
X37599Y-56840D01*
X38552Y-56383D02*
X38628Y-56383D01*
X38704Y-56421D01*
X38742Y-56459D01*
X38780Y-56535D01*
X38819Y-56688D01*
X38819Y-56878D01*
X38780Y-57030D01*
X38742Y-57107D01*
X38704Y-57145D01*
X38628Y-57183D01*
X38552Y-57183D01*
X38476Y-57145D01*
X38438Y-57107D01*
X38399Y-57030D01*
X38361Y-56878D01*
X38361Y-56688D01*
X38399Y-56535D01*
X38438Y-56459D01*
X38476Y-56421D01*
X38552Y-56383D01*
X39161Y-57183D02*
X39161Y-56649D01*
X39161Y-56726D02*
X39200Y-56688D01*
X39276Y-56649D01*
X39390Y-56649D01*
X39466Y-56688D01*
X39504Y-56764D01*
X39504Y-57183D01*
X39504Y-56764D02*
X39542Y-56688D01*
X39619Y-56649D01*
X39733Y-56649D01*
X39809Y-56688D01*
X39847Y-56764D01*
X39847Y-57183D01*
X40228Y-57183D02*
X40228Y-56649D01*
X40228Y-56726D02*
X40267Y-56688D01*
X40343Y-56649D01*
X40457Y-56649D01*
X40533Y-56688D01*
X40571Y-56764D01*
X40571Y-57183D01*
X40571Y-56764D02*
X40609Y-56688D01*
X40686Y-56649D01*
X40800Y-56649D01*
X40876Y-56688D01*
X40914Y-56764D01*
X40914Y-57183D01*
X42134Y-57488D02*
X42096Y-57449D01*
X42020Y-57335D01*
X41982Y-57259D01*
X41944Y-57145D01*
X41905Y-56954D01*
X41905Y-56802D01*
X41944Y-56611D01*
X41982Y-56497D01*
X42020Y-56421D01*
X42096Y-56307D01*
X42134Y-56269D01*
X42400Y-56459D02*
X42438Y-56421D01*
X42515Y-56383D01*
X42705Y-56383D01*
X42781Y-56421D01*
X42819Y-56459D01*
X42858Y-56535D01*
X42858Y-56611D01*
X42819Y-56726D01*
X42362Y-57183D01*
X42858Y-57183D01*
X43810Y-57183D02*
X43810Y-56383D01*
X44153Y-57183D02*
X44153Y-56764D01*
X44115Y-56688D01*
X44039Y-56649D01*
X43925Y-56649D01*
X43849Y-56688D01*
X43810Y-56726D01*
X44649Y-57183D02*
X44573Y-57145D01*
X44534Y-57107D01*
X44496Y-57030D01*
X44496Y-56802D01*
X44534Y-56726D01*
X44573Y-56688D01*
X44649Y-56649D01*
X44763Y-56649D01*
X44839Y-56688D01*
X44877Y-56726D01*
X44915Y-56802D01*
X44915Y-57030D01*
X44877Y-57107D01*
X44839Y-57145D01*
X44763Y-57183D01*
X44649Y-57183D01*
X45373Y-57183D02*
X45297Y-57145D01*
X45258Y-57069D01*
X45258Y-56383D01*
X45982Y-57145D02*
X45906Y-57183D01*
X45754Y-57183D01*
X45677Y-57145D01*
X45639Y-57069D01*
X45639Y-56764D01*
X45677Y-56688D01*
X45754Y-56649D01*
X45906Y-56649D01*
X45982Y-56688D01*
X46020Y-56764D01*
X46020Y-56840D01*
X45639Y-56916D01*
X46325Y-57145D02*
X46402Y-57183D01*
X46554Y-57183D01*
X46630Y-57145D01*
X46668Y-57069D01*
X46668Y-57030D01*
X46630Y-56954D01*
X46554Y-56916D01*
X46440Y-56916D01*
X46363Y-56878D01*
X46325Y-56802D01*
X46325Y-56764D01*
X46363Y-56688D01*
X46440Y-56649D01*
X46554Y-56649D01*
X46630Y-56688D01*
X46935Y-57488D02*
X46973Y-57449D01*
X47050Y-57335D01*
X47088Y-57259D01*
X47126Y-57145D01*
X47164Y-56954D01*
X47164Y-56802D01*
X47126Y-56611D01*
X47088Y-56497D01*
X47050Y-56421D01*
X46973Y-56307D01*
X46935Y-56269D01*
X29851Y-57759D02*
X29851Y-58069D01*
X30006Y-57914D02*
X29696Y-57914D01*
X30550Y-57438D02*
X30626Y-57438D01*
X30702Y-57476D01*
X30740Y-57514D01*
X30778Y-57590D01*
X30817Y-57743D01*
X30817Y-57933D01*
X30778Y-58085D01*
X30740Y-58162D01*
X30702Y-58200D01*
X30626Y-58238D01*
X30550Y-58238D01*
X30474Y-58200D01*
X30436Y-58162D01*
X30397Y-58085D01*
X30359Y-57933D01*
X30359Y-57743D01*
X30397Y-57590D01*
X30436Y-57514D01*
X30474Y-57476D01*
X30550Y-57438D01*
X31159Y-58162D02*
X31198Y-58200D01*
X31159Y-58238D01*
X31121Y-58200D01*
X31159Y-58162D01*
X31159Y-58238D01*
X31693Y-57438D02*
X31769Y-57438D01*
X31845Y-57476D01*
X31883Y-57514D01*
X31921Y-57590D01*
X31960Y-57743D01*
X31960Y-57933D01*
X31921Y-58085D01*
X31883Y-58162D01*
X31845Y-58200D01*
X31769Y-58238D01*
X31693Y-58238D01*
X31617Y-58200D01*
X31579Y-58162D01*
X31540Y-58085D01*
X31502Y-57933D01*
X31502Y-57743D01*
X31540Y-57590D01*
X31579Y-57514D01*
X31617Y-57476D01*
X31693Y-57438D01*
X32226Y-57438D02*
X32722Y-57438D01*
X32455Y-57743D01*
X32569Y-57743D01*
X32645Y-57781D01*
X32683Y-57819D01*
X32722Y-57895D01*
X32722Y-58085D01*
X32683Y-58162D01*
X32645Y-58200D01*
X32569Y-58238D01*
X32341Y-58238D01*
X32264Y-58200D01*
X32226Y-58162D01*
X33484Y-58238D02*
X33026Y-58238D01*
X33255Y-58238D02*
X33255Y-57438D01*
X33179Y-57552D01*
X33103Y-57628D01*
X33026Y-57666D01*
X33788Y-57438D02*
X33788Y-57590D01*
X34093Y-57438D02*
X34093Y-57590D01*
X35618Y-57400D02*
X34932Y-58428D01*
X36647Y-57438D02*
X36723Y-57438D01*
X36799Y-57476D01*
X36837Y-57514D01*
X36875Y-57590D01*
X36914Y-57743D01*
X36914Y-57933D01*
X36875Y-58085D01*
X36837Y-58162D01*
X36799Y-58200D01*
X36723Y-58238D01*
X36647Y-58238D01*
X36571Y-58200D01*
X36533Y-58162D01*
X36494Y-58085D01*
X36456Y-57933D01*
X36456Y-57743D01*
X36494Y-57590D01*
X36533Y-57514D01*
X36571Y-57476D01*
X36647Y-57438D01*
X37256Y-58162D02*
X37295Y-58200D01*
X37256Y-58238D01*
X37218Y-58200D01*
X37256Y-58162D01*
X37256Y-58238D01*
X37561Y-57438D02*
X38095Y-57438D01*
X37752Y-58238D01*
X38438Y-58238D02*
X38590Y-58238D01*
X38666Y-58200D01*
X38704Y-58162D01*
X38780Y-58047D01*
X38819Y-57895D01*
X38819Y-57590D01*
X38780Y-57514D01*
X38742Y-57476D01*
X38666Y-57438D01*
X38514Y-57438D01*
X38438Y-57476D01*
X38399Y-57514D01*
X38361Y-57590D01*
X38361Y-57781D01*
X38399Y-57857D01*
X38438Y-57895D01*
X38514Y-57933D01*
X38666Y-57933D01*
X38742Y-57895D01*
X38780Y-57857D01*
X38819Y-57781D01*
X39161Y-58238D02*
X39161Y-57704D01*
X39161Y-57781D02*
X39200Y-57743D01*
X39276Y-57704D01*
X39390Y-57704D01*
X39466Y-57743D01*
X39504Y-57819D01*
X39504Y-58238D01*
X39504Y-57819D02*
X39542Y-57743D01*
X39619Y-57704D01*
X39733Y-57704D01*
X39809Y-57743D01*
X39847Y-57819D01*
X39847Y-58238D01*
X40228Y-58238D02*
X40228Y-57704D01*
X40228Y-57781D02*
X40267Y-57743D01*
X40343Y-57704D01*
X40457Y-57704D01*
X40533Y-57743D01*
X40571Y-57819D01*
X40571Y-58238D01*
X40571Y-57819D02*
X40609Y-57743D01*
X40686Y-57704D01*
X40800Y-57704D01*
X40876Y-57743D01*
X40914Y-57819D01*
X40914Y-58238D01*
X42134Y-58543D02*
X42096Y-58504D01*
X42020Y-58390D01*
X41982Y-58314D01*
X41944Y-58200D01*
X41905Y-58009D01*
X41905Y-57857D01*
X41944Y-57666D01*
X41982Y-57552D01*
X42020Y-57476D01*
X42096Y-57362D01*
X42134Y-57324D01*
X42858Y-58238D02*
X42400Y-58238D01*
X42629Y-58238D02*
X42629Y-57438D01*
X42553Y-57552D01*
X42477Y-57628D01*
X42400Y-57666D01*
X43353Y-57438D02*
X43429Y-57438D01*
X43505Y-57476D01*
X43543Y-57514D01*
X43581Y-57590D01*
X43620Y-57743D01*
X43620Y-57933D01*
X43581Y-58085D01*
X43543Y-58162D01*
X43505Y-58200D01*
X43429Y-58238D01*
X43353Y-58238D01*
X43277Y-58200D01*
X43239Y-58162D01*
X43200Y-58085D01*
X43162Y-57933D01*
X43162Y-57743D01*
X43200Y-57590D01*
X43239Y-57514D01*
X43277Y-57476D01*
X43353Y-57438D01*
X44572Y-58238D02*
X44572Y-57438D01*
X44915Y-58238D02*
X44915Y-57819D01*
X44877Y-57743D01*
X44801Y-57704D01*
X44687Y-57704D01*
X44611Y-57743D01*
X44572Y-57781D01*
X45411Y-58238D02*
X45335Y-58200D01*
X45296Y-58162D01*
X45258Y-58085D01*
X45258Y-57857D01*
X45296Y-57781D01*
X45335Y-57743D01*
X45411Y-57704D01*
X45525Y-57704D01*
X45601Y-57743D01*
X45639Y-57781D01*
X45677Y-57857D01*
X45677Y-58085D01*
X45639Y-58162D01*
X45601Y-58200D01*
X45525Y-58238D01*
X45411Y-58238D01*
X46135Y-58238D02*
X46059Y-58200D01*
X46020Y-58124D01*
X46020Y-57438D01*
X46744Y-58200D02*
X46668Y-58238D01*
X46516Y-58238D01*
X46439Y-58200D01*
X46401Y-58124D01*
X46401Y-57819D01*
X46439Y-57743D01*
X46516Y-57704D01*
X46668Y-57704D01*
X46744Y-57743D01*
X46782Y-57819D01*
X46782Y-57895D01*
X46401Y-57971D01*
X47087Y-58200D02*
X47164Y-58238D01*
X47316Y-58238D01*
X47392Y-58200D01*
X47430Y-58124D01*
X47430Y-58085D01*
X47392Y-58009D01*
X47316Y-57971D01*
X47202Y-57971D01*
X47125Y-57933D01*
X47087Y-57857D01*
X47087Y-57819D01*
X47125Y-57743D01*
X47202Y-57704D01*
X47316Y-57704D01*
X47392Y-57743D01*
X47697Y-58543D02*
X47735Y-58504D01*
X47812Y-58390D01*
X47850Y-58314D01*
X47888Y-58200D01*
X47926Y-58009D01*
X47926Y-57857D01*
X47888Y-57666D01*
X47850Y-57552D01*
X47812Y-57476D01*
X47735Y-57362D01*
X47697Y-57324D01*
G54D10*
X30007Y-58969D02*
X30003Y-59000D01*
X29994Y-59029D01*
X29980Y-59057D01*
X29960Y-59081D01*
X29936Y-59101D01*
X29909Y-59116D01*
X29879Y-59125D01*
X29848Y-59128D01*
X29818Y-59126D01*
X29788Y-59117D01*
X29760Y-59102D01*
X29736Y-59083D01*
X29715Y-59059D01*
X29700Y-59032D01*
X29691Y-59002D01*
X29688Y-58971D01*
X29690Y-58941D01*
X29699Y-58911D01*
X29713Y-58883D01*
X29732Y-58858D01*
X29756Y-58838D01*
X29783Y-58823D01*
X29813Y-58813D01*
X29844Y-58810D01*
X29874Y-58812D01*
X29904Y-58820D01*
X29932Y-58834D01*
X29957Y-58854D01*
X29977Y-58877D01*
X29993Y-58904D01*
X30003Y-58934D01*
X30006Y-58965D01*
X30007Y-58969D01*
X29687Y-58809D02*
X30007Y-59129D01*
X30007Y-58809D02*
X29687Y-59129D01*
G54D12*
X30550Y-58493D02*
X30626Y-58493D01*
X30702Y-58531D01*
X30740Y-58569D01*
X30778Y-58645D01*
X30817Y-58798D01*
X30817Y-58988D01*
X30778Y-59140D01*
X30740Y-59217D01*
X30702Y-59255D01*
X30626Y-59293D01*
X30550Y-59293D01*
X30474Y-59255D01*
X30436Y-59217D01*
X30397Y-59140D01*
X30359Y-58988D01*
X30359Y-58798D01*
X30397Y-58645D01*
X30436Y-58569D01*
X30474Y-58531D01*
X30550Y-58493D01*
X31159Y-59217D02*
X31198Y-59255D01*
X31159Y-59293D01*
X31121Y-59255D01*
X31159Y-59217D01*
X31159Y-59293D01*
X31693Y-58493D02*
X31769Y-58493D01*
X31845Y-58531D01*
X31883Y-58569D01*
X31921Y-58645D01*
X31960Y-58798D01*
X31960Y-58988D01*
X31921Y-59140D01*
X31883Y-59217D01*
X31845Y-59255D01*
X31769Y-59293D01*
X31693Y-59293D01*
X31617Y-59255D01*
X31579Y-59217D01*
X31540Y-59140D01*
X31502Y-58988D01*
X31502Y-58798D01*
X31540Y-58645D01*
X31579Y-58569D01*
X31617Y-58531D01*
X31693Y-58493D01*
X32226Y-58493D02*
X32722Y-58493D01*
X32455Y-58798D01*
X32569Y-58798D01*
X32645Y-58836D01*
X32683Y-58874D01*
X32722Y-58950D01*
X32722Y-59140D01*
X32683Y-59217D01*
X32645Y-59255D01*
X32569Y-59293D01*
X32341Y-59293D01*
X32264Y-59255D01*
X32226Y-59217D01*
X33026Y-58569D02*
X33064Y-58531D01*
X33141Y-58493D01*
X33331Y-58493D01*
X33407Y-58531D01*
X33445Y-58569D01*
X33484Y-58645D01*
X33484Y-58721D01*
X33445Y-58836D01*
X32988Y-59293D01*
X33484Y-59293D01*
X33788Y-58493D02*
X33788Y-58645D01*
X34093Y-58493D02*
X34093Y-58645D01*
X35618Y-58455D02*
X34932Y-59483D01*
X36647Y-58493D02*
X36723Y-58493D01*
X36799Y-58531D01*
X36837Y-58569D01*
X36875Y-58645D01*
X36914Y-58798D01*
X36914Y-58988D01*
X36875Y-59140D01*
X36837Y-59217D01*
X36799Y-59255D01*
X36723Y-59293D01*
X36647Y-59293D01*
X36571Y-59255D01*
X36533Y-59217D01*
X36494Y-59140D01*
X36456Y-58988D01*
X36456Y-58798D01*
X36494Y-58645D01*
X36533Y-58569D01*
X36571Y-58531D01*
X36647Y-58493D01*
X37256Y-59217D02*
X37295Y-59255D01*
X37256Y-59293D01*
X37218Y-59255D01*
X37256Y-59217D01*
X37256Y-59293D01*
X37752Y-58836D02*
X37676Y-58798D01*
X37637Y-58759D01*
X37599Y-58683D01*
X37599Y-58645D01*
X37637Y-58569D01*
X37676Y-58531D01*
X37752Y-58493D01*
X37904Y-58493D01*
X37980Y-58531D01*
X38018Y-58569D01*
X38057Y-58645D01*
X38057Y-58683D01*
X38018Y-58759D01*
X37980Y-58798D01*
X37904Y-58836D01*
X37752Y-58836D01*
X37676Y-58874D01*
X37637Y-58912D01*
X37599Y-58988D01*
X37599Y-59140D01*
X37637Y-59217D01*
X37676Y-59255D01*
X37752Y-59293D01*
X37904Y-59293D01*
X37980Y-59255D01*
X38018Y-59217D01*
X38057Y-59140D01*
X38057Y-58988D01*
X38018Y-58912D01*
X37980Y-58874D01*
X37904Y-58836D01*
X38819Y-59293D02*
X38361Y-59293D01*
X38590Y-59293D02*
X38590Y-58493D01*
X38514Y-58607D01*
X38438Y-58683D01*
X38361Y-58721D01*
X39161Y-59293D02*
X39161Y-58759D01*
X39161Y-58836D02*
X39200Y-58798D01*
X39276Y-58759D01*
X39390Y-58759D01*
X39466Y-58798D01*
X39504Y-58874D01*
X39504Y-59293D01*
X39504Y-58874D02*
X39542Y-58798D01*
X39619Y-58759D01*
X39733Y-58759D01*
X39809Y-58798D01*
X39847Y-58874D01*
X39847Y-59293D01*
X40228Y-59293D02*
X40228Y-58759D01*
X40228Y-58836D02*
X40267Y-58798D01*
X40343Y-58759D01*
X40457Y-58759D01*
X40533Y-58798D01*
X40571Y-58874D01*
X40571Y-59293D01*
X40571Y-58874D02*
X40609Y-58798D01*
X40686Y-58759D01*
X40800Y-58759D01*
X40876Y-58798D01*
X40914Y-58874D01*
X40914Y-59293D01*
X42134Y-59598D02*
X42096Y-59559D01*
X42020Y-59445D01*
X41982Y-59369D01*
X41944Y-59255D01*
X41905Y-59064D01*
X41905Y-58912D01*
X41944Y-58721D01*
X41982Y-58607D01*
X42020Y-58531D01*
X42096Y-58417D01*
X42134Y-58379D01*
X42477Y-59293D02*
X42629Y-59293D01*
X42705Y-59255D01*
X42743Y-59217D01*
X42819Y-59102D01*
X42858Y-58950D01*
X42858Y-58645D01*
X42819Y-58569D01*
X42781Y-58531D01*
X42705Y-58493D01*
X42553Y-58493D01*
X42477Y-58531D01*
X42438Y-58569D01*
X42400Y-58645D01*
X42400Y-58836D01*
X42438Y-58912D01*
X42477Y-58950D01*
X42553Y-58988D01*
X42705Y-58988D01*
X42781Y-58950D01*
X42819Y-58912D01*
X42858Y-58836D01*
X43543Y-58493D02*
X43391Y-58493D01*
X43315Y-58531D01*
X43277Y-58569D01*
X43200Y-58683D01*
X43162Y-58836D01*
X43162Y-59140D01*
X43200Y-59217D01*
X43239Y-59255D01*
X43315Y-59293D01*
X43467Y-59293D01*
X43543Y-59255D01*
X43581Y-59217D01*
X43620Y-59140D01*
X43620Y-58950D01*
X43581Y-58874D01*
X43543Y-58836D01*
X43467Y-58798D01*
X43315Y-58798D01*
X43239Y-58836D01*
X43200Y-58874D01*
X43162Y-58950D01*
X44572Y-59293D02*
X44572Y-58493D01*
X44915Y-59293D02*
X44915Y-58874D01*
X44877Y-58798D01*
X44801Y-58759D01*
X44687Y-58759D01*
X44611Y-58798D01*
X44572Y-58836D01*
X45411Y-59293D02*
X45335Y-59255D01*
X45296Y-59217D01*
X45258Y-59140D01*
X45258Y-58912D01*
X45296Y-58836D01*
X45335Y-58798D01*
X45411Y-58759D01*
X45525Y-58759D01*
X45601Y-58798D01*
X45639Y-58836D01*
X45677Y-58912D01*
X45677Y-59140D01*
X45639Y-59217D01*
X45601Y-59255D01*
X45525Y-59293D01*
X45411Y-59293D01*
X46135Y-59293D02*
X46059Y-59255D01*
X46020Y-59179D01*
X46020Y-58493D01*
X46744Y-59255D02*
X46668Y-59293D01*
X46516Y-59293D01*
X46439Y-59255D01*
X46401Y-59179D01*
X46401Y-58874D01*
X46439Y-58798D01*
X46516Y-58759D01*
X46668Y-58759D01*
X46744Y-58798D01*
X46782Y-58874D01*
X46782Y-58950D01*
X46401Y-59026D01*
X47087Y-59255D02*
X47164Y-59293D01*
X47316Y-59293D01*
X47392Y-59255D01*
X47430Y-59179D01*
X47430Y-59140D01*
X47392Y-59064D01*
X47316Y-59026D01*
X47202Y-59026D01*
X47125Y-58988D01*
X47087Y-58912D01*
X47087Y-58874D01*
X47125Y-58798D01*
X47202Y-58759D01*
X47316Y-58759D01*
X47392Y-58798D01*
X47697Y-59598D02*
X47735Y-59559D01*
X47812Y-59445D01*
X47850Y-59369D01*
X47888Y-59255D01*
X47926Y-59064D01*
X47926Y-58912D01*
X47888Y-58721D01*
X47850Y-58607D01*
X47812Y-58531D01*
X47735Y-58417D01*
X47697Y-58379D01*
G54D10*
X30007Y-60024D02*
X30003Y-60062D01*
X29992Y-60099D01*
X29974Y-60133D01*
X29949Y-60162D01*
X29920Y-60187D01*
X29886Y-60205D01*
X29849Y-60216D01*
X29811Y-60220D01*
X29774Y-60217D01*
X29737Y-60206D01*
X29703Y-60188D01*
X29673Y-60164D01*
X29648Y-60135D01*
X29629Y-60101D01*
X29618Y-60064D01*
X29614Y-60026D01*
X29617Y-59989D01*
X29627Y-59952D01*
X29645Y-59918D01*
X29669Y-59888D01*
X29698Y-59863D01*
X29732Y-59844D01*
X29768Y-59832D01*
X29806Y-59828D01*
X29844Y-59830D01*
X29881Y-59841D01*
X29915Y-59858D01*
X29945Y-59882D01*
X29970Y-59911D01*
X29989Y-59944D01*
X30002Y-59981D01*
X30006Y-60019D01*
X30007Y-60024D01*
X29613Y-60024D02*
X30007Y-60024D01*
G54D12*
X30550Y-59548D02*
X30626Y-59548D01*
X30702Y-59586D01*
X30740Y-59624D01*
X30778Y-59700D01*
X30817Y-59853D01*
X30817Y-60043D01*
X30778Y-60195D01*
X30740Y-60272D01*
X30702Y-60310D01*
X30626Y-60348D01*
X30550Y-60348D01*
X30474Y-60310D01*
X30436Y-60272D01*
X30397Y-60195D01*
X30359Y-60043D01*
X30359Y-59853D01*
X30397Y-59700D01*
X30436Y-59624D01*
X30474Y-59586D01*
X30550Y-59548D01*
X31159Y-60272D02*
X31198Y-60310D01*
X31159Y-60348D01*
X31121Y-60310D01*
X31159Y-60272D01*
X31159Y-60348D01*
X31693Y-59548D02*
X31769Y-59548D01*
X31845Y-59586D01*
X31883Y-59624D01*
X31921Y-59700D01*
X31960Y-59853D01*
X31960Y-60043D01*
X31921Y-60195D01*
X31883Y-60272D01*
X31845Y-60310D01*
X31769Y-60348D01*
X31693Y-60348D01*
X31617Y-60310D01*
X31579Y-60272D01*
X31540Y-60195D01*
X31502Y-60043D01*
X31502Y-59853D01*
X31540Y-59700D01*
X31579Y-59624D01*
X31617Y-59586D01*
X31693Y-59548D01*
X32226Y-59548D02*
X32722Y-59548D01*
X32455Y-59853D01*
X32569Y-59853D01*
X32645Y-59891D01*
X32683Y-59929D01*
X32722Y-60005D01*
X32722Y-60195D01*
X32683Y-60272D01*
X32645Y-60310D01*
X32569Y-60348D01*
X32341Y-60348D01*
X32264Y-60310D01*
X32226Y-60272D01*
X33103Y-60348D02*
X33255Y-60348D01*
X33331Y-60310D01*
X33369Y-60272D01*
X33445Y-60157D01*
X33484Y-60005D01*
X33484Y-59700D01*
X33445Y-59624D01*
X33407Y-59586D01*
X33331Y-59548D01*
X33179Y-59548D01*
X33103Y-59586D01*
X33064Y-59624D01*
X33026Y-59700D01*
X33026Y-59891D01*
X33064Y-59967D01*
X33103Y-60005D01*
X33179Y-60043D01*
X33331Y-60043D01*
X33407Y-60005D01*
X33445Y-59967D01*
X33484Y-59891D01*
X33788Y-59548D02*
X33788Y-59700D01*
X34093Y-59548D02*
X34093Y-59700D01*
X35618Y-59510D02*
X34932Y-60538D01*
X36914Y-60348D02*
X36456Y-60348D01*
X36685Y-60348D02*
X36685Y-59548D01*
X36609Y-59662D01*
X36533Y-59738D01*
X36456Y-59776D01*
X37256Y-60272D02*
X37295Y-60310D01*
X37256Y-60348D01*
X37218Y-60310D01*
X37256Y-60272D01*
X37256Y-60348D01*
X37790Y-59548D02*
X37866Y-59548D01*
X37942Y-59586D01*
X37980Y-59624D01*
X38018Y-59700D01*
X38057Y-59853D01*
X38057Y-60043D01*
X38018Y-60195D01*
X37980Y-60272D01*
X37942Y-60310D01*
X37866Y-60348D01*
X37790Y-60348D01*
X37714Y-60310D01*
X37676Y-60272D01*
X37637Y-60195D01*
X37599Y-60043D01*
X37599Y-59853D01*
X37637Y-59700D01*
X37676Y-59624D01*
X37714Y-59586D01*
X37790Y-59548D01*
X38552Y-59548D02*
X38628Y-59548D01*
X38704Y-59586D01*
X38742Y-59624D01*
X38780Y-59700D01*
X38819Y-59853D01*
X38819Y-60043D01*
X38780Y-60195D01*
X38742Y-60272D01*
X38704Y-60310D01*
X38628Y-60348D01*
X38552Y-60348D01*
X38476Y-60310D01*
X38438Y-60272D01*
X38399Y-60195D01*
X38361Y-60043D01*
X38361Y-59853D01*
X38399Y-59700D01*
X38438Y-59624D01*
X38476Y-59586D01*
X38552Y-59548D01*
X39161Y-60348D02*
X39161Y-59814D01*
X39161Y-59891D02*
X39200Y-59853D01*
X39276Y-59814D01*
X39390Y-59814D01*
X39466Y-59853D01*
X39504Y-59929D01*
X39504Y-60348D01*
X39504Y-59929D02*
X39542Y-59853D01*
X39619Y-59814D01*
X39733Y-59814D01*
X39809Y-59853D01*
X39847Y-59929D01*
X39847Y-60348D01*
X40228Y-60348D02*
X40228Y-59814D01*
X40228Y-59891D02*
X40267Y-59853D01*
X40343Y-59814D01*
X40457Y-59814D01*
X40533Y-59853D01*
X40571Y-59929D01*
X40571Y-60348D01*
X40571Y-59929D02*
X40609Y-59853D01*
X40686Y-59814D01*
X40800Y-59814D01*
X40876Y-59853D01*
X40914Y-59929D01*
X40914Y-60348D01*
X42134Y-60653D02*
X42096Y-60614D01*
X42020Y-60500D01*
X41982Y-60424D01*
X41944Y-60310D01*
X41905Y-60119D01*
X41905Y-59967D01*
X41944Y-59776D01*
X41982Y-59662D01*
X42020Y-59586D01*
X42096Y-59472D01*
X42134Y-59434D01*
X42400Y-59624D02*
X42438Y-59586D01*
X42515Y-59548D01*
X42705Y-59548D01*
X42781Y-59586D01*
X42819Y-59624D01*
X42858Y-59700D01*
X42858Y-59776D01*
X42819Y-59891D01*
X42362Y-60348D01*
X42858Y-60348D01*
X43810Y-60348D02*
X43810Y-59548D01*
X44153Y-60348D02*
X44153Y-59929D01*
X44115Y-59853D01*
X44039Y-59814D01*
X43925Y-59814D01*
X43849Y-59853D01*
X43810Y-59891D01*
X44649Y-60348D02*
X44573Y-60310D01*
X44534Y-60272D01*
X44496Y-60195D01*
X44496Y-59967D01*
X44534Y-59891D01*
X44573Y-59853D01*
X44649Y-59814D01*
X44763Y-59814D01*
X44839Y-59853D01*
X44877Y-59891D01*
X44915Y-59967D01*
X44915Y-60195D01*
X44877Y-60272D01*
X44839Y-60310D01*
X44763Y-60348D01*
X44649Y-60348D01*
X45373Y-60348D02*
X45297Y-60310D01*
X45258Y-60234D01*
X45258Y-59548D01*
X45982Y-60310D02*
X45906Y-60348D01*
X45754Y-60348D01*
X45677Y-60310D01*
X45639Y-60234D01*
X45639Y-59929D01*
X45677Y-59853D01*
X45754Y-59814D01*
X45906Y-59814D01*
X45982Y-59853D01*
X46020Y-59929D01*
X46020Y-60005D01*
X45639Y-60081D01*
X46325Y-60310D02*
X46402Y-60348D01*
X46554Y-60348D01*
X46630Y-60310D01*
X46668Y-60234D01*
X46668Y-60195D01*
X46630Y-60119D01*
X46554Y-60081D01*
X46440Y-60081D01*
X46363Y-60043D01*
X46325Y-59967D01*
X46325Y-59929D01*
X46363Y-59853D01*
X46440Y-59814D01*
X46554Y-59814D01*
X46630Y-59853D01*
X46935Y-60653D02*
X46973Y-60614D01*
X47050Y-60500D01*
X47088Y-60424D01*
X47126Y-60310D01*
X47164Y-60119D01*
X47164Y-59967D01*
X47126Y-59776D01*
X47088Y-59662D01*
X47050Y-59586D01*
X46973Y-59472D01*
X46935Y-59434D01*
G54D10*
X30007Y-61079D02*
X30001Y-61137D01*
X29984Y-61193D01*
X29956Y-61245D01*
X29919Y-61290D01*
X29874Y-61327D01*
X29823Y-61355D01*
X29767Y-61372D01*
X29709Y-61378D01*
X29651Y-61373D01*
X29595Y-61357D01*
X29543Y-61330D01*
X29498Y-61293D01*
X29460Y-61248D01*
X29432Y-61197D01*
X29414Y-61141D01*
X29408Y-61083D01*
X29412Y-61025D01*
X29429Y-60969D01*
X29455Y-60917D01*
X29492Y-60871D01*
X29536Y-60833D01*
X29587Y-60805D01*
X29643Y-60786D01*
X29701Y-60780D01*
X29759Y-60784D01*
X29815Y-60800D01*
X29867Y-60826D01*
X29913Y-60862D01*
X29952Y-60907D01*
X29981Y-60957D01*
X29999Y-61013D01*
X30006Y-61071D01*
X30007Y-61079D01*
X29707Y-60779D02*
X29707Y-61379D01*
G54D12*
X30550Y-60603D02*
X30626Y-60603D01*
X30702Y-60641D01*
X30740Y-60679D01*
X30778Y-60755D01*
X30817Y-60908D01*
X30817Y-61098D01*
X30778Y-61250D01*
X30740Y-61327D01*
X30702Y-61365D01*
X30626Y-61403D01*
X30550Y-61403D01*
X30474Y-61365D01*
X30436Y-61327D01*
X30397Y-61250D01*
X30359Y-61098D01*
X30359Y-60908D01*
X30397Y-60755D01*
X30436Y-60679D01*
X30474Y-60641D01*
X30550Y-60603D01*
X31159Y-61327D02*
X31198Y-61365D01*
X31159Y-61403D01*
X31121Y-61365D01*
X31159Y-61327D01*
X31159Y-61403D01*
X31693Y-60603D02*
X31769Y-60603D01*
X31845Y-60641D01*
X31883Y-60679D01*
X31921Y-60755D01*
X31960Y-60908D01*
X31960Y-61098D01*
X31921Y-61250D01*
X31883Y-61327D01*
X31845Y-61365D01*
X31769Y-61403D01*
X31693Y-61403D01*
X31617Y-61365D01*
X31579Y-61327D01*
X31540Y-61250D01*
X31502Y-61098D01*
X31502Y-60908D01*
X31540Y-60755D01*
X31579Y-60679D01*
X31617Y-60641D01*
X31693Y-60603D01*
X32645Y-60603D02*
X32493Y-60603D01*
X32417Y-60641D01*
X32379Y-60679D01*
X32302Y-60793D01*
X32264Y-60946D01*
X32264Y-61250D01*
X32302Y-61327D01*
X32341Y-61365D01*
X32417Y-61403D01*
X32569Y-61403D01*
X32645Y-61365D01*
X32683Y-61327D01*
X32722Y-61250D01*
X32722Y-61060D01*
X32683Y-60984D01*
X32645Y-60946D01*
X32569Y-60908D01*
X32417Y-60908D01*
X32341Y-60946D01*
X32302Y-60984D01*
X32264Y-61060D01*
X33217Y-60603D02*
X33293Y-60603D01*
X33369Y-60641D01*
X33407Y-60679D01*
X33445Y-60755D01*
X33484Y-60908D01*
X33484Y-61098D01*
X33445Y-61250D01*
X33407Y-61327D01*
X33369Y-61365D01*
X33293Y-61403D01*
X33217Y-61403D01*
X33141Y-61365D01*
X33103Y-61327D01*
X33064Y-61250D01*
X33026Y-61098D01*
X33026Y-60908D01*
X33064Y-60755D01*
X33103Y-60679D01*
X33141Y-60641D01*
X33217Y-60603D01*
X33788Y-60603D02*
X33788Y-60755D01*
X34093Y-60603D02*
X34093Y-60755D01*
X35618Y-60565D02*
X34932Y-61593D01*
X36914Y-61403D02*
X36456Y-61403D01*
X36685Y-61403D02*
X36685Y-60603D01*
X36609Y-60717D01*
X36533Y-60793D01*
X36456Y-60831D01*
X37256Y-61327D02*
X37295Y-61365D01*
X37256Y-61403D01*
X37218Y-61365D01*
X37256Y-61327D01*
X37256Y-61403D01*
X38018Y-60603D02*
X37637Y-60603D01*
X37599Y-60984D01*
X37637Y-60946D01*
X37714Y-60908D01*
X37904Y-60908D01*
X37980Y-60946D01*
X38018Y-60984D01*
X38057Y-61060D01*
X38057Y-61250D01*
X38018Y-61327D01*
X37980Y-61365D01*
X37904Y-61403D01*
X37714Y-61403D01*
X37637Y-61365D01*
X37599Y-61327D01*
X38361Y-60679D02*
X38399Y-60641D01*
X38476Y-60603D01*
X38666Y-60603D01*
X38742Y-60641D01*
X38780Y-60679D01*
X38819Y-60755D01*
X38819Y-60831D01*
X38780Y-60946D01*
X38323Y-61403D01*
X38819Y-61403D01*
X39161Y-61403D02*
X39161Y-60869D01*
X39161Y-60946D02*
X39200Y-60908D01*
X39276Y-60869D01*
X39390Y-60869D01*
X39466Y-60908D01*
X39504Y-60984D01*
X39504Y-61403D01*
X39504Y-60984D02*
X39542Y-60908D01*
X39619Y-60869D01*
X39733Y-60869D01*
X39809Y-60908D01*
X39847Y-60984D01*
X39847Y-61403D01*
X40228Y-61403D02*
X40228Y-60869D01*
X40228Y-60946D02*
X40267Y-60908D01*
X40343Y-60869D01*
X40457Y-60869D01*
X40533Y-60908D01*
X40571Y-60984D01*
X40571Y-61403D01*
X40571Y-60984D02*
X40609Y-60908D01*
X40686Y-60869D01*
X40800Y-60869D01*
X40876Y-60908D01*
X40914Y-60984D01*
X40914Y-61403D01*
X42134Y-61708D02*
X42096Y-61669D01*
X42020Y-61555D01*
X41982Y-61479D01*
X41944Y-61365D01*
X41905Y-61174D01*
X41905Y-61022D01*
X41944Y-60831D01*
X41982Y-60717D01*
X42020Y-60641D01*
X42096Y-60527D01*
X42134Y-60489D01*
X42858Y-61403D02*
X42400Y-61403D01*
X42629Y-61403D02*
X42629Y-60603D01*
X42553Y-60717D01*
X42477Y-60793D01*
X42400Y-60831D01*
X43810Y-61403D02*
X43810Y-60603D01*
X44153Y-61403D02*
X44153Y-60984D01*
X44115Y-60908D01*
X44039Y-60869D01*
X43925Y-60869D01*
X43849Y-60908D01*
X43810Y-60946D01*
X44649Y-61403D02*
X44573Y-61365D01*
X44534Y-61327D01*
X44496Y-61250D01*
X44496Y-61022D01*
X44534Y-60946D01*
X44573Y-60908D01*
X44649Y-60869D01*
X44763Y-60869D01*
X44839Y-60908D01*
X44877Y-60946D01*
X44915Y-61022D01*
X44915Y-61250D01*
X44877Y-61327D01*
X44839Y-61365D01*
X44763Y-61403D01*
X44649Y-61403D01*
X45373Y-61403D02*
X45297Y-61365D01*
X45258Y-61289D01*
X45258Y-60603D01*
X45982Y-61365D02*
X45906Y-61403D01*
X45754Y-61403D01*
X45677Y-61365D01*
X45639Y-61289D01*
X45639Y-60984D01*
X45677Y-60908D01*
X45754Y-60869D01*
X45906Y-60869D01*
X45982Y-60908D01*
X46020Y-60984D01*
X46020Y-61060D01*
X45639Y-61136D01*
X46287Y-61708D02*
X46325Y-61669D01*
X46402Y-61555D01*
X46440Y-61479D01*
X46478Y-61365D01*
X46516Y-61174D01*
X46516Y-61022D01*
X46478Y-60831D01*
X46440Y-60717D01*
X46402Y-60641D01*
X46325Y-60527D01*
X46287Y-60489D01*
G54D10*
X29824Y-62576D02*
X29824Y-61692D01*
X28940Y-61692D01*
X28940Y-62576D01*
X29824Y-62576D01*
G54D12*
X30550Y-61658D02*
X30626Y-61658D01*
X30702Y-61696D01*
X30740Y-61734D01*
X30778Y-61810D01*
X30817Y-61963D01*
X30817Y-62153D01*
X30778Y-62305D01*
X30740Y-62382D01*
X30702Y-62420D01*
X30626Y-62458D01*
X30550Y-62458D01*
X30474Y-62420D01*
X30436Y-62382D01*
X30397Y-62305D01*
X30359Y-62153D01*
X30359Y-61963D01*
X30397Y-61810D01*
X30436Y-61734D01*
X30474Y-61696D01*
X30550Y-61658D01*
X31159Y-62382D02*
X31198Y-62420D01*
X31159Y-62458D01*
X31121Y-62420D01*
X31159Y-62382D01*
X31159Y-62458D01*
X31960Y-62458D02*
X31502Y-62458D01*
X31731Y-62458D02*
X31731Y-61658D01*
X31655Y-61772D01*
X31579Y-61848D01*
X31502Y-61886D01*
X32264Y-61734D02*
X32302Y-61696D01*
X32379Y-61658D01*
X32569Y-61658D01*
X32645Y-61696D01*
X32683Y-61734D01*
X32722Y-61810D01*
X32722Y-61886D01*
X32683Y-62001D01*
X32226Y-62458D01*
X32722Y-62458D01*
X33445Y-61658D02*
X33064Y-61658D01*
X33026Y-62039D01*
X33064Y-62001D01*
X33141Y-61963D01*
X33331Y-61963D01*
X33407Y-62001D01*
X33445Y-62039D01*
X33484Y-62115D01*
X33484Y-62305D01*
X33445Y-62382D01*
X33407Y-62420D01*
X33331Y-62458D01*
X33141Y-62458D01*
X33064Y-62420D01*
X33026Y-62382D01*
X33788Y-61658D02*
X33788Y-61810D01*
X34093Y-61658D02*
X34093Y-61810D01*
X35618Y-61620D02*
X34932Y-62648D01*
X36418Y-61658D02*
X36914Y-61658D01*
X36647Y-61963D01*
X36761Y-61963D01*
X36837Y-62001D01*
X36875Y-62039D01*
X36914Y-62115D01*
X36914Y-62305D01*
X36875Y-62382D01*
X36837Y-62420D01*
X36761Y-62458D01*
X36533Y-62458D01*
X36456Y-62420D01*
X36418Y-62382D01*
X37256Y-62382D02*
X37295Y-62420D01*
X37256Y-62458D01*
X37218Y-62420D01*
X37256Y-62382D01*
X37256Y-62458D01*
X38057Y-62458D02*
X37599Y-62458D01*
X37828Y-62458D02*
X37828Y-61658D01*
X37752Y-61772D01*
X37676Y-61848D01*
X37599Y-61886D01*
X38514Y-62001D02*
X38438Y-61963D01*
X38399Y-61924D01*
X38361Y-61848D01*
X38361Y-61810D01*
X38399Y-61734D01*
X38438Y-61696D01*
X38514Y-61658D01*
X38666Y-61658D01*
X38742Y-61696D01*
X38780Y-61734D01*
X38819Y-61810D01*
X38819Y-61848D01*
X38780Y-61924D01*
X38742Y-61963D01*
X38666Y-62001D01*
X38514Y-62001D01*
X38438Y-62039D01*
X38399Y-62077D01*
X38361Y-62153D01*
X38361Y-62305D01*
X38399Y-62382D01*
X38438Y-62420D01*
X38514Y-62458D01*
X38666Y-62458D01*
X38742Y-62420D01*
X38780Y-62382D01*
X38819Y-62305D01*
X38819Y-62153D01*
X38780Y-62077D01*
X38742Y-62039D01*
X38666Y-62001D01*
X39161Y-62458D02*
X39161Y-61924D01*
X39161Y-62001D02*
X39200Y-61963D01*
X39276Y-61924D01*
X39390Y-61924D01*
X39466Y-61963D01*
X39504Y-62039D01*
X39504Y-62458D01*
X39504Y-62039D02*
X39542Y-61963D01*
X39619Y-61924D01*
X39733Y-61924D01*
X39809Y-61963D01*
X39847Y-62039D01*
X39847Y-62458D01*
X40228Y-62458D02*
X40228Y-61924D01*
X40228Y-62001D02*
X40267Y-61963D01*
X40343Y-61924D01*
X40457Y-61924D01*
X40533Y-61963D01*
X40571Y-62039D01*
X40571Y-62458D01*
X40571Y-62039D02*
X40609Y-61963D01*
X40686Y-61924D01*
X40800Y-61924D01*
X40876Y-61963D01*
X40914Y-62039D01*
X40914Y-62458D01*
X42134Y-62763D02*
X42096Y-62724D01*
X42020Y-62610D01*
X41982Y-62534D01*
X41944Y-62420D01*
X41905Y-62229D01*
X41905Y-62077D01*
X41944Y-61886D01*
X41982Y-61772D01*
X42020Y-61696D01*
X42096Y-61582D01*
X42134Y-61544D01*
X42400Y-61734D02*
X42438Y-61696D01*
X42515Y-61658D01*
X42705Y-61658D01*
X42781Y-61696D01*
X42819Y-61734D01*
X42858Y-61810D01*
X42858Y-61886D01*
X42819Y-62001D01*
X42362Y-62458D01*
X42858Y-62458D01*
X43810Y-62458D02*
X43810Y-61658D01*
X44153Y-62458D02*
X44153Y-62039D01*
X44115Y-61963D01*
X44039Y-61924D01*
X43925Y-61924D01*
X43849Y-61963D01*
X43810Y-62001D01*
X44649Y-62458D02*
X44573Y-62420D01*
X44534Y-62382D01*
X44496Y-62305D01*
X44496Y-62077D01*
X44534Y-62001D01*
X44573Y-61963D01*
X44649Y-61924D01*
X44763Y-61924D01*
X44839Y-61963D01*
X44877Y-62001D01*
X44915Y-62077D01*
X44915Y-62305D01*
X44877Y-62382D01*
X44839Y-62420D01*
X44763Y-62458D01*
X44649Y-62458D01*
X45373Y-62458D02*
X45297Y-62420D01*
X45258Y-62344D01*
X45258Y-61658D01*
X45982Y-62420D02*
X45906Y-62458D01*
X45754Y-62458D01*
X45677Y-62420D01*
X45639Y-62344D01*
X45639Y-62039D01*
X45677Y-61963D01*
X45754Y-61924D01*
X45906Y-61924D01*
X45982Y-61963D01*
X46020Y-62039D01*
X46020Y-62115D01*
X45639Y-62191D01*
X46325Y-62420D02*
X46402Y-62458D01*
X46554Y-62458D01*
X46630Y-62420D01*
X46668Y-62344D01*
X46668Y-62305D01*
X46630Y-62229D01*
X46554Y-62191D01*
X46440Y-62191D01*
X46363Y-62153D01*
X46325Y-62077D01*
X46325Y-62039D01*
X46363Y-61963D01*
X46440Y-61924D01*
X46554Y-61924D01*
X46630Y-61963D01*
X46935Y-62763D02*
X46973Y-62724D01*
X47050Y-62610D01*
X47088Y-62534D01*
X47126Y-62420D01*
X47164Y-62229D01*
X47164Y-62077D01*
X47126Y-61886D01*
X47088Y-61772D01*
X47050Y-61696D01*
X46973Y-61582D01*
X46935Y-61544D01*
G54D10*
X29377Y-64294D02*
X30007Y-63664D01*
X29377Y-63034D01*
X28747Y-63664D01*
X29377Y-64294D01*
G54D12*
X30550Y-63188D02*
X30626Y-63188D01*
X30702Y-63226D01*
X30740Y-63264D01*
X30778Y-63340D01*
X30817Y-63493D01*
X30817Y-63683D01*
X30778Y-63835D01*
X30740Y-63912D01*
X30702Y-63950D01*
X30626Y-63988D01*
X30550Y-63988D01*
X30474Y-63950D01*
X30436Y-63912D01*
X30397Y-63835D01*
X30359Y-63683D01*
X30359Y-63493D01*
X30397Y-63340D01*
X30436Y-63264D01*
X30474Y-63226D01*
X30550Y-63188D01*
X31159Y-63912D02*
X31198Y-63950D01*
X31159Y-63988D01*
X31121Y-63950D01*
X31159Y-63912D01*
X31159Y-63988D01*
X31960Y-63988D02*
X31502Y-63988D01*
X31731Y-63988D02*
X31731Y-63188D01*
X31655Y-63302D01*
X31579Y-63378D01*
X31502Y-63416D01*
X32264Y-63264D02*
X32302Y-63226D01*
X32379Y-63188D01*
X32569Y-63188D01*
X32645Y-63226D01*
X32683Y-63264D01*
X32722Y-63340D01*
X32722Y-63416D01*
X32683Y-63531D01*
X32226Y-63988D01*
X32722Y-63988D01*
X33407Y-63188D02*
X33255Y-63188D01*
X33179Y-63226D01*
X33141Y-63264D01*
X33064Y-63378D01*
X33026Y-63531D01*
X33026Y-63835D01*
X33064Y-63912D01*
X33103Y-63950D01*
X33179Y-63988D01*
X33331Y-63988D01*
X33407Y-63950D01*
X33445Y-63912D01*
X33484Y-63835D01*
X33484Y-63645D01*
X33445Y-63569D01*
X33407Y-63531D01*
X33331Y-63493D01*
X33179Y-63493D01*
X33103Y-63531D01*
X33064Y-63569D01*
X33026Y-63645D01*
X33788Y-63188D02*
X33788Y-63340D01*
X34093Y-63188D02*
X34093Y-63340D01*
X35618Y-63150D02*
X34932Y-64178D01*
X36418Y-63188D02*
X36914Y-63188D01*
X36647Y-63493D01*
X36761Y-63493D01*
X36837Y-63531D01*
X36875Y-63569D01*
X36914Y-63645D01*
X36914Y-63835D01*
X36875Y-63912D01*
X36837Y-63950D01*
X36761Y-63988D01*
X36533Y-63988D01*
X36456Y-63950D01*
X36418Y-63912D01*
X37256Y-63912D02*
X37295Y-63950D01*
X37256Y-63988D01*
X37218Y-63950D01*
X37256Y-63912D01*
X37256Y-63988D01*
X37599Y-63264D02*
X37637Y-63226D01*
X37714Y-63188D01*
X37904Y-63188D01*
X37980Y-63226D01*
X38018Y-63264D01*
X38057Y-63340D01*
X38057Y-63416D01*
X38018Y-63531D01*
X37561Y-63988D01*
X38057Y-63988D01*
X38552Y-63188D02*
X38628Y-63188D01*
X38704Y-63226D01*
X38742Y-63264D01*
X38780Y-63340D01*
X38819Y-63493D01*
X38819Y-63683D01*
X38780Y-63835D01*
X38742Y-63912D01*
X38704Y-63950D01*
X38628Y-63988D01*
X38552Y-63988D01*
X38476Y-63950D01*
X38438Y-63912D01*
X38399Y-63835D01*
X38361Y-63683D01*
X38361Y-63493D01*
X38399Y-63340D01*
X38438Y-63264D01*
X38476Y-63226D01*
X38552Y-63188D01*
X39161Y-63988D02*
X39161Y-63454D01*
X39161Y-63531D02*
X39200Y-63493D01*
X39276Y-63454D01*
X39390Y-63454D01*
X39466Y-63493D01*
X39504Y-63569D01*
X39504Y-63988D01*
X39504Y-63569D02*
X39542Y-63493D01*
X39619Y-63454D01*
X39733Y-63454D01*
X39809Y-63493D01*
X39847Y-63569D01*
X39847Y-63988D01*
X40228Y-63988D02*
X40228Y-63454D01*
X40228Y-63531D02*
X40267Y-63493D01*
X40343Y-63454D01*
X40457Y-63454D01*
X40533Y-63493D01*
X40571Y-63569D01*
X40571Y-63988D01*
X40571Y-63569D02*
X40609Y-63493D01*
X40686Y-63454D01*
X40800Y-63454D01*
X40876Y-63493D01*
X40914Y-63569D01*
X40914Y-63988D01*
X42134Y-64293D02*
X42096Y-64254D01*
X42020Y-64140D01*
X41982Y-64064D01*
X41944Y-63950D01*
X41905Y-63759D01*
X41905Y-63607D01*
X41944Y-63416D01*
X41982Y-63302D01*
X42020Y-63226D01*
X42096Y-63112D01*
X42134Y-63074D01*
X42400Y-63264D02*
X42438Y-63226D01*
X42515Y-63188D01*
X42705Y-63188D01*
X42781Y-63226D01*
X42819Y-63264D01*
X42858Y-63340D01*
X42858Y-63416D01*
X42819Y-63531D01*
X42362Y-63988D01*
X42858Y-63988D01*
X43810Y-63988D02*
X43810Y-63188D01*
X44153Y-63988D02*
X44153Y-63569D01*
X44115Y-63493D01*
X44039Y-63454D01*
X43925Y-63454D01*
X43849Y-63493D01*
X43810Y-63531D01*
X44649Y-63988D02*
X44573Y-63950D01*
X44534Y-63912D01*
X44496Y-63835D01*
X44496Y-63607D01*
X44534Y-63531D01*
X44573Y-63493D01*
X44649Y-63454D01*
X44763Y-63454D01*
X44839Y-63493D01*
X44877Y-63531D01*
X44915Y-63607D01*
X44915Y-63835D01*
X44877Y-63912D01*
X44839Y-63950D01*
X44763Y-63988D01*
X44649Y-63988D01*
X45373Y-63988D02*
X45297Y-63950D01*
X45258Y-63874D01*
X45258Y-63188D01*
X45982Y-63950D02*
X45906Y-63988D01*
X45754Y-63988D01*
X45677Y-63950D01*
X45639Y-63874D01*
X45639Y-63569D01*
X45677Y-63493D01*
X45754Y-63454D01*
X45906Y-63454D01*
X45982Y-63493D01*
X46020Y-63569D01*
X46020Y-63645D01*
X45639Y-63721D01*
X46325Y-63950D02*
X46402Y-63988D01*
X46554Y-63988D01*
X46630Y-63950D01*
X46668Y-63874D01*
X46668Y-63835D01*
X46630Y-63759D01*
X46554Y-63721D01*
X46440Y-63721D01*
X46363Y-63683D01*
X46325Y-63607D01*
X46325Y-63569D01*
X46363Y-63493D01*
X46440Y-63454D01*
X46554Y-63454D01*
X46630Y-63493D01*
X46935Y-64293D02*
X46973Y-64254D01*
X47050Y-64140D01*
X47088Y-64064D01*
X47126Y-63950D01*
X47164Y-63759D01*
X47164Y-63607D01*
X47126Y-63416D01*
X47088Y-63302D01*
X47050Y-63226D01*
X46973Y-63112D01*
X46935Y-63074D01*
M02*
