G04 (created by PCBNEW-RS274X (2011-nov-12)-testing) date Wed 25 Jan 2012 09:16:58 PM EST*
G01*
G70*
G90*
%MOIN*%
G04 Gerber Fmt 3.4, Leading zero omitted, Abs format*
%FSLAX34Y34*%
G04 APERTURE LIST*
%ADD10C,0.006000*%
%ADD11R,0.025000X0.050000*%
%ADD12R,0.047200X0.149600*%
%ADD13R,0.035000X0.055000*%
%ADD14R,0.055000X0.035000*%
%ADD15R,0.047200X0.047200*%
%ADD16R,0.050000X0.020000*%
%ADD17R,0.100000X0.050000*%
%ADD18R,0.041300X0.039400*%
%ADD19R,0.086600X0.041300*%
%ADD20R,0.036000X0.036000*%
G04 APERTURE END LIST*
G54D10*
G54D11*
X16400Y18750D03*
X16750Y18750D03*
X17100Y18750D03*
X18150Y18750D03*
X18500Y18750D03*
X18850Y18750D03*
G54D12*
X09500Y17500D03*
X09500Y15000D03*
X05750Y17500D03*
X05750Y15000D03*
G54D13*
X14875Y15500D03*
X14125Y15500D03*
G54D14*
X29000Y22375D03*
X29000Y21625D03*
G54D13*
X08875Y06850D03*
X08125Y06850D03*
X21125Y08250D03*
X21875Y08250D03*
X21125Y05750D03*
X21875Y05750D03*
G54D14*
X15750Y22375D03*
X15750Y21625D03*
G54D15*
X28000Y21587D03*
X28000Y22413D03*
X10763Y06850D03*
X09937Y06850D03*
X21913Y09250D03*
X21087Y09250D03*
X21913Y07000D03*
X21087Y07000D03*
X14750Y21587D03*
X14750Y22413D03*
G54D16*
X24932Y10815D03*
X24932Y10315D03*
X24932Y09815D03*
X24932Y09315D03*
X24932Y08815D03*
X24932Y08315D03*
X24932Y07815D03*
X24932Y07315D03*
X24932Y06815D03*
X24932Y06315D03*
X23661Y06315D03*
X23661Y06815D03*
X23661Y07315D03*
X23661Y07815D03*
X23661Y08315D03*
X23661Y08815D03*
X23661Y09315D03*
X23661Y09815D03*
X23661Y10315D03*
X23661Y10815D03*
G54D17*
X09550Y05850D03*
X09550Y04850D03*
G54D18*
X21841Y14500D03*
G54D19*
X21250Y15071D03*
X21250Y13929D03*
G54D20*
X11000Y04700D03*
X11000Y05400D03*
X11800Y05050D03*
M02*
