M48
;DRILL file {Pcbnew (2012-01-10 BZR 3351)-testing} date Thursday, January 26, 2012 09:51:17 PM
;FORMAT={-:-/ absolute / inch / decimal}
FMAT,2
INCH,TZ
T1C0.020
T2C0.024
T3C0.031
T4C0.032
T5C0.039
T6C0.060
T7C0.125
T8C0.126
%
G90
G05
M72
T1
X4.260Y4.500
X4.540Y3.230
X4.540Y3.290
X4.650Y3.230
X4.650Y3.280
X4.680Y3.000
X4.760Y4.470
X4.800Y3.350
X4.800Y4.050
X4.860Y3.230
X4.860Y3.290
X4.990Y3.440
X5.025Y4.425
X5.030Y3.480
X5.030Y4.060
X5.070Y3.240
X5.090Y4.080
X5.090Y4.140
X5.090Y4.190
X5.090Y4.240
X5.090Y4.300
X5.100Y3.390
X5.125Y3.550
X5.140Y4.110
X5.140Y4.160
X5.140Y4.210
X5.140Y4.250
X5.140Y4.300
X5.210Y3.780
X5.250Y3.280
X5.250Y4.220
X5.275Y4.600
X5.340Y4.320
X5.365Y3.820
X5.390Y4.170
X5.400Y3.280
X5.440Y3.390
X5.530Y3.990
X5.530Y4.170
X5.530Y4.235
X5.530Y4.310
X5.620Y3.850
X5.650Y3.355
X5.660Y3.920
X5.670Y4.230
X5.670Y4.290
X5.670Y4.350
X5.710Y3.580
X5.730Y4.370
X5.765Y4.185
X5.890Y3.010
T2
X4.090Y3.971
X4.090Y4.049
T3
X5.479Y3.601
X5.479Y3.701
X5.479Y3.798
X5.479Y3.898
X5.530Y3.651
X5.530Y3.848
X5.580Y3.601
X5.580Y3.701
X5.580Y3.798
X5.580Y3.898
T4
X3.850Y3.960
X3.850Y4.060
X4.025Y2.900
X4.040Y3.095
X4.125Y2.900
X4.140Y3.105
X4.225Y2.900
X4.240Y3.095
X4.325Y2.900
X4.340Y3.105
X4.400Y3.445
X4.400Y4.755
X4.400Y4.995
X4.400Y5.175
X4.425Y2.900
X4.440Y3.095
X4.500Y3.455
X4.500Y4.745
X4.500Y5.010
X4.500Y5.175
X4.540Y3.105
X4.600Y3.445
X4.600Y4.755
X4.600Y4.995
X4.600Y5.175
X4.640Y3.095
X4.700Y3.455
X4.700Y4.745
X4.700Y5.005
X4.700Y5.175
X4.740Y3.105
X4.800Y2.900
X4.800Y4.995
X4.800Y5.175
X4.858Y3.963
X4.870Y4.350
X4.870Y4.550
X4.870Y4.750
X4.880Y4.250
X4.880Y4.450
X4.880Y4.650
X4.900Y2.900
X4.900Y3.095
X4.900Y5.005
X4.900Y5.175
X4.950Y3.725
X4.950Y3.835
X4.962Y3.577
X5.000Y2.900
X5.000Y3.105
X5.095Y4.650
X5.095Y4.850
X5.100Y2.900
X5.100Y3.095
X5.100Y4.995
X5.100Y5.175
X5.105Y4.550
X5.105Y4.750
X5.200Y2.900
X5.200Y3.105
X5.200Y3.340
X5.200Y3.440
X5.200Y5.005
X5.200Y5.175
X5.210Y3.875
X5.210Y3.985
X5.300Y2.900
X5.300Y3.095
X5.300Y3.340
X5.300Y3.440
X5.300Y4.995
X5.300Y5.175
X5.400Y2.900
X5.400Y3.105
X5.400Y5.005
X5.400Y5.175
X5.500Y2.900
X5.500Y3.095
X5.500Y4.995
X5.500Y5.175
X5.600Y2.900
X5.600Y3.105
X5.600Y5.005
X5.600Y5.175
X5.700Y4.995
X5.700Y5.175
X5.800Y3.095
X5.800Y5.005
X5.800Y5.175
X5.900Y3.105
X6.000Y3.095
X6.100Y3.105
X6.200Y2.900
X6.200Y3.095
X6.300Y2.900
X6.300Y3.105
T5
X3.970Y3.941
X3.970Y4.079
T6
X4.920Y4.125
T7
X3.650Y5.000
X3.700Y3.100
T8
X5.483Y4.842
X6.881Y3.287
T0
M30
