G04 (created by PCBNEW-RS274X (2011-nov-12)-testing) date Thu 19 Jan 2012 10:10:30 PM EST*
G01*
G70*
G90*
%MOIN*%
G04 Gerber Fmt 3.4, Leading zero omitted, Abs format*
%FSLAX34Y34*%
G04 APERTURE LIST*
%ADD10C,0.006000*%
%ADD11C,0.012000*%
%ADD12C,0.015000*%
%ADD13C,0.005000*%
%ADD14C,0.008000*%
%ADD15C,0.002600*%
%ADD16C,0.004000*%
%ADD17C,0.002000*%
%ADD18C,0.009800*%
%ADD19C,0.009900*%
%ADD20C,0.010700*%
%ADD21C,0.010000*%
%ADD22C,0.003500*%
%ADD23C,0.001300*%
%ADD24C,0.006200*%
%ADD25C,0.007500*%
G04 APERTURE END LIST*
G54D10*
G54D11*
X09400Y11900D02*
X10400Y11900D01*
X10400Y11900D02*
X10400Y09900D01*
X10400Y09900D02*
X09400Y09900D01*
X09400Y09900D02*
X09400Y11900D01*
G54D12*
X08208Y09719D02*
X08208Y09916D01*
X09192Y09916D02*
X09192Y09719D01*
X09192Y12081D02*
X09192Y11884D01*
X08208Y11884D02*
X08208Y12081D01*
G54D11*
X09200Y09703D02*
X08200Y09703D01*
X08200Y09900D02*
X08200Y11900D01*
X08200Y12097D02*
X09200Y12097D01*
X09200Y11900D02*
X09200Y09900D01*
X20500Y06000D02*
X20500Y06000D01*
X19500Y06000D02*
X20500Y06000D01*
X20500Y06000D02*
X20500Y06000D01*
X20500Y06000D02*
X20500Y02000D01*
X20500Y02000D02*
X19500Y02000D01*
X19500Y02000D02*
X19500Y06000D01*
X19500Y05000D02*
X20500Y05000D01*
X17250Y09000D02*
X18250Y09000D01*
X18250Y09000D02*
X18250Y03000D01*
X18250Y03000D02*
X17250Y03000D01*
X17250Y03000D02*
X17250Y09000D01*
X17250Y08000D02*
X18250Y08000D01*
G54D13*
X12250Y02250D02*
X12226Y02008D01*
X12155Y01774D01*
X12041Y01559D01*
X11886Y01370D01*
X11698Y01214D01*
X11484Y01098D01*
X11251Y01026D01*
X11008Y01001D01*
X10766Y01023D01*
X10532Y01092D01*
X10316Y01205D01*
X10126Y01357D01*
X09969Y01544D01*
X09852Y01758D01*
X09778Y01991D01*
X09751Y02233D01*
X09771Y02475D01*
X09838Y02710D01*
X09950Y02927D01*
X10101Y03118D01*
X10287Y03276D01*
X10500Y03395D01*
X10732Y03470D01*
X10974Y03499D01*
X11217Y03481D01*
X11452Y03415D01*
X11669Y03305D01*
X11862Y03155D01*
X12021Y02970D01*
X12141Y02758D01*
X12218Y02526D01*
X12249Y02284D01*
X12250Y02250D01*
X09250Y02250D02*
X09226Y02008D01*
X09155Y01774D01*
X09041Y01559D01*
X08886Y01370D01*
X08698Y01214D01*
X08484Y01098D01*
X08251Y01026D01*
X08008Y01001D01*
X07766Y01023D01*
X07532Y01092D01*
X07316Y01205D01*
X07126Y01357D01*
X06969Y01544D01*
X06852Y01758D01*
X06778Y01991D01*
X06751Y02233D01*
X06771Y02475D01*
X06838Y02710D01*
X06950Y02927D01*
X07101Y03118D01*
X07287Y03276D01*
X07500Y03395D01*
X07732Y03470D01*
X07974Y03499D01*
X08217Y03481D01*
X08452Y03415D01*
X08669Y03305D01*
X08862Y03155D01*
X09021Y02970D01*
X09141Y02758D01*
X09218Y02526D01*
X09249Y02284D01*
X09250Y02250D01*
X00000Y05000D02*
X04750Y05000D01*
X04750Y05000D02*
X04750Y00000D01*
X00000Y17500D02*
X03750Y17500D01*
X03750Y17500D02*
X03750Y12500D01*
X03750Y12500D02*
X00000Y12500D01*
X24550Y12500D02*
X24550Y09500D01*
X24550Y09500D02*
X26550Y09500D01*
X26550Y09500D02*
X26550Y12500D01*
X26550Y12500D02*
X24550Y12500D01*
X30000Y11000D02*
X29984Y10845D01*
X29939Y10696D01*
X29866Y10558D01*
X29767Y10437D01*
X29647Y10337D01*
X29510Y10263D01*
X29360Y10217D01*
X29205Y10201D01*
X29051Y10215D01*
X28901Y10259D01*
X28762Y10331D01*
X28641Y10429D01*
X28540Y10549D01*
X28465Y10685D01*
X28418Y10834D01*
X28401Y10989D01*
X28414Y11144D01*
X28457Y11294D01*
X28528Y11433D01*
X28625Y11555D01*
X28744Y11656D01*
X28880Y11733D01*
X29029Y11781D01*
X29184Y11799D01*
X29338Y11787D01*
X29489Y11745D01*
X29628Y11675D01*
X29751Y11579D01*
X29853Y11461D01*
X29930Y11325D01*
X29980Y11177D01*
X29999Y11022D01*
X30000Y11000D01*
G54D12*
X39000Y00000D02*
X00000Y00000D01*
X38500Y21000D02*
X00000Y21000D01*
X39000Y16000D02*
X39000Y20500D01*
X39000Y20500D02*
X38500Y21000D01*
X00000Y00000D02*
X00000Y21000D01*
X39000Y16000D02*
X40000Y15000D01*
X40000Y15000D02*
X40000Y02000D01*
X40000Y02000D02*
X39000Y01000D01*
X39000Y01000D02*
X39000Y00000D01*
G54D10*
X17250Y18350D02*
X16250Y18350D01*
X17350Y18450D02*
X17350Y19050D01*
X16150Y18450D02*
X16150Y19050D01*
X16250Y19150D02*
X17250Y19150D01*
X17350Y19050D02*
X17349Y19058D01*
X17348Y19067D01*
X17346Y19075D01*
X17343Y19084D01*
X17340Y19092D01*
X17336Y19099D01*
X17331Y19107D01*
X17326Y19114D01*
X17320Y19120D01*
X17314Y19126D01*
X17307Y19131D01*
X17300Y19136D01*
X17292Y19140D01*
X17284Y19143D01*
X17275Y19146D01*
X17267Y19148D01*
X17258Y19149D01*
X17250Y19150D01*
X16250Y19150D02*
X16242Y19149D01*
X16233Y19148D01*
X16225Y19146D01*
X16216Y19143D01*
X16208Y19140D01*
X16201Y19136D01*
X16193Y19131D01*
X16186Y19126D01*
X16180Y19120D01*
X16174Y19114D01*
X16169Y19107D01*
X16164Y19099D01*
X16160Y19092D01*
X16157Y19084D01*
X16154Y19075D01*
X16152Y19067D01*
X16151Y19058D01*
X16150Y19050D01*
X16150Y18450D02*
X16151Y18442D01*
X16152Y18433D01*
X16154Y18425D01*
X16157Y18416D01*
X16160Y18408D01*
X16164Y18401D01*
X16169Y18393D01*
X16174Y18386D01*
X16180Y18380D01*
X16186Y18374D01*
X16193Y18369D01*
X16201Y18364D01*
X16208Y18360D01*
X16216Y18357D01*
X16225Y18354D01*
X16233Y18352D01*
X16242Y18351D01*
X16250Y18350D01*
X17250Y18350D02*
X17258Y18351D01*
X17267Y18352D01*
X17275Y18354D01*
X17284Y18357D01*
X17292Y18360D01*
X17300Y18364D01*
X17307Y18369D01*
X17314Y18374D01*
X17320Y18380D01*
X17326Y18386D01*
X17331Y18393D01*
X17336Y18401D01*
X17340Y18408D01*
X17343Y18416D01*
X17346Y18425D01*
X17348Y18433D01*
X17349Y18442D01*
X17350Y18450D01*
X19000Y18350D02*
X18000Y18350D01*
X19100Y18450D02*
X19100Y19050D01*
X17900Y18450D02*
X17900Y19050D01*
X18000Y19150D02*
X19000Y19150D01*
X19100Y19050D02*
X19099Y19058D01*
X19098Y19067D01*
X19096Y19075D01*
X19093Y19084D01*
X19090Y19092D01*
X19086Y19099D01*
X19081Y19107D01*
X19076Y19114D01*
X19070Y19120D01*
X19064Y19126D01*
X19057Y19131D01*
X19050Y19136D01*
X19042Y19140D01*
X19034Y19143D01*
X19025Y19146D01*
X19017Y19148D01*
X19008Y19149D01*
X19000Y19150D01*
X18000Y19150D02*
X17992Y19149D01*
X17983Y19148D01*
X17975Y19146D01*
X17966Y19143D01*
X17958Y19140D01*
X17951Y19136D01*
X17943Y19131D01*
X17936Y19126D01*
X17930Y19120D01*
X17924Y19114D01*
X17919Y19107D01*
X17914Y19099D01*
X17910Y19092D01*
X17907Y19084D01*
X17904Y19075D01*
X17902Y19067D01*
X17901Y19058D01*
X17900Y19050D01*
X17900Y18450D02*
X17901Y18442D01*
X17902Y18433D01*
X17904Y18425D01*
X17907Y18416D01*
X17910Y18408D01*
X17914Y18401D01*
X17919Y18393D01*
X17924Y18386D01*
X17930Y18380D01*
X17936Y18374D01*
X17943Y18369D01*
X17951Y18364D01*
X17958Y18360D01*
X17966Y18357D01*
X17975Y18354D01*
X17983Y18352D01*
X17992Y18351D01*
X18000Y18350D01*
X19000Y18350D02*
X19008Y18351D01*
X19017Y18352D01*
X19025Y18354D01*
X19034Y18357D01*
X19042Y18360D01*
X19050Y18364D01*
X19057Y18369D01*
X19064Y18374D01*
X19070Y18380D01*
X19076Y18386D01*
X19081Y18393D01*
X19086Y18401D01*
X19090Y18408D01*
X19093Y18416D01*
X19096Y18425D01*
X19098Y18433D01*
X19099Y18442D01*
X19100Y18450D01*
G54D14*
X10850Y18000D02*
X09900Y18000D01*
X08100Y18000D02*
X09100Y18000D01*
X07750Y14500D02*
X09100Y14500D01*
X11250Y14500D02*
X09900Y14500D01*
X11250Y16250D02*
X11250Y14500D01*
X07750Y14500D02*
X07750Y17650D01*
X07750Y17650D02*
X08100Y18000D01*
X10900Y18000D02*
X11250Y17650D01*
X11250Y17650D02*
X11250Y16250D01*
X11100Y16250D02*
X11069Y15940D01*
X10979Y15641D01*
X10832Y15365D01*
X10635Y15123D01*
X10394Y14924D01*
X10120Y14776D01*
X09821Y14683D01*
X09511Y14651D01*
X09201Y14679D01*
X08901Y14767D01*
X08624Y14912D01*
X08381Y15107D01*
X08180Y15347D01*
X08030Y15620D01*
X07935Y15918D01*
X07901Y16228D01*
X07927Y16538D01*
X08013Y16838D01*
X08156Y17116D01*
X08350Y17361D01*
X08587Y17563D01*
X08860Y17716D01*
X09157Y17812D01*
X09467Y17849D01*
X09777Y17825D01*
X10078Y17741D01*
X10357Y17600D01*
X10603Y17408D01*
X10807Y17172D01*
X10961Y16900D01*
X11060Y16604D01*
X11099Y16294D01*
X11100Y16250D01*
X07100Y18000D02*
X06150Y18000D01*
X04350Y18000D02*
X05350Y18000D01*
X04000Y14500D02*
X05350Y14500D01*
X07500Y14500D02*
X06150Y14500D01*
X07500Y16250D02*
X07500Y14500D01*
X04000Y14500D02*
X04000Y17650D01*
X04000Y17650D02*
X04350Y18000D01*
X07150Y18000D02*
X07500Y17650D01*
X07500Y17650D02*
X07500Y16250D01*
X07350Y16250D02*
X07319Y15940D01*
X07229Y15641D01*
X07082Y15365D01*
X06885Y15123D01*
X06644Y14924D01*
X06370Y14776D01*
X06071Y14683D01*
X05761Y14651D01*
X05451Y14679D01*
X05151Y14767D01*
X04874Y14912D01*
X04631Y15107D01*
X04430Y15347D01*
X04280Y15620D01*
X04185Y15918D01*
X04151Y16228D01*
X04177Y16538D01*
X04263Y16838D01*
X04406Y17116D01*
X04600Y17361D01*
X04837Y17563D01*
X05110Y17716D01*
X05407Y17812D01*
X05717Y17849D01*
X06027Y17825D01*
X06328Y17741D01*
X06607Y17600D01*
X06853Y17408D01*
X07057Y17172D01*
X07211Y16900D01*
X07310Y16604D01*
X07349Y16294D01*
X07350Y16250D01*
G54D13*
X15200Y15800D02*
X15199Y15791D01*
X15196Y15781D01*
X15191Y15773D01*
X15185Y15765D01*
X15177Y15759D01*
X15169Y15754D01*
X15160Y15752D01*
X15150Y15751D01*
X15141Y15751D01*
X15132Y15754D01*
X15123Y15759D01*
X15116Y15765D01*
X15109Y15772D01*
X15105Y15781D01*
X15102Y15790D01*
X15101Y15800D01*
X15101Y15809D01*
X15104Y15818D01*
X15108Y15827D01*
X15115Y15834D01*
X15122Y15841D01*
X15130Y15845D01*
X15140Y15848D01*
X15149Y15849D01*
X15158Y15849D01*
X15168Y15846D01*
X15176Y15842D01*
X15184Y15836D01*
X15190Y15828D01*
X15195Y15820D01*
X15198Y15811D01*
X15199Y15801D01*
X15200Y15800D01*
X14700Y15800D02*
X15100Y15800D01*
X15100Y15800D02*
X15100Y15200D01*
X15100Y15200D02*
X14700Y15200D01*
X14300Y15200D02*
X13900Y15200D01*
X13900Y15200D02*
X13900Y15800D01*
X13900Y15800D02*
X14300Y15800D01*
X28750Y22650D02*
X28749Y22641D01*
X28746Y22631D01*
X28741Y22623D01*
X28735Y22615D01*
X28727Y22609D01*
X28719Y22604D01*
X28710Y22602D01*
X28700Y22601D01*
X28691Y22601D01*
X28682Y22604D01*
X28673Y22609D01*
X28666Y22615D01*
X28659Y22622D01*
X28655Y22631D01*
X28652Y22640D01*
X28651Y22650D01*
X28651Y22659D01*
X28654Y22668D01*
X28658Y22677D01*
X28665Y22684D01*
X28672Y22691D01*
X28680Y22695D01*
X28690Y22698D01*
X28699Y22699D01*
X28708Y22699D01*
X28718Y22696D01*
X28726Y22692D01*
X28734Y22686D01*
X28740Y22678D01*
X28745Y22670D01*
X28748Y22661D01*
X28749Y22651D01*
X28750Y22650D01*
X28700Y22200D02*
X28700Y22600D01*
X28700Y22600D02*
X29300Y22600D01*
X29300Y22600D02*
X29300Y22200D01*
X29300Y21800D02*
X29300Y21400D01*
X29300Y21400D02*
X28700Y21400D01*
X28700Y21400D02*
X28700Y21800D01*
X09200Y07150D02*
X09199Y07141D01*
X09196Y07131D01*
X09191Y07123D01*
X09185Y07115D01*
X09177Y07109D01*
X09169Y07104D01*
X09160Y07102D01*
X09150Y07101D01*
X09141Y07101D01*
X09132Y07104D01*
X09123Y07109D01*
X09116Y07115D01*
X09109Y07122D01*
X09105Y07131D01*
X09102Y07140D01*
X09101Y07150D01*
X09101Y07159D01*
X09104Y07168D01*
X09108Y07177D01*
X09115Y07184D01*
X09122Y07191D01*
X09130Y07195D01*
X09140Y07198D01*
X09149Y07199D01*
X09158Y07199D01*
X09168Y07196D01*
X09176Y07192D01*
X09184Y07186D01*
X09190Y07178D01*
X09195Y07170D01*
X09198Y07161D01*
X09199Y07151D01*
X09200Y07150D01*
X08700Y07150D02*
X09100Y07150D01*
X09100Y07150D02*
X09100Y06550D01*
X09100Y06550D02*
X08700Y06550D01*
X08300Y06550D02*
X07900Y06550D01*
X07900Y06550D02*
X07900Y07150D01*
X07900Y07150D02*
X08300Y07150D01*
X20900Y07950D02*
X20899Y07941D01*
X20896Y07931D01*
X20891Y07923D01*
X20885Y07915D01*
X20877Y07909D01*
X20869Y07904D01*
X20860Y07902D01*
X20850Y07901D01*
X20841Y07901D01*
X20832Y07904D01*
X20823Y07909D01*
X20816Y07915D01*
X20809Y07922D01*
X20805Y07931D01*
X20802Y07940D01*
X20801Y07950D01*
X20801Y07959D01*
X20804Y07968D01*
X20808Y07977D01*
X20815Y07984D01*
X20822Y07991D01*
X20830Y07995D01*
X20840Y07998D01*
X20849Y07999D01*
X20858Y07999D01*
X20868Y07996D01*
X20876Y07992D01*
X20884Y07986D01*
X20890Y07978D01*
X20895Y07970D01*
X20898Y07961D01*
X20899Y07951D01*
X20900Y07950D01*
X21300Y07950D02*
X20900Y07950D01*
X20900Y07950D02*
X20900Y08550D01*
X20900Y08550D02*
X21300Y08550D01*
X21700Y08550D02*
X22100Y08550D01*
X22100Y08550D02*
X22100Y07950D01*
X22100Y07950D02*
X21700Y07950D01*
X20900Y05450D02*
X20899Y05441D01*
X20896Y05431D01*
X20891Y05423D01*
X20885Y05415D01*
X20877Y05409D01*
X20869Y05404D01*
X20860Y05402D01*
X20850Y05401D01*
X20841Y05401D01*
X20832Y05404D01*
X20823Y05409D01*
X20816Y05415D01*
X20809Y05422D01*
X20805Y05431D01*
X20802Y05440D01*
X20801Y05450D01*
X20801Y05459D01*
X20804Y05468D01*
X20808Y05477D01*
X20815Y05484D01*
X20822Y05491D01*
X20830Y05495D01*
X20840Y05498D01*
X20849Y05499D01*
X20858Y05499D01*
X20868Y05496D01*
X20876Y05492D01*
X20884Y05486D01*
X20890Y05478D01*
X20895Y05470D01*
X20898Y05461D01*
X20899Y05451D01*
X20900Y05450D01*
X21300Y05450D02*
X20900Y05450D01*
X20900Y05450D02*
X20900Y06050D01*
X20900Y06050D02*
X21300Y06050D01*
X21700Y06050D02*
X22100Y06050D01*
X22100Y06050D02*
X22100Y05450D01*
X22100Y05450D02*
X21700Y05450D01*
X15500Y22650D02*
X15499Y22641D01*
X15496Y22631D01*
X15491Y22623D01*
X15485Y22615D01*
X15477Y22609D01*
X15469Y22604D01*
X15460Y22602D01*
X15450Y22601D01*
X15441Y22601D01*
X15432Y22604D01*
X15423Y22609D01*
X15416Y22615D01*
X15409Y22622D01*
X15405Y22631D01*
X15402Y22640D01*
X15401Y22650D01*
X15401Y22659D01*
X15404Y22668D01*
X15408Y22677D01*
X15415Y22684D01*
X15422Y22691D01*
X15430Y22695D01*
X15440Y22698D01*
X15449Y22699D01*
X15458Y22699D01*
X15468Y22696D01*
X15476Y22692D01*
X15484Y22686D01*
X15490Y22678D01*
X15495Y22670D01*
X15498Y22661D01*
X15499Y22651D01*
X15500Y22650D01*
X15450Y22200D02*
X15450Y22600D01*
X15450Y22600D02*
X16050Y22600D01*
X16050Y22600D02*
X16050Y22200D01*
X16050Y21800D02*
X16050Y21400D01*
X16050Y21400D02*
X15450Y21400D01*
X15450Y21400D02*
X15450Y21800D01*
G54D15*
X28118Y22196D02*
X28246Y22196D01*
X28246Y22196D02*
X28246Y22393D01*
X28118Y22393D02*
X28246Y22393D01*
X28118Y22196D02*
X28118Y22393D01*
X27873Y22196D02*
X27932Y22196D01*
X27932Y22196D02*
X27932Y22295D01*
X27873Y22295D02*
X27932Y22295D01*
X27873Y22196D02*
X27873Y22295D01*
X28068Y22196D02*
X28127Y22196D01*
X28127Y22196D02*
X28127Y22295D01*
X28068Y22295D02*
X28127Y22295D01*
X28068Y22196D02*
X28068Y22295D01*
X27922Y22196D02*
X28078Y22196D01*
X28078Y22196D02*
X28078Y22265D01*
X27922Y22265D02*
X28078Y22265D01*
X27922Y22196D02*
X27922Y22265D01*
X28118Y21607D02*
X28246Y21607D01*
X28246Y21607D02*
X28246Y21804D01*
X28118Y21804D02*
X28246Y21804D01*
X28118Y21607D02*
X28118Y21804D01*
X27754Y21607D02*
X27882Y21607D01*
X27882Y21607D02*
X27882Y21804D01*
X27754Y21804D02*
X27882Y21804D01*
X27754Y21607D02*
X27754Y21804D01*
X28068Y21705D02*
X28127Y21705D01*
X28127Y21705D02*
X28127Y21804D01*
X28068Y21804D02*
X28127Y21804D01*
X28068Y21705D02*
X28068Y21804D01*
X27873Y21705D02*
X27932Y21705D01*
X27932Y21705D02*
X27932Y21804D01*
X27873Y21804D02*
X27932Y21804D01*
X27873Y21705D02*
X27873Y21804D01*
X27922Y21735D02*
X28078Y21735D01*
X28078Y21735D02*
X28078Y21804D01*
X27922Y21804D02*
X28078Y21804D01*
X27922Y21735D02*
X27922Y21804D01*
X27961Y22000D02*
X28039Y22000D01*
X28039Y22000D02*
X28039Y22078D01*
X27961Y22078D02*
X28039Y22078D01*
X27961Y22000D02*
X27961Y22078D01*
X27764Y22196D02*
X27882Y22196D01*
X27882Y22196D02*
X27882Y22314D01*
X27764Y22314D02*
X27882Y22314D01*
X27764Y22196D02*
X27764Y22314D01*
X27754Y22364D02*
X27843Y22364D01*
X27843Y22364D02*
X27843Y22393D01*
X27754Y22393D02*
X27843Y22393D01*
X27754Y22364D02*
X27754Y22393D01*
G54D16*
X28226Y22206D02*
X28226Y21794D01*
X27774Y21804D02*
X27774Y22364D01*
G54D17*
X27851Y22334D02*
X27850Y22329D01*
X27848Y22324D01*
X27846Y22319D01*
X27842Y22315D01*
X27838Y22311D01*
X27833Y22309D01*
X27828Y22307D01*
X27823Y22307D01*
X27818Y22307D01*
X27813Y22309D01*
X27808Y22311D01*
X27804Y22314D01*
X27800Y22319D01*
X27798Y22323D01*
X27796Y22329D01*
X27796Y22334D01*
X27796Y22339D01*
X27797Y22344D01*
X27800Y22349D01*
X27803Y22353D01*
X27808Y22356D01*
X27812Y22359D01*
X27817Y22361D01*
X27823Y22361D01*
X27827Y22361D01*
X27833Y22360D01*
X27838Y22357D01*
X27842Y22354D01*
X27845Y22350D01*
X27848Y22345D01*
X27850Y22340D01*
X27850Y22334D01*
X27851Y22334D01*
G54D16*
X27863Y22393D02*
X27864Y22382D01*
X27866Y22370D01*
X27868Y22358D01*
X27872Y22347D01*
X27876Y22336D01*
X27882Y22325D01*
X27888Y22315D01*
X27896Y22305D01*
X27904Y22297D01*
X27912Y22289D01*
X27922Y22281D01*
X27932Y22275D01*
X27943Y22269D01*
X27954Y22265D01*
X27965Y22261D01*
X27977Y22259D01*
X27989Y22257D01*
X28000Y22256D01*
X28011Y22257D01*
X28023Y22259D01*
X28035Y22261D01*
X28046Y22265D01*
X28057Y22269D01*
X28068Y22275D01*
X28078Y22281D01*
X28088Y22289D01*
X28096Y22297D01*
X28104Y22305D01*
X28112Y22315D01*
X28118Y22325D01*
X28124Y22336D01*
X28128Y22347D01*
X28132Y22358D01*
X28134Y22370D01*
X28136Y22382D01*
X28137Y22393D01*
X28137Y21607D02*
X28136Y21618D01*
X28134Y21630D01*
X28132Y21642D01*
X28128Y21653D01*
X28124Y21664D01*
X28118Y21675D01*
X28112Y21685D01*
X28104Y21695D01*
X28096Y21703D01*
X28088Y21711D01*
X28078Y21719D01*
X28068Y21725D01*
X28057Y21731D01*
X28046Y21735D01*
X28035Y21739D01*
X28023Y21741D01*
X28011Y21743D01*
X28000Y21744D01*
X27989Y21743D01*
X27977Y21741D01*
X27965Y21739D01*
X27954Y21735D01*
X27943Y21731D01*
X27932Y21725D01*
X27922Y21719D01*
X27912Y21711D01*
X27904Y21703D01*
X27896Y21695D01*
X27888Y21685D01*
X27882Y21675D01*
X27876Y21664D01*
X27872Y21653D01*
X27868Y21642D01*
X27866Y21630D01*
X27864Y21618D01*
X27863Y21607D01*
G54D15*
X10154Y06968D02*
X10154Y07096D01*
X10154Y07096D02*
X09957Y07096D01*
X09957Y06968D02*
X09957Y07096D01*
X10154Y06968D02*
X09957Y06968D01*
X10154Y06723D02*
X10154Y06782D01*
X10154Y06782D02*
X10055Y06782D01*
X10055Y06723D02*
X10055Y06782D01*
X10154Y06723D02*
X10055Y06723D01*
X10154Y06918D02*
X10154Y06977D01*
X10154Y06977D02*
X10055Y06977D01*
X10055Y06918D02*
X10055Y06977D01*
X10154Y06918D02*
X10055Y06918D01*
X10154Y06772D02*
X10154Y06928D01*
X10154Y06928D02*
X10085Y06928D01*
X10085Y06772D02*
X10085Y06928D01*
X10154Y06772D02*
X10085Y06772D01*
X10743Y06968D02*
X10743Y07096D01*
X10743Y07096D02*
X10546Y07096D01*
X10546Y06968D02*
X10546Y07096D01*
X10743Y06968D02*
X10546Y06968D01*
X10743Y06604D02*
X10743Y06732D01*
X10743Y06732D02*
X10546Y06732D01*
X10546Y06604D02*
X10546Y06732D01*
X10743Y06604D02*
X10546Y06604D01*
X10645Y06918D02*
X10645Y06977D01*
X10645Y06977D02*
X10546Y06977D01*
X10546Y06918D02*
X10546Y06977D01*
X10645Y06918D02*
X10546Y06918D01*
X10645Y06723D02*
X10645Y06782D01*
X10645Y06782D02*
X10546Y06782D01*
X10546Y06723D02*
X10546Y06782D01*
X10645Y06723D02*
X10546Y06723D01*
X10615Y06772D02*
X10615Y06928D01*
X10615Y06928D02*
X10546Y06928D01*
X10546Y06772D02*
X10546Y06928D01*
X10615Y06772D02*
X10546Y06772D01*
X10350Y06811D02*
X10350Y06889D01*
X10350Y06889D02*
X10272Y06889D01*
X10272Y06811D02*
X10272Y06889D01*
X10350Y06811D02*
X10272Y06811D01*
X10154Y06614D02*
X10154Y06732D01*
X10154Y06732D02*
X10036Y06732D01*
X10036Y06614D02*
X10036Y06732D01*
X10154Y06614D02*
X10036Y06614D01*
X09986Y06604D02*
X09986Y06693D01*
X09986Y06693D02*
X09957Y06693D01*
X09957Y06604D02*
X09957Y06693D01*
X09986Y06604D02*
X09957Y06604D01*
G54D16*
X10144Y07076D02*
X10556Y07076D01*
X10546Y06624D02*
X09986Y06624D01*
G54D17*
X10044Y06673D02*
X10043Y06668D01*
X10041Y06663D01*
X10039Y06658D01*
X10035Y06654D01*
X10031Y06650D01*
X10026Y06648D01*
X10021Y06646D01*
X10016Y06646D01*
X10011Y06646D01*
X10006Y06648D01*
X10001Y06650D01*
X09997Y06653D01*
X09993Y06658D01*
X09991Y06662D01*
X09989Y06668D01*
X09989Y06673D01*
X09989Y06678D01*
X09990Y06683D01*
X09993Y06688D01*
X09996Y06692D01*
X10001Y06695D01*
X10005Y06698D01*
X10010Y06700D01*
X10016Y06700D01*
X10020Y06700D01*
X10026Y06699D01*
X10031Y06696D01*
X10035Y06693D01*
X10038Y06689D01*
X10041Y06684D01*
X10043Y06679D01*
X10043Y06673D01*
X10044Y06673D01*
G54D16*
X09957Y06713D02*
X09968Y06714D01*
X09980Y06716D01*
X09992Y06718D01*
X10003Y06722D01*
X10014Y06726D01*
X10025Y06732D01*
X10035Y06738D01*
X10045Y06746D01*
X10053Y06754D01*
X10061Y06762D01*
X10069Y06772D01*
X10075Y06782D01*
X10081Y06793D01*
X10085Y06804D01*
X10089Y06815D01*
X10091Y06827D01*
X10093Y06839D01*
X10094Y06850D01*
X10093Y06861D01*
X10091Y06873D01*
X10089Y06885D01*
X10085Y06896D01*
X10081Y06907D01*
X10075Y06918D01*
X10069Y06928D01*
X10061Y06938D01*
X10053Y06946D01*
X10045Y06954D01*
X10035Y06962D01*
X10025Y06968D01*
X10014Y06974D01*
X10003Y06978D01*
X09992Y06982D01*
X09980Y06984D01*
X09968Y06986D01*
X09957Y06987D01*
X10743Y06987D02*
X10732Y06986D01*
X10720Y06984D01*
X10708Y06982D01*
X10697Y06978D01*
X10686Y06974D01*
X10675Y06968D01*
X10665Y06962D01*
X10655Y06954D01*
X10647Y06946D01*
X10639Y06938D01*
X10631Y06928D01*
X10625Y06918D01*
X10619Y06907D01*
X10615Y06896D01*
X10611Y06885D01*
X10609Y06873D01*
X10607Y06861D01*
X10606Y06850D01*
X10607Y06839D01*
X10609Y06827D01*
X10611Y06815D01*
X10615Y06804D01*
X10619Y06793D01*
X10625Y06782D01*
X10631Y06772D01*
X10639Y06762D01*
X10647Y06754D01*
X10655Y06746D01*
X10665Y06738D01*
X10675Y06732D01*
X10686Y06726D01*
X10697Y06722D01*
X10708Y06718D01*
X10720Y06716D01*
X10732Y06714D01*
X10743Y06713D01*
G54D15*
X21304Y09368D02*
X21304Y09496D01*
X21304Y09496D02*
X21107Y09496D01*
X21107Y09368D02*
X21107Y09496D01*
X21304Y09368D02*
X21107Y09368D01*
X21304Y09123D02*
X21304Y09182D01*
X21304Y09182D02*
X21205Y09182D01*
X21205Y09123D02*
X21205Y09182D01*
X21304Y09123D02*
X21205Y09123D01*
X21304Y09318D02*
X21304Y09377D01*
X21304Y09377D02*
X21205Y09377D01*
X21205Y09318D02*
X21205Y09377D01*
X21304Y09318D02*
X21205Y09318D01*
X21304Y09172D02*
X21304Y09328D01*
X21304Y09328D02*
X21235Y09328D01*
X21235Y09172D02*
X21235Y09328D01*
X21304Y09172D02*
X21235Y09172D01*
X21893Y09368D02*
X21893Y09496D01*
X21893Y09496D02*
X21696Y09496D01*
X21696Y09368D02*
X21696Y09496D01*
X21893Y09368D02*
X21696Y09368D01*
X21893Y09004D02*
X21893Y09132D01*
X21893Y09132D02*
X21696Y09132D01*
X21696Y09004D02*
X21696Y09132D01*
X21893Y09004D02*
X21696Y09004D01*
X21795Y09318D02*
X21795Y09377D01*
X21795Y09377D02*
X21696Y09377D01*
X21696Y09318D02*
X21696Y09377D01*
X21795Y09318D02*
X21696Y09318D01*
X21795Y09123D02*
X21795Y09182D01*
X21795Y09182D02*
X21696Y09182D01*
X21696Y09123D02*
X21696Y09182D01*
X21795Y09123D02*
X21696Y09123D01*
X21765Y09172D02*
X21765Y09328D01*
X21765Y09328D02*
X21696Y09328D01*
X21696Y09172D02*
X21696Y09328D01*
X21765Y09172D02*
X21696Y09172D01*
X21500Y09211D02*
X21500Y09289D01*
X21500Y09289D02*
X21422Y09289D01*
X21422Y09211D02*
X21422Y09289D01*
X21500Y09211D02*
X21422Y09211D01*
X21304Y09014D02*
X21304Y09132D01*
X21304Y09132D02*
X21186Y09132D01*
X21186Y09014D02*
X21186Y09132D01*
X21304Y09014D02*
X21186Y09014D01*
X21136Y09004D02*
X21136Y09093D01*
X21136Y09093D02*
X21107Y09093D01*
X21107Y09004D02*
X21107Y09093D01*
X21136Y09004D02*
X21107Y09004D01*
G54D16*
X21294Y09476D02*
X21706Y09476D01*
X21696Y09024D02*
X21136Y09024D01*
G54D17*
X21194Y09073D02*
X21193Y09068D01*
X21191Y09063D01*
X21189Y09058D01*
X21185Y09054D01*
X21181Y09050D01*
X21176Y09048D01*
X21171Y09046D01*
X21166Y09046D01*
X21161Y09046D01*
X21156Y09048D01*
X21151Y09050D01*
X21147Y09053D01*
X21143Y09058D01*
X21141Y09062D01*
X21139Y09068D01*
X21139Y09073D01*
X21139Y09078D01*
X21140Y09083D01*
X21143Y09088D01*
X21146Y09092D01*
X21151Y09095D01*
X21155Y09098D01*
X21160Y09100D01*
X21166Y09100D01*
X21170Y09100D01*
X21176Y09099D01*
X21181Y09096D01*
X21185Y09093D01*
X21188Y09089D01*
X21191Y09084D01*
X21193Y09079D01*
X21193Y09073D01*
X21194Y09073D01*
G54D16*
X21107Y09113D02*
X21118Y09114D01*
X21130Y09116D01*
X21142Y09118D01*
X21153Y09122D01*
X21164Y09126D01*
X21175Y09132D01*
X21185Y09138D01*
X21195Y09146D01*
X21203Y09154D01*
X21211Y09162D01*
X21219Y09172D01*
X21225Y09182D01*
X21231Y09193D01*
X21235Y09204D01*
X21239Y09215D01*
X21241Y09227D01*
X21243Y09239D01*
X21244Y09250D01*
X21243Y09261D01*
X21241Y09273D01*
X21239Y09285D01*
X21235Y09296D01*
X21231Y09307D01*
X21225Y09318D01*
X21219Y09328D01*
X21211Y09338D01*
X21203Y09346D01*
X21195Y09354D01*
X21185Y09362D01*
X21175Y09368D01*
X21164Y09374D01*
X21153Y09378D01*
X21142Y09382D01*
X21130Y09384D01*
X21118Y09386D01*
X21107Y09387D01*
X21893Y09387D02*
X21882Y09386D01*
X21870Y09384D01*
X21858Y09382D01*
X21847Y09378D01*
X21836Y09374D01*
X21825Y09368D01*
X21815Y09362D01*
X21805Y09354D01*
X21797Y09346D01*
X21789Y09338D01*
X21781Y09328D01*
X21775Y09318D01*
X21769Y09307D01*
X21765Y09296D01*
X21761Y09285D01*
X21759Y09273D01*
X21757Y09261D01*
X21756Y09250D01*
X21757Y09239D01*
X21759Y09227D01*
X21761Y09215D01*
X21765Y09204D01*
X21769Y09193D01*
X21775Y09182D01*
X21781Y09172D01*
X21789Y09162D01*
X21797Y09154D01*
X21805Y09146D01*
X21815Y09138D01*
X21825Y09132D01*
X21836Y09126D01*
X21847Y09122D01*
X21858Y09118D01*
X21870Y09116D01*
X21882Y09114D01*
X21893Y09113D01*
G54D15*
X21304Y07118D02*
X21304Y07246D01*
X21304Y07246D02*
X21107Y07246D01*
X21107Y07118D02*
X21107Y07246D01*
X21304Y07118D02*
X21107Y07118D01*
X21304Y06873D02*
X21304Y06932D01*
X21304Y06932D02*
X21205Y06932D01*
X21205Y06873D02*
X21205Y06932D01*
X21304Y06873D02*
X21205Y06873D01*
X21304Y07068D02*
X21304Y07127D01*
X21304Y07127D02*
X21205Y07127D01*
X21205Y07068D02*
X21205Y07127D01*
X21304Y07068D02*
X21205Y07068D01*
X21304Y06922D02*
X21304Y07078D01*
X21304Y07078D02*
X21235Y07078D01*
X21235Y06922D02*
X21235Y07078D01*
X21304Y06922D02*
X21235Y06922D01*
X21893Y07118D02*
X21893Y07246D01*
X21893Y07246D02*
X21696Y07246D01*
X21696Y07118D02*
X21696Y07246D01*
X21893Y07118D02*
X21696Y07118D01*
X21893Y06754D02*
X21893Y06882D01*
X21893Y06882D02*
X21696Y06882D01*
X21696Y06754D02*
X21696Y06882D01*
X21893Y06754D02*
X21696Y06754D01*
X21795Y07068D02*
X21795Y07127D01*
X21795Y07127D02*
X21696Y07127D01*
X21696Y07068D02*
X21696Y07127D01*
X21795Y07068D02*
X21696Y07068D01*
X21795Y06873D02*
X21795Y06932D01*
X21795Y06932D02*
X21696Y06932D01*
X21696Y06873D02*
X21696Y06932D01*
X21795Y06873D02*
X21696Y06873D01*
X21765Y06922D02*
X21765Y07078D01*
X21765Y07078D02*
X21696Y07078D01*
X21696Y06922D02*
X21696Y07078D01*
X21765Y06922D02*
X21696Y06922D01*
X21500Y06961D02*
X21500Y07039D01*
X21500Y07039D02*
X21422Y07039D01*
X21422Y06961D02*
X21422Y07039D01*
X21500Y06961D02*
X21422Y06961D01*
X21304Y06764D02*
X21304Y06882D01*
X21304Y06882D02*
X21186Y06882D01*
X21186Y06764D02*
X21186Y06882D01*
X21304Y06764D02*
X21186Y06764D01*
X21136Y06754D02*
X21136Y06843D01*
X21136Y06843D02*
X21107Y06843D01*
X21107Y06754D02*
X21107Y06843D01*
X21136Y06754D02*
X21107Y06754D01*
G54D16*
X21294Y07226D02*
X21706Y07226D01*
X21696Y06774D02*
X21136Y06774D01*
G54D17*
X21194Y06823D02*
X21193Y06818D01*
X21191Y06813D01*
X21189Y06808D01*
X21185Y06804D01*
X21181Y06800D01*
X21176Y06798D01*
X21171Y06796D01*
X21166Y06796D01*
X21161Y06796D01*
X21156Y06798D01*
X21151Y06800D01*
X21147Y06803D01*
X21143Y06808D01*
X21141Y06812D01*
X21139Y06818D01*
X21139Y06823D01*
X21139Y06828D01*
X21140Y06833D01*
X21143Y06838D01*
X21146Y06842D01*
X21151Y06845D01*
X21155Y06848D01*
X21160Y06850D01*
X21166Y06850D01*
X21170Y06850D01*
X21176Y06849D01*
X21181Y06846D01*
X21185Y06843D01*
X21188Y06839D01*
X21191Y06834D01*
X21193Y06829D01*
X21193Y06823D01*
X21194Y06823D01*
G54D16*
X21107Y06863D02*
X21118Y06864D01*
X21130Y06866D01*
X21142Y06868D01*
X21153Y06872D01*
X21164Y06876D01*
X21175Y06882D01*
X21185Y06888D01*
X21195Y06896D01*
X21203Y06904D01*
X21211Y06912D01*
X21219Y06922D01*
X21225Y06932D01*
X21231Y06943D01*
X21235Y06954D01*
X21239Y06965D01*
X21241Y06977D01*
X21243Y06989D01*
X21244Y07000D01*
X21243Y07011D01*
X21241Y07023D01*
X21239Y07035D01*
X21235Y07046D01*
X21231Y07057D01*
X21225Y07068D01*
X21219Y07078D01*
X21211Y07088D01*
X21203Y07096D01*
X21195Y07104D01*
X21185Y07112D01*
X21175Y07118D01*
X21164Y07124D01*
X21153Y07128D01*
X21142Y07132D01*
X21130Y07134D01*
X21118Y07136D01*
X21107Y07137D01*
X21893Y07137D02*
X21882Y07136D01*
X21870Y07134D01*
X21858Y07132D01*
X21847Y07128D01*
X21836Y07124D01*
X21825Y07118D01*
X21815Y07112D01*
X21805Y07104D01*
X21797Y07096D01*
X21789Y07088D01*
X21781Y07078D01*
X21775Y07068D01*
X21769Y07057D01*
X21765Y07046D01*
X21761Y07035D01*
X21759Y07023D01*
X21757Y07011D01*
X21756Y07000D01*
X21757Y06989D01*
X21759Y06977D01*
X21761Y06965D01*
X21765Y06954D01*
X21769Y06943D01*
X21775Y06932D01*
X21781Y06922D01*
X21789Y06912D01*
X21797Y06904D01*
X21805Y06896D01*
X21815Y06888D01*
X21825Y06882D01*
X21836Y06876D01*
X21847Y06872D01*
X21858Y06868D01*
X21870Y06866D01*
X21882Y06864D01*
X21893Y06863D01*
G54D15*
X14868Y22196D02*
X14996Y22196D01*
X14996Y22196D02*
X14996Y22393D01*
X14868Y22393D02*
X14996Y22393D01*
X14868Y22196D02*
X14868Y22393D01*
X14623Y22196D02*
X14682Y22196D01*
X14682Y22196D02*
X14682Y22295D01*
X14623Y22295D02*
X14682Y22295D01*
X14623Y22196D02*
X14623Y22295D01*
X14818Y22196D02*
X14877Y22196D01*
X14877Y22196D02*
X14877Y22295D01*
X14818Y22295D02*
X14877Y22295D01*
X14818Y22196D02*
X14818Y22295D01*
X14672Y22196D02*
X14828Y22196D01*
X14828Y22196D02*
X14828Y22265D01*
X14672Y22265D02*
X14828Y22265D01*
X14672Y22196D02*
X14672Y22265D01*
X14868Y21607D02*
X14996Y21607D01*
X14996Y21607D02*
X14996Y21804D01*
X14868Y21804D02*
X14996Y21804D01*
X14868Y21607D02*
X14868Y21804D01*
X14504Y21607D02*
X14632Y21607D01*
X14632Y21607D02*
X14632Y21804D01*
X14504Y21804D02*
X14632Y21804D01*
X14504Y21607D02*
X14504Y21804D01*
X14818Y21705D02*
X14877Y21705D01*
X14877Y21705D02*
X14877Y21804D01*
X14818Y21804D02*
X14877Y21804D01*
X14818Y21705D02*
X14818Y21804D01*
X14623Y21705D02*
X14682Y21705D01*
X14682Y21705D02*
X14682Y21804D01*
X14623Y21804D02*
X14682Y21804D01*
X14623Y21705D02*
X14623Y21804D01*
X14672Y21735D02*
X14828Y21735D01*
X14828Y21735D02*
X14828Y21804D01*
X14672Y21804D02*
X14828Y21804D01*
X14672Y21735D02*
X14672Y21804D01*
X14711Y22000D02*
X14789Y22000D01*
X14789Y22000D02*
X14789Y22078D01*
X14711Y22078D02*
X14789Y22078D01*
X14711Y22000D02*
X14711Y22078D01*
X14514Y22196D02*
X14632Y22196D01*
X14632Y22196D02*
X14632Y22314D01*
X14514Y22314D02*
X14632Y22314D01*
X14514Y22196D02*
X14514Y22314D01*
X14504Y22364D02*
X14593Y22364D01*
X14593Y22364D02*
X14593Y22393D01*
X14504Y22393D02*
X14593Y22393D01*
X14504Y22364D02*
X14504Y22393D01*
G54D16*
X14976Y22206D02*
X14976Y21794D01*
X14524Y21804D02*
X14524Y22364D01*
G54D17*
X14601Y22334D02*
X14600Y22329D01*
X14598Y22324D01*
X14596Y22319D01*
X14592Y22315D01*
X14588Y22311D01*
X14583Y22309D01*
X14578Y22307D01*
X14573Y22307D01*
X14568Y22307D01*
X14563Y22309D01*
X14558Y22311D01*
X14554Y22314D01*
X14550Y22319D01*
X14548Y22323D01*
X14546Y22329D01*
X14546Y22334D01*
X14546Y22339D01*
X14547Y22344D01*
X14550Y22349D01*
X14553Y22353D01*
X14558Y22356D01*
X14562Y22359D01*
X14567Y22361D01*
X14573Y22361D01*
X14577Y22361D01*
X14583Y22360D01*
X14588Y22357D01*
X14592Y22354D01*
X14595Y22350D01*
X14598Y22345D01*
X14600Y22340D01*
X14600Y22334D01*
X14601Y22334D01*
G54D16*
X14613Y22393D02*
X14614Y22382D01*
X14616Y22370D01*
X14618Y22358D01*
X14622Y22347D01*
X14626Y22336D01*
X14632Y22325D01*
X14638Y22315D01*
X14646Y22305D01*
X14654Y22297D01*
X14662Y22289D01*
X14672Y22281D01*
X14682Y22275D01*
X14693Y22269D01*
X14704Y22265D01*
X14715Y22261D01*
X14727Y22259D01*
X14739Y22257D01*
X14750Y22256D01*
X14761Y22257D01*
X14773Y22259D01*
X14785Y22261D01*
X14796Y22265D01*
X14807Y22269D01*
X14818Y22275D01*
X14828Y22281D01*
X14838Y22289D01*
X14846Y22297D01*
X14854Y22305D01*
X14862Y22315D01*
X14868Y22325D01*
X14874Y22336D01*
X14878Y22347D01*
X14882Y22358D01*
X14884Y22370D01*
X14886Y22382D01*
X14887Y22393D01*
X14887Y21607D02*
X14886Y21618D01*
X14884Y21630D01*
X14882Y21642D01*
X14878Y21653D01*
X14874Y21664D01*
X14868Y21675D01*
X14862Y21685D01*
X14854Y21695D01*
X14846Y21703D01*
X14838Y21711D01*
X14828Y21719D01*
X14818Y21725D01*
X14807Y21731D01*
X14796Y21735D01*
X14785Y21739D01*
X14773Y21741D01*
X14761Y21743D01*
X14750Y21744D01*
X14739Y21743D01*
X14727Y21741D01*
X14715Y21739D01*
X14704Y21735D01*
X14693Y21731D01*
X14682Y21725D01*
X14672Y21719D01*
X14662Y21711D01*
X14654Y21703D01*
X14646Y21695D01*
X14638Y21685D01*
X14632Y21675D01*
X14626Y21664D01*
X14622Y21653D01*
X14618Y21642D01*
X14616Y21630D01*
X14614Y21618D01*
X14613Y21607D01*
G54D12*
X12500Y03000D02*
X12500Y17000D01*
X12500Y17000D02*
X16500Y17000D01*
X16500Y17000D02*
X16500Y03000D01*
X16500Y03000D02*
X12500Y03000D01*
G54D18*
X25899Y05536D02*
X25899Y16067D01*
X22749Y04650D02*
X24915Y04650D01*
X24915Y04650D02*
X25899Y05536D01*
X25899Y16067D02*
X22749Y16067D01*
X22946Y05930D02*
X22946Y11245D01*
G54D12*
X38891Y19217D02*
X22749Y19217D01*
X22749Y19217D02*
X22749Y01500D01*
X22749Y01500D02*
X38891Y01500D01*
X38891Y01500D02*
X38891Y19217D01*
G54D19*
X22958Y05937D02*
X25528Y05937D01*
X25528Y11257D02*
X25528Y05937D01*
X22958Y11257D02*
X25528Y11257D01*
X25228Y11257D02*
X25228Y11087D01*
X25307Y10957D02*
X25478Y10957D01*
G54D15*
X09250Y05050D02*
X09250Y04950D01*
X09250Y04950D02*
X09850Y04950D01*
X09850Y05050D02*
X09850Y04950D01*
X09250Y05050D02*
X09850Y05050D01*
X09300Y04950D02*
X09300Y04850D01*
X09300Y04850D02*
X09800Y04850D01*
X09800Y04950D02*
X09800Y04850D01*
X09300Y04950D02*
X09800Y04950D01*
X09350Y04850D02*
X09350Y04800D01*
X09350Y04800D02*
X09750Y04800D01*
X09750Y04850D02*
X09750Y04800D01*
X09350Y04850D02*
X09750Y04850D01*
X09450Y04800D02*
X09450Y04750D01*
X09450Y04750D02*
X09650Y04750D01*
X09650Y04800D02*
X09650Y04750D01*
X09450Y04800D02*
X09650Y04800D01*
X09250Y05750D02*
X09250Y05650D01*
X09250Y05650D02*
X09850Y05650D01*
X09850Y05750D02*
X09850Y05650D01*
X09250Y05750D02*
X09850Y05750D01*
X09300Y05850D02*
X09300Y05750D01*
X09300Y05750D02*
X09800Y05750D01*
X09800Y05850D02*
X09800Y05750D01*
X09300Y05850D02*
X09800Y05850D01*
X09350Y05900D02*
X09350Y05850D01*
X09350Y05850D02*
X09750Y05850D01*
X09750Y05900D02*
X09750Y05850D01*
X09350Y05900D02*
X09750Y05900D01*
X09450Y05950D02*
X09450Y05900D01*
X09450Y05900D02*
X09650Y05900D01*
X09650Y05950D02*
X09650Y05900D01*
X09450Y05950D02*
X09650Y05950D01*
X09270Y04970D02*
X09270Y04921D01*
X09270Y04921D02*
X09320Y04921D01*
X09320Y04970D02*
X09320Y04921D01*
X09270Y04970D02*
X09320Y04970D01*
X09410Y04820D02*
X09410Y04770D01*
X09410Y04770D02*
X09460Y04770D01*
X09460Y04820D02*
X09460Y04770D01*
X09410Y04820D02*
X09460Y04820D01*
X09630Y04820D02*
X09630Y04770D01*
X09630Y04770D02*
X09680Y04770D01*
X09680Y04820D02*
X09680Y04770D01*
X09630Y04820D02*
X09680Y04820D01*
X09780Y04970D02*
X09780Y04921D01*
X09780Y04921D02*
X09830Y04921D01*
X09830Y04970D02*
X09830Y04921D01*
X09780Y04970D02*
X09830Y04970D01*
X09270Y05779D02*
X09270Y05730D01*
X09270Y05730D02*
X09320Y05730D01*
X09320Y05779D02*
X09320Y05730D01*
X09270Y05779D02*
X09320Y05779D01*
X09420Y05920D02*
X09420Y05870D01*
X09420Y05870D02*
X09470Y05870D01*
X09470Y05920D02*
X09470Y05870D01*
X09420Y05920D02*
X09470Y05920D01*
X09630Y05930D02*
X09630Y05880D01*
X09630Y05880D02*
X09680Y05880D01*
X09680Y05930D02*
X09680Y05880D01*
X09630Y05930D02*
X09680Y05930D01*
X09780Y05790D02*
X09780Y05740D01*
X09780Y05740D02*
X09830Y05740D01*
X09830Y05790D02*
X09830Y05740D01*
X09780Y05790D02*
X09830Y05790D01*
G54D10*
X08950Y04600D02*
X08950Y06100D01*
X09050Y04500D02*
X10050Y04500D01*
X09050Y06200D02*
X10050Y06200D01*
X10150Y06100D02*
X10150Y04600D01*
X09850Y05050D02*
X09250Y05050D01*
X09850Y05650D02*
X09250Y05650D01*
X09550Y04750D02*
X09550Y04550D01*
X09550Y05950D02*
X09550Y06150D01*
X10050Y04500D02*
X10058Y04501D01*
X10067Y04502D01*
X10075Y04504D01*
X10084Y04507D01*
X10092Y04510D01*
X10100Y04514D01*
X10107Y04519D01*
X10114Y04524D01*
X10120Y04530D01*
X10126Y04536D01*
X10131Y04543D01*
X10136Y04551D01*
X10140Y04558D01*
X10143Y04566D01*
X10146Y04575D01*
X10148Y04583D01*
X10149Y04592D01*
X10150Y04600D01*
X10150Y06100D02*
X10149Y06108D01*
X10148Y06117D01*
X10146Y06125D01*
X10143Y06134D01*
X10140Y06142D01*
X10136Y06149D01*
X10131Y06157D01*
X10126Y06164D01*
X10120Y06170D01*
X10114Y06176D01*
X10107Y06181D01*
X10100Y06186D01*
X10092Y06190D01*
X10084Y06193D01*
X10075Y06196D01*
X10067Y06198D01*
X10058Y06199D01*
X10050Y06200D01*
X09050Y06200D02*
X09042Y06199D01*
X09033Y06198D01*
X09025Y06196D01*
X09016Y06193D01*
X09008Y06190D01*
X09001Y06186D01*
X08993Y06181D01*
X08986Y06176D01*
X08980Y06170D01*
X08974Y06164D01*
X08969Y06157D01*
X08964Y06149D01*
X08960Y06142D01*
X08957Y06134D01*
X08954Y06125D01*
X08952Y06117D01*
X08951Y06108D01*
X08950Y06100D01*
X08950Y04600D02*
X08951Y04592D01*
X08952Y04583D01*
X08954Y04575D01*
X08957Y04566D01*
X08960Y04558D01*
X08964Y04551D01*
X08969Y04543D01*
X08974Y04536D01*
X08980Y04530D01*
X08986Y04524D01*
X08993Y04519D01*
X09001Y04514D01*
X09008Y04510D01*
X09016Y04507D01*
X09025Y04504D01*
X09033Y04502D01*
X09042Y04501D01*
X09050Y04500D01*
X09250Y05050D02*
X09252Y05024D01*
X09255Y04998D01*
X09261Y04973D01*
X09269Y04948D01*
X09279Y04924D01*
X09291Y04901D01*
X09305Y04878D01*
X09321Y04858D01*
X09338Y04838D01*
X09358Y04821D01*
X09378Y04805D01*
X09401Y04791D01*
X09424Y04779D01*
X09448Y04769D01*
X09473Y04761D01*
X09498Y04755D01*
X09524Y04752D01*
X09550Y04750D01*
X09576Y04752D01*
X09602Y04755D01*
X09627Y04761D01*
X09652Y04769D01*
X09676Y04779D01*
X09700Y04791D01*
X09722Y04805D01*
X09742Y04821D01*
X09762Y04838D01*
X09779Y04858D01*
X09795Y04878D01*
X09809Y04901D01*
X09821Y04924D01*
X09831Y04948D01*
X09839Y04973D01*
X09845Y04998D01*
X09848Y05024D01*
X09850Y05050D01*
X09850Y05650D02*
X09848Y05676D01*
X09845Y05702D01*
X09839Y05727D01*
X09831Y05752D01*
X09821Y05776D01*
X09809Y05799D01*
X09795Y05822D01*
X09779Y05842D01*
X09762Y05862D01*
X09742Y05879D01*
X09722Y05895D01*
X09700Y05909D01*
X09676Y05921D01*
X09652Y05931D01*
X09627Y05939D01*
X09602Y05945D01*
X09576Y05948D01*
X09550Y05950D01*
X09524Y05948D01*
X09498Y05945D01*
X09473Y05939D01*
X09448Y05931D01*
X09424Y05921D01*
X09401Y05909D01*
X09378Y05895D01*
X09358Y05879D01*
X09338Y05862D01*
X09321Y05842D01*
X09305Y05822D01*
X09291Y05799D01*
X09279Y05776D01*
X09269Y05752D01*
X09261Y05727D01*
X09255Y05702D01*
X09252Y05676D01*
X09250Y05650D01*
G54D11*
X22500Y17100D02*
X22500Y16100D01*
X22500Y16100D02*
X20500Y16100D01*
X20500Y16100D02*
X20500Y17100D01*
X20500Y17100D02*
X22500Y17100D01*
X22500Y18100D02*
X22500Y17100D01*
X22500Y17100D02*
X20500Y17100D01*
X20500Y17100D02*
X20500Y18100D01*
X20500Y18100D02*
X22500Y18100D01*
X18618Y15232D02*
X18514Y14845D01*
X18514Y14845D02*
X18900Y14742D01*
X18900Y14742D02*
X18124Y11844D01*
X18124Y11844D02*
X17351Y12051D01*
X17351Y12051D02*
X18128Y14949D01*
X18128Y14949D02*
X18514Y14845D01*
X17582Y11368D02*
X17686Y11755D01*
X17931Y11896D02*
X17879Y11703D01*
X17879Y11703D02*
X17493Y11806D01*
X17493Y11806D02*
X17544Y11999D01*
X25500Y22500D02*
X25500Y21500D01*
X25500Y21500D02*
X16500Y21500D01*
X16500Y21500D02*
X16500Y22500D01*
X25500Y22500D02*
X16500Y22500D01*
X17500Y22500D02*
X17500Y21500D01*
X30500Y21500D02*
X30500Y22500D01*
X30500Y22500D02*
X32500Y22500D01*
X32500Y22500D02*
X32500Y21500D01*
X32500Y21500D02*
X30500Y21500D01*
G54D12*
X20699Y14697D02*
X20699Y14736D01*
X20699Y14657D02*
X20699Y14697D01*
X20699Y14264D02*
X20699Y14657D01*
G54D13*
X11250Y04450D02*
X11250Y05650D01*
X11250Y05650D02*
X11550Y05650D01*
X11550Y05650D02*
X11550Y04450D01*
X11550Y04450D02*
X11250Y04450D01*
G54D11*
X07000Y11900D02*
X08000Y11900D01*
X08000Y11900D02*
X08000Y09900D01*
X08000Y09900D02*
X07000Y09900D01*
X07000Y09900D02*
X07000Y11900D01*
G54D14*
X18501Y12650D02*
X18674Y12550D01*
X21099Y11150D02*
X20926Y11250D01*
X20926Y11250D02*
X21126Y11596D01*
X21126Y11596D02*
X18874Y12896D01*
X18874Y12896D02*
X18474Y12204D01*
X18474Y12204D02*
X20726Y10904D01*
X20726Y10904D02*
X20926Y11250D01*
X18774Y12723D02*
X19047Y12796D01*
X18501Y13750D02*
X18674Y13650D01*
X21099Y12250D02*
X20926Y12350D01*
X20926Y12350D02*
X21126Y12696D01*
X21126Y12696D02*
X18874Y13996D01*
X18874Y13996D02*
X18474Y13304D01*
X18474Y13304D02*
X20726Y12004D01*
X20726Y12004D02*
X20926Y12350D01*
X18774Y13823D02*
X19047Y13896D01*
G54D20*
X11175Y10584D02*
X10494Y10584D01*
X10494Y10747D01*
X10527Y10788D01*
X10559Y10808D01*
X10624Y10828D01*
X10721Y10828D01*
X10786Y10808D01*
X10818Y10788D01*
X10851Y10747D01*
X10851Y10584D01*
X10494Y10971D02*
X10494Y11256D01*
X11175Y11073D01*
X07975Y10584D02*
X07294Y10584D01*
X07294Y10747D01*
X07327Y10788D01*
X07359Y10808D01*
X07424Y10828D01*
X07521Y10828D01*
X07586Y10808D01*
X07618Y10788D01*
X07651Y10747D01*
X07651Y10584D01*
X07586Y11073D02*
X07554Y11032D01*
X07521Y11012D01*
X07456Y10992D01*
X07424Y10992D01*
X07359Y11012D01*
X07327Y11032D01*
X07294Y11073D01*
X07294Y11155D01*
X07327Y11195D01*
X07359Y11216D01*
X07424Y11236D01*
X07456Y11236D01*
X07521Y11216D01*
X07554Y11195D01*
X07586Y11155D01*
X07586Y11073D01*
X07618Y11032D01*
X07651Y11012D01*
X07716Y10992D01*
X07845Y10992D01*
X07910Y11012D01*
X07943Y11032D01*
X07975Y11073D01*
X07975Y11155D01*
X07943Y11195D01*
X07910Y11216D01*
X07845Y11236D01*
X07716Y11236D01*
X07651Y11216D01*
X07618Y11195D01*
X07586Y11155D01*
G54D21*
X17905Y10788D02*
X17905Y11188D01*
X18058Y11188D01*
X18096Y11169D01*
X18115Y11150D01*
X18134Y11112D01*
X18134Y11055D01*
X18115Y11017D01*
X18096Y10998D01*
X18058Y10979D01*
X17905Y10979D01*
X18496Y11188D02*
X18305Y11188D01*
X18286Y10998D01*
X18305Y11017D01*
X18343Y11036D01*
X18439Y11036D01*
X18477Y11017D01*
X18496Y10998D01*
X18515Y10960D01*
X18515Y10864D01*
X18496Y10826D01*
X18477Y10807D01*
X18439Y10788D01*
X18343Y10788D01*
X18305Y10807D01*
X18286Y10826D01*
G54D20*
X21276Y03684D02*
X20593Y03684D01*
X20593Y03847D01*
X20625Y03888D01*
X20658Y03908D01*
X20723Y03928D01*
X20821Y03928D01*
X20886Y03908D01*
X20918Y03888D01*
X20951Y03847D01*
X20951Y03684D01*
X21276Y04336D02*
X21276Y04092D01*
X21276Y04214D02*
X20593Y04214D01*
X20691Y04173D01*
X20756Y04132D01*
X20788Y04092D01*
X19025Y05684D02*
X18344Y05684D01*
X18344Y05847D01*
X18377Y05888D01*
X18409Y05908D01*
X18474Y05928D01*
X18571Y05928D01*
X18636Y05908D01*
X18668Y05888D01*
X18701Y05847D01*
X18701Y05684D01*
X18409Y06092D02*
X18377Y06112D01*
X18344Y06153D01*
X18344Y06255D01*
X18377Y06295D01*
X18409Y06316D01*
X18474Y06336D01*
X18539Y06336D01*
X18636Y06316D01*
X19025Y06071D01*
X19025Y06336D01*
G54D11*
X00771Y22286D02*
X00857Y22257D01*
X01000Y22257D01*
X01057Y22286D01*
X01086Y22314D01*
X01114Y22371D01*
X01114Y22429D01*
X01086Y22486D01*
X01057Y22514D01*
X01000Y22543D01*
X00886Y22571D01*
X00828Y22600D01*
X00800Y22629D01*
X00771Y22686D01*
X00771Y22743D01*
X00800Y22800D01*
X00828Y22829D01*
X00886Y22857D01*
X01028Y22857D01*
X01114Y22829D01*
X01371Y22257D02*
X01371Y22857D01*
X01371Y22571D02*
X01714Y22571D01*
X01714Y22257D02*
X01714Y22857D01*
X02000Y22257D02*
X02000Y22857D01*
X02286Y22571D02*
X02486Y22571D01*
X02572Y22257D02*
X02286Y22257D01*
X02286Y22857D01*
X02572Y22857D01*
X03115Y22257D02*
X02829Y22257D01*
X02829Y22857D01*
X03315Y22257D02*
X03315Y22857D01*
X03458Y22857D01*
X03543Y22829D01*
X03601Y22771D01*
X03629Y22714D01*
X03658Y22600D01*
X03658Y22514D01*
X03629Y22400D01*
X03601Y22343D01*
X03543Y22286D01*
X03458Y22257D01*
X03315Y22257D01*
X04229Y22257D02*
X03886Y22257D01*
X04058Y22257D02*
X04058Y22857D01*
X04001Y22771D01*
X03943Y22714D01*
X03886Y22686D01*
G54D22*
X16517Y19425D02*
X16517Y19311D01*
X16509Y19288D01*
X16494Y19273D01*
X16471Y19265D01*
X16456Y19265D01*
X16593Y19265D02*
X16593Y19425D01*
X16654Y19425D01*
X16669Y19418D01*
X16677Y19410D01*
X16685Y19395D01*
X16685Y19372D01*
X16677Y19357D01*
X16669Y19349D01*
X16654Y19341D01*
X16593Y19341D01*
X16837Y19265D02*
X16745Y19265D01*
X16791Y19265D02*
X16791Y19425D01*
X16776Y19402D01*
X16761Y19387D01*
X16745Y19380D01*
G54D23*
X16483Y18783D02*
X16483Y18747D01*
X16481Y18740D01*
X16476Y18735D01*
X16469Y18733D01*
X16464Y18733D01*
X16507Y18783D02*
X16507Y18742D01*
X16509Y18738D01*
X16512Y18735D01*
X16516Y18733D01*
X16526Y18733D01*
X16531Y18735D01*
X16533Y18738D01*
X16535Y18742D01*
X16535Y18783D01*
X16559Y18733D02*
X16559Y18783D01*
X16576Y18747D01*
X16592Y18783D01*
X16592Y18733D01*
X16616Y18733D02*
X16616Y18783D01*
X16635Y18783D01*
X16640Y18780D01*
X16642Y18778D01*
X16644Y18773D01*
X16644Y18766D01*
X16642Y18761D01*
X16640Y18759D01*
X16635Y18757D01*
X16616Y18757D01*
X16666Y18759D02*
X16683Y18759D01*
X16690Y18733D02*
X16666Y18733D01*
X16666Y18783D01*
X16690Y18783D01*
X16739Y18733D02*
X16723Y18757D01*
X16711Y18733D02*
X16711Y18783D01*
X16730Y18783D01*
X16735Y18780D01*
X16737Y18778D01*
X16739Y18773D01*
X16739Y18766D01*
X16737Y18761D01*
X16735Y18759D01*
X16730Y18757D01*
X16711Y18757D01*
X16761Y18752D02*
X16799Y18752D01*
X16818Y18783D02*
X16849Y18783D01*
X16832Y18764D01*
X16840Y18764D01*
X16844Y18761D01*
X16847Y18759D01*
X16849Y18754D01*
X16849Y18742D01*
X16847Y18738D01*
X16844Y18735D01*
X16840Y18733D01*
X16825Y18733D01*
X16821Y18735D01*
X16818Y18738D01*
X16869Y18735D02*
X16876Y18733D01*
X16888Y18733D01*
X16892Y18735D01*
X16895Y18738D01*
X16897Y18742D01*
X16897Y18747D01*
X16895Y18752D01*
X16892Y18754D01*
X16888Y18757D01*
X16878Y18759D01*
X16873Y18761D01*
X16871Y18764D01*
X16869Y18768D01*
X16869Y18773D01*
X16871Y18778D01*
X16873Y18780D01*
X16878Y18783D01*
X16890Y18783D01*
X16897Y18780D01*
X16919Y18733D02*
X16919Y18783D01*
X16936Y18747D01*
X16952Y18783D01*
X16952Y18733D01*
X16976Y18733D02*
X16976Y18783D01*
X16988Y18783D01*
X16995Y18780D01*
X17000Y18776D01*
X17002Y18771D01*
X17004Y18761D01*
X17004Y18754D01*
X17002Y18745D01*
X17000Y18740D01*
X16995Y18735D01*
X16988Y18733D01*
X16976Y18733D01*
G54D22*
X16311Y18122D02*
X16433Y18076D01*
X16311Y18030D01*
X16486Y18175D02*
X16540Y18015D01*
X16593Y18175D01*
X16638Y18061D02*
X16715Y18061D01*
X16623Y18015D02*
X16677Y18175D01*
X16730Y18015D01*
X16859Y18015D02*
X16783Y18015D01*
X16783Y18175D01*
X16913Y18175D02*
X16913Y18046D01*
X16921Y18030D01*
X16928Y18023D01*
X16944Y18015D01*
X16974Y18015D01*
X16989Y18023D01*
X16997Y18030D01*
X17005Y18046D01*
X17005Y18175D01*
X17081Y18099D02*
X17134Y18099D01*
X17157Y18015D02*
X17081Y18015D01*
X17081Y18175D01*
X17157Y18175D01*
X18267Y19425D02*
X18267Y19311D01*
X18259Y19288D01*
X18244Y19273D01*
X18221Y19265D01*
X18206Y19265D01*
X18343Y19265D02*
X18343Y19425D01*
X18404Y19425D01*
X18419Y19418D01*
X18427Y19410D01*
X18435Y19395D01*
X18435Y19372D01*
X18427Y19357D01*
X18419Y19349D01*
X18404Y19341D01*
X18343Y19341D01*
X18488Y19425D02*
X18587Y19425D01*
X18534Y19364D01*
X18556Y19364D01*
X18572Y19357D01*
X18579Y19349D01*
X18587Y19334D01*
X18587Y19296D01*
X18579Y19280D01*
X18572Y19273D01*
X18556Y19265D01*
X18511Y19265D01*
X18495Y19273D01*
X18488Y19280D01*
G54D23*
X18233Y18783D02*
X18233Y18747D01*
X18231Y18740D01*
X18226Y18735D01*
X18219Y18733D01*
X18214Y18733D01*
X18257Y18783D02*
X18257Y18742D01*
X18259Y18738D01*
X18262Y18735D01*
X18266Y18733D01*
X18276Y18733D01*
X18281Y18735D01*
X18283Y18738D01*
X18285Y18742D01*
X18285Y18783D01*
X18309Y18733D02*
X18309Y18783D01*
X18326Y18747D01*
X18342Y18783D01*
X18342Y18733D01*
X18366Y18733D02*
X18366Y18783D01*
X18385Y18783D01*
X18390Y18780D01*
X18392Y18778D01*
X18394Y18773D01*
X18394Y18766D01*
X18392Y18761D01*
X18390Y18759D01*
X18385Y18757D01*
X18366Y18757D01*
X18416Y18759D02*
X18433Y18759D01*
X18440Y18733D02*
X18416Y18733D01*
X18416Y18783D01*
X18440Y18783D01*
X18489Y18733D02*
X18473Y18757D01*
X18461Y18733D02*
X18461Y18783D01*
X18480Y18783D01*
X18485Y18780D01*
X18487Y18778D01*
X18489Y18773D01*
X18489Y18766D01*
X18487Y18761D01*
X18485Y18759D01*
X18480Y18757D01*
X18461Y18757D01*
X18511Y18752D02*
X18549Y18752D01*
X18568Y18783D02*
X18599Y18783D01*
X18582Y18764D01*
X18590Y18764D01*
X18594Y18761D01*
X18597Y18759D01*
X18599Y18754D01*
X18599Y18742D01*
X18597Y18738D01*
X18594Y18735D01*
X18590Y18733D01*
X18575Y18733D01*
X18571Y18735D01*
X18568Y18738D01*
X18619Y18735D02*
X18626Y18733D01*
X18638Y18733D01*
X18642Y18735D01*
X18645Y18738D01*
X18647Y18742D01*
X18647Y18747D01*
X18645Y18752D01*
X18642Y18754D01*
X18638Y18757D01*
X18628Y18759D01*
X18623Y18761D01*
X18621Y18764D01*
X18619Y18768D01*
X18619Y18773D01*
X18621Y18778D01*
X18623Y18780D01*
X18628Y18783D01*
X18640Y18783D01*
X18647Y18780D01*
X18669Y18733D02*
X18669Y18783D01*
X18686Y18747D01*
X18702Y18783D01*
X18702Y18733D01*
X18726Y18733D02*
X18726Y18783D01*
X18738Y18783D01*
X18745Y18780D01*
X18750Y18776D01*
X18752Y18771D01*
X18754Y18761D01*
X18754Y18754D01*
X18752Y18745D01*
X18750Y18740D01*
X18745Y18735D01*
X18738Y18733D01*
X18726Y18733D01*
G54D22*
X18061Y18122D02*
X18183Y18076D01*
X18061Y18030D01*
X18236Y18175D02*
X18290Y18015D01*
X18343Y18175D01*
X18388Y18061D02*
X18465Y18061D01*
X18373Y18015D02*
X18427Y18175D01*
X18480Y18015D01*
X18609Y18015D02*
X18533Y18015D01*
X18533Y18175D01*
X18663Y18175D02*
X18663Y18046D01*
X18671Y18030D01*
X18678Y18023D01*
X18694Y18015D01*
X18724Y18015D01*
X18739Y18023D01*
X18747Y18030D01*
X18755Y18046D01*
X18755Y18175D01*
X18831Y18099D02*
X18884Y18099D01*
X18907Y18015D02*
X18831Y18015D01*
X18831Y18175D01*
X18907Y18175D01*
G54D24*
X08824Y16184D02*
X08843Y16165D01*
X08862Y16108D01*
X08862Y16070D01*
X08843Y16012D01*
X08805Y15974D01*
X08767Y15955D01*
X08690Y15936D01*
X08633Y15936D01*
X08557Y15955D01*
X08519Y15974D01*
X08481Y16012D01*
X08462Y16070D01*
X08462Y16108D01*
X08481Y16165D01*
X08500Y16184D01*
X08500Y16336D02*
X08481Y16355D01*
X08462Y16393D01*
X08462Y16489D01*
X08481Y16527D01*
X08500Y16546D01*
X08538Y16565D01*
X08576Y16565D01*
X08633Y16546D01*
X08862Y16317D01*
X08862Y16565D01*
X10524Y15834D02*
X10543Y15815D01*
X10562Y15758D01*
X10562Y15720D01*
X10543Y15662D01*
X10505Y15624D01*
X10467Y15605D01*
X10390Y15586D01*
X10333Y15586D01*
X10257Y15605D01*
X10219Y15624D01*
X10181Y15662D01*
X10162Y15720D01*
X10162Y15758D01*
X10181Y15815D01*
X10200Y15834D01*
X10562Y16005D02*
X10162Y16005D01*
X10162Y16158D01*
X10181Y16196D01*
X10200Y16215D01*
X10238Y16234D01*
X10295Y16234D01*
X10333Y16215D01*
X10352Y16196D01*
X10371Y16158D01*
X10371Y16005D01*
X10562Y16615D02*
X10562Y16386D01*
X10562Y16500D02*
X10162Y16500D01*
X10219Y16462D01*
X10257Y16424D01*
X10276Y16386D01*
G54D14*
X10164Y17122D02*
X10164Y17579D01*
X10393Y17350D02*
X09936Y17350D01*
G54D24*
X05074Y16184D02*
X05093Y16165D01*
X05112Y16108D01*
X05112Y16070D01*
X05093Y16012D01*
X05055Y15974D01*
X05017Y15955D01*
X04940Y15936D01*
X04883Y15936D01*
X04807Y15955D01*
X04769Y15974D01*
X04731Y16012D01*
X04712Y16070D01*
X04712Y16108D01*
X04731Y16165D01*
X04750Y16184D01*
X04712Y16317D02*
X04712Y16565D01*
X04864Y16431D01*
X04864Y16489D01*
X04883Y16527D01*
X04902Y16546D01*
X04940Y16565D01*
X05036Y16565D01*
X05074Y16546D01*
X05093Y16527D01*
X05112Y16489D01*
X05112Y16374D01*
X05093Y16336D01*
X05074Y16317D01*
X06774Y15834D02*
X06793Y15815D01*
X06812Y15758D01*
X06812Y15720D01*
X06793Y15662D01*
X06755Y15624D01*
X06717Y15605D01*
X06640Y15586D01*
X06583Y15586D01*
X06507Y15605D01*
X06469Y15624D01*
X06431Y15662D01*
X06412Y15720D01*
X06412Y15758D01*
X06431Y15815D01*
X06450Y15834D01*
X06812Y16005D02*
X06412Y16005D01*
X06412Y16158D01*
X06431Y16196D01*
X06450Y16215D01*
X06488Y16234D01*
X06545Y16234D01*
X06583Y16215D01*
X06602Y16196D01*
X06621Y16158D01*
X06621Y16005D01*
X06812Y16615D02*
X06812Y16386D01*
X06812Y16500D02*
X06412Y16500D01*
X06469Y16462D01*
X06507Y16424D01*
X06526Y16386D01*
G54D14*
X06414Y17122D02*
X06414Y17579D01*
X06643Y17350D02*
X06186Y17350D01*
G54D13*
X14458Y15423D02*
X14446Y15411D01*
X14411Y15399D01*
X14387Y15399D01*
X14351Y15411D01*
X14327Y15435D01*
X14316Y15458D01*
X14304Y15506D01*
X14304Y15542D01*
X14316Y15589D01*
X14327Y15613D01*
X14351Y15637D01*
X14387Y15649D01*
X14411Y15649D01*
X14446Y15637D01*
X14458Y15625D01*
X14696Y15399D02*
X14554Y15399D01*
X14625Y15399D02*
X14625Y15649D01*
X14601Y15613D01*
X14577Y15589D01*
X14554Y15577D01*
X29101Y21958D02*
X28982Y21875D01*
X29101Y21816D02*
X28851Y21816D01*
X28851Y21911D01*
X28863Y21935D01*
X28875Y21946D01*
X28899Y21958D01*
X28935Y21958D01*
X28958Y21946D01*
X28970Y21935D01*
X28982Y21911D01*
X28982Y21816D01*
X28851Y22185D02*
X28851Y22066D01*
X28970Y22054D01*
X28958Y22066D01*
X28946Y22089D01*
X28946Y22149D01*
X28958Y22173D01*
X28970Y22185D01*
X28994Y22196D01*
X29054Y22196D01*
X29077Y22185D01*
X29089Y22173D01*
X29101Y22149D01*
X29101Y22089D01*
X29089Y22066D01*
X29077Y22054D01*
X08458Y06749D02*
X08375Y06868D01*
X08316Y06749D02*
X08316Y06999D01*
X08411Y06999D01*
X08435Y06987D01*
X08446Y06975D01*
X08458Y06951D01*
X08458Y06915D01*
X08446Y06892D01*
X08435Y06880D01*
X08411Y06868D01*
X08316Y06868D01*
X08673Y06915D02*
X08673Y06749D01*
X08613Y07011D02*
X08554Y06832D01*
X08708Y06832D01*
X21458Y08149D02*
X21375Y08268D01*
X21316Y08149D02*
X21316Y08399D01*
X21411Y08399D01*
X21435Y08387D01*
X21446Y08375D01*
X21458Y08351D01*
X21458Y08315D01*
X21446Y08292D01*
X21435Y08280D01*
X21411Y08268D01*
X21316Y08268D01*
X21542Y08399D02*
X21696Y08399D01*
X21613Y08304D01*
X21649Y08304D01*
X21673Y08292D01*
X21685Y08280D01*
X21696Y08256D01*
X21696Y08196D01*
X21685Y08173D01*
X21673Y08161D01*
X21649Y08149D01*
X21577Y08149D01*
X21554Y08161D01*
X21542Y08173D01*
X21458Y05649D02*
X21375Y05768D01*
X21316Y05649D02*
X21316Y05899D01*
X21411Y05899D01*
X21435Y05887D01*
X21446Y05875D01*
X21458Y05851D01*
X21458Y05815D01*
X21446Y05792D01*
X21435Y05780D01*
X21411Y05768D01*
X21316Y05768D01*
X21554Y05875D02*
X21566Y05887D01*
X21589Y05899D01*
X21649Y05899D01*
X21673Y05887D01*
X21685Y05875D01*
X21696Y05851D01*
X21696Y05827D01*
X21685Y05792D01*
X21542Y05649D01*
X21696Y05649D01*
X15851Y21958D02*
X15732Y21875D01*
X15851Y21816D02*
X15601Y21816D01*
X15601Y21911D01*
X15613Y21935D01*
X15625Y21946D01*
X15649Y21958D01*
X15685Y21958D01*
X15708Y21946D01*
X15720Y21935D01*
X15732Y21911D01*
X15732Y21816D01*
X15851Y22196D02*
X15851Y22054D01*
X15851Y22125D02*
X15601Y22125D01*
X15637Y22101D01*
X15661Y22077D01*
X15673Y22054D01*
X27621Y21778D02*
X27321Y21778D01*
X27321Y21850D01*
X27336Y21893D01*
X27364Y21921D01*
X27393Y21936D01*
X27450Y21950D01*
X27493Y21950D01*
X27550Y21936D01*
X27579Y21921D01*
X27607Y21893D01*
X27621Y21850D01*
X27621Y21778D01*
X27321Y22221D02*
X27321Y22078D01*
X27464Y22064D01*
X27450Y22078D01*
X27436Y22107D01*
X27436Y22178D01*
X27450Y22207D01*
X27464Y22221D01*
X27493Y22236D01*
X27564Y22236D01*
X27593Y22221D01*
X27607Y22207D01*
X27621Y22178D01*
X27621Y22107D01*
X27607Y22078D01*
X27593Y22064D01*
X28621Y21807D02*
X28621Y21664D01*
X28321Y21664D01*
X28464Y21907D02*
X28464Y22007D01*
X28621Y22050D02*
X28621Y21907D01*
X28321Y21907D01*
X28321Y22050D01*
X28621Y22178D02*
X28321Y22178D01*
X28321Y22250D01*
X28336Y22293D01*
X28364Y22321D01*
X28393Y22336D01*
X28450Y22350D01*
X28493Y22350D01*
X28550Y22336D01*
X28579Y22321D01*
X28607Y22293D01*
X28621Y22250D01*
X28621Y22178D01*
X10128Y06229D02*
X10128Y06529D01*
X10200Y06529D01*
X10243Y06514D01*
X10271Y06486D01*
X10286Y06457D01*
X10300Y06400D01*
X10300Y06357D01*
X10286Y06300D01*
X10271Y06271D01*
X10243Y06243D01*
X10200Y06229D01*
X10128Y06229D01*
X10557Y06429D02*
X10557Y06229D01*
X10486Y06543D02*
X10414Y06329D01*
X10600Y06329D01*
X10157Y07229D02*
X10014Y07229D01*
X10014Y07529D01*
X10257Y07386D02*
X10357Y07386D01*
X10400Y07229D02*
X10257Y07229D01*
X10257Y07529D01*
X10400Y07529D01*
X10528Y07229D02*
X10528Y07529D01*
X10600Y07529D01*
X10643Y07514D01*
X10671Y07486D01*
X10686Y07457D01*
X10700Y07400D01*
X10700Y07357D01*
X10686Y07300D01*
X10671Y07271D01*
X10643Y07243D01*
X10600Y07229D01*
X10528Y07229D01*
X21278Y08629D02*
X21278Y08929D01*
X21350Y08929D01*
X21393Y08914D01*
X21421Y08886D01*
X21436Y08857D01*
X21450Y08800D01*
X21450Y08757D01*
X21436Y08700D01*
X21421Y08671D01*
X21393Y08643D01*
X21350Y08629D01*
X21278Y08629D01*
X21550Y08929D02*
X21736Y08929D01*
X21636Y08814D01*
X21678Y08814D01*
X21707Y08800D01*
X21721Y08786D01*
X21736Y08757D01*
X21736Y08686D01*
X21721Y08657D01*
X21707Y08643D01*
X21678Y08629D01*
X21593Y08629D01*
X21564Y08643D01*
X21550Y08657D01*
X21307Y09629D02*
X21164Y09629D01*
X21164Y09929D01*
X21407Y09786D02*
X21507Y09786D01*
X21550Y09629D02*
X21407Y09629D01*
X21407Y09929D01*
X21550Y09929D01*
X21678Y09629D02*
X21678Y09929D01*
X21750Y09929D01*
X21793Y09914D01*
X21821Y09886D01*
X21836Y09857D01*
X21850Y09800D01*
X21850Y09757D01*
X21836Y09700D01*
X21821Y09671D01*
X21793Y09643D01*
X21750Y09629D01*
X21678Y09629D01*
X21278Y06379D02*
X21278Y06679D01*
X21350Y06679D01*
X21393Y06664D01*
X21421Y06636D01*
X21436Y06607D01*
X21450Y06550D01*
X21450Y06507D01*
X21436Y06450D01*
X21421Y06421D01*
X21393Y06393D01*
X21350Y06379D01*
X21278Y06379D01*
X21564Y06650D02*
X21578Y06664D01*
X21607Y06679D01*
X21678Y06679D01*
X21707Y06664D01*
X21721Y06650D01*
X21736Y06621D01*
X21736Y06593D01*
X21721Y06550D01*
X21550Y06379D01*
X21736Y06379D01*
X21307Y07379D02*
X21164Y07379D01*
X21164Y07679D01*
X21407Y07536D02*
X21507Y07536D01*
X21550Y07379D02*
X21407Y07379D01*
X21407Y07679D01*
X21550Y07679D01*
X21678Y07379D02*
X21678Y07679D01*
X21750Y07679D01*
X21793Y07664D01*
X21821Y07636D01*
X21836Y07607D01*
X21850Y07550D01*
X21850Y07507D01*
X21836Y07450D01*
X21821Y07421D01*
X21793Y07393D01*
X21750Y07379D01*
X21678Y07379D01*
X14371Y21778D02*
X14071Y21778D01*
X14071Y21850D01*
X14086Y21893D01*
X14114Y21921D01*
X14143Y21936D01*
X14200Y21950D01*
X14243Y21950D01*
X14300Y21936D01*
X14329Y21921D01*
X14357Y21893D01*
X14371Y21850D01*
X14371Y21778D01*
X14371Y22236D02*
X14371Y22064D01*
X14371Y22150D02*
X14071Y22150D01*
X14114Y22121D01*
X14143Y22093D01*
X14157Y22064D01*
X15371Y21807D02*
X15371Y21664D01*
X15071Y21664D01*
X15214Y21907D02*
X15214Y22007D01*
X15371Y22050D02*
X15371Y21907D01*
X15071Y21907D01*
X15071Y22050D01*
X15371Y22178D02*
X15071Y22178D01*
X15071Y22250D01*
X15086Y22293D01*
X15114Y22321D01*
X15143Y22336D01*
X15200Y22350D01*
X15243Y22350D01*
X15300Y22336D01*
X15329Y22321D01*
X15357Y22293D01*
X15371Y22250D01*
X15371Y22178D01*
G54D11*
X13643Y09543D02*
X14129Y09543D01*
X14186Y09571D01*
X14214Y09600D01*
X14243Y09657D01*
X14243Y09771D01*
X14214Y09829D01*
X14186Y09857D01*
X14129Y09886D01*
X13643Y09886D01*
X13843Y10429D02*
X14243Y10429D01*
X13614Y10286D02*
X14043Y10143D01*
X14043Y10515D01*
X15743Y07331D02*
X15143Y07331D01*
X15143Y07474D01*
X15171Y07559D01*
X15229Y07617D01*
X15286Y07645D01*
X15400Y07674D01*
X15486Y07674D01*
X15600Y07645D01*
X15657Y07617D01*
X15714Y07559D01*
X15743Y07474D01*
X15743Y07331D01*
X15743Y08245D02*
X15743Y07902D01*
X15743Y08074D02*
X15143Y08074D01*
X15229Y08017D01*
X15286Y07959D01*
X15314Y07902D01*
X15143Y08788D02*
X15143Y08502D01*
X15429Y08473D01*
X15400Y08502D01*
X15371Y08559D01*
X15371Y08702D01*
X15400Y08759D01*
X15429Y08788D01*
X15486Y08816D01*
X15629Y08816D01*
X15686Y08788D01*
X15714Y08759D01*
X15743Y08702D01*
X15743Y08559D01*
X15714Y08502D01*
X15686Y08473D01*
X15143Y08987D02*
X15743Y09187D01*
X15143Y09387D01*
X15143Y09530D02*
X15143Y09901D01*
X15371Y09701D01*
X15371Y09787D01*
X15400Y09844D01*
X15429Y09873D01*
X15486Y09901D01*
X15629Y09901D01*
X15686Y09873D01*
X15714Y09844D01*
X15743Y09787D01*
X15743Y09615D01*
X15714Y09558D01*
X15686Y09530D01*
X15143Y10444D02*
X15143Y10158D01*
X15429Y10129D01*
X15400Y10158D01*
X15371Y10215D01*
X15371Y10358D01*
X15400Y10415D01*
X15429Y10444D01*
X15486Y10472D01*
X15629Y10472D01*
X15686Y10444D01*
X15714Y10415D01*
X15743Y10358D01*
X15743Y10215D01*
X15714Y10158D01*
X15686Y10129D01*
X15429Y10929D02*
X15429Y10729D01*
X15743Y10729D02*
X15143Y10729D01*
X15143Y11015D01*
X15143Y11529D02*
X15143Y11243D01*
X15429Y11214D01*
X15400Y11243D01*
X15371Y11300D01*
X15371Y11443D01*
X15400Y11500D01*
X15429Y11529D01*
X15486Y11557D01*
X15629Y11557D01*
X15686Y11529D01*
X15714Y11500D01*
X15743Y11443D01*
X15743Y11300D01*
X15714Y11243D01*
X15686Y11214D01*
X15714Y11785D02*
X15743Y11871D01*
X15743Y12014D01*
X15714Y12071D01*
X15686Y12100D01*
X15629Y12128D01*
X15571Y12128D01*
X15514Y12100D01*
X15486Y12071D01*
X15457Y12014D01*
X15429Y11900D01*
X15400Y11842D01*
X15371Y11814D01*
X15314Y11785D01*
X15257Y11785D01*
X15200Y11814D01*
X15171Y11842D01*
X15143Y11900D01*
X15143Y12042D01*
X15171Y12128D01*
X15143Y12328D02*
X15143Y12699D01*
X15371Y12499D01*
X15371Y12585D01*
X15400Y12642D01*
X15429Y12671D01*
X15486Y12699D01*
X15629Y12699D01*
X15686Y12671D01*
X15714Y12642D01*
X15743Y12585D01*
X15743Y12413D01*
X15714Y12356D01*
X15686Y12328D01*
X14843Y04857D02*
X15043Y04257D01*
X15243Y04857D01*
X15443Y04257D02*
X15443Y04857D01*
X15729Y04257D02*
X15729Y04857D01*
X16072Y04257D01*
X16072Y04857D01*
X14900Y15857D02*
X15014Y15857D01*
X15072Y15829D01*
X15129Y15771D01*
X15157Y15657D01*
X15157Y15457D01*
X15129Y15343D01*
X15072Y15286D01*
X15014Y15257D01*
X14900Y15257D01*
X14843Y15286D01*
X14786Y15343D01*
X14757Y15457D01*
X14757Y15657D01*
X14786Y15771D01*
X14843Y15829D01*
X14900Y15857D01*
X15415Y15857D02*
X15415Y15371D01*
X15443Y15314D01*
X15472Y15286D01*
X15529Y15257D01*
X15643Y15257D01*
X15701Y15286D01*
X15729Y15314D01*
X15758Y15371D01*
X15758Y15857D01*
X15958Y15857D02*
X16301Y15857D01*
X16130Y15257D02*
X16130Y15857D01*
X13657Y15829D02*
X13600Y15857D01*
X13514Y15857D01*
X13429Y15829D01*
X13371Y15771D01*
X13343Y15714D01*
X13314Y15600D01*
X13314Y15514D01*
X13343Y15400D01*
X13371Y15343D01*
X13429Y15286D01*
X13514Y15257D01*
X13571Y15257D01*
X13657Y15286D01*
X13686Y15314D01*
X13686Y15514D01*
X13571Y15514D01*
X13657Y04829D02*
X13600Y04857D01*
X13514Y04857D01*
X13429Y04829D01*
X13371Y04771D01*
X13343Y04714D01*
X13314Y04600D01*
X13314Y04514D01*
X13343Y04400D01*
X13371Y04343D01*
X13429Y04286D01*
X13514Y04257D01*
X13571Y04257D01*
X13657Y04286D01*
X13686Y04314D01*
X13686Y04514D01*
X13571Y04514D01*
X30661Y10098D02*
X31147Y10098D01*
X31204Y10126D01*
X31232Y10155D01*
X31261Y10212D01*
X31261Y10326D01*
X31232Y10384D01*
X31204Y10412D01*
X31147Y10441D01*
X30661Y10441D01*
X30718Y10698D02*
X30689Y10727D01*
X30661Y10784D01*
X30661Y10927D01*
X30689Y10984D01*
X30718Y11013D01*
X30775Y11041D01*
X30832Y11041D01*
X30918Y11013D01*
X31261Y10670D01*
X31261Y11041D01*
X32442Y09584D02*
X32442Y09699D01*
X32413Y09756D01*
X32385Y09784D01*
X32299Y09842D01*
X32185Y09870D01*
X31956Y09870D01*
X31899Y09842D01*
X31870Y09813D01*
X31842Y09756D01*
X31842Y09642D01*
X31870Y09584D01*
X31899Y09556D01*
X31956Y09527D01*
X32099Y09527D01*
X32156Y09556D01*
X32185Y09584D01*
X32213Y09642D01*
X32213Y09756D01*
X32185Y09813D01*
X32156Y09842D01*
X32099Y09870D01*
X31842Y10384D02*
X31842Y10270D01*
X31870Y10213D01*
X31899Y10184D01*
X31985Y10127D01*
X32099Y10098D01*
X32328Y10098D01*
X32385Y10127D01*
X32413Y10155D01*
X32442Y10213D01*
X32442Y10327D01*
X32413Y10384D01*
X32385Y10413D01*
X32328Y10441D01*
X32185Y10441D01*
X32128Y10413D01*
X32099Y10384D01*
X32070Y10327D01*
X32070Y10213D01*
X32099Y10155D01*
X32128Y10127D01*
X32185Y10098D01*
X31842Y10812D02*
X31842Y10869D01*
X31870Y10926D01*
X31899Y10955D01*
X31956Y10984D01*
X32070Y11012D01*
X32213Y11012D01*
X32328Y10984D01*
X32385Y10955D01*
X32413Y10926D01*
X32442Y10869D01*
X32442Y10812D01*
X32413Y10755D01*
X32385Y10726D01*
X32328Y10698D01*
X32213Y10669D01*
X32070Y10669D01*
X31956Y10698D01*
X31899Y10726D01*
X31870Y10755D01*
X31842Y10812D01*
X31899Y11240D02*
X31870Y11269D01*
X31842Y11326D01*
X31842Y11469D01*
X31870Y11526D01*
X31899Y11555D01*
X31956Y11583D01*
X32013Y11583D01*
X32099Y11555D01*
X32442Y11212D01*
X32442Y11583D01*
X26757Y13807D02*
X26757Y14093D01*
X26929Y13750D02*
X26329Y13950D01*
X26929Y14150D01*
X26929Y14350D02*
X26329Y14350D01*
X26929Y14693D01*
X26329Y14693D01*
X26329Y14893D02*
X26329Y15236D01*
X26929Y15065D02*
X26329Y15065D01*
X26357Y12096D02*
X26329Y12039D01*
X26329Y11953D01*
X26357Y11868D01*
X26415Y11810D01*
X26472Y11782D01*
X26586Y11753D01*
X26672Y11753D01*
X26786Y11782D01*
X26843Y11810D01*
X26900Y11868D01*
X26929Y11953D01*
X26929Y12010D01*
X26900Y12096D01*
X26872Y12125D01*
X26672Y12125D01*
X26672Y12010D01*
X26929Y12382D02*
X26329Y12382D01*
X26329Y12610D01*
X26357Y12668D01*
X26386Y12696D01*
X26443Y12725D01*
X26529Y12725D01*
X26586Y12696D01*
X26615Y12668D01*
X26643Y12610D01*
X26643Y12382D01*
X26900Y12953D02*
X26929Y13039D01*
X26929Y13182D01*
X26900Y13239D01*
X26872Y13268D01*
X26815Y13296D01*
X26757Y13296D01*
X26700Y13268D01*
X26672Y13239D01*
X26643Y13182D01*
X26615Y13068D01*
X26586Y13010D01*
X26557Y12982D01*
X26500Y12953D01*
X26443Y12953D01*
X26386Y12982D01*
X26357Y13010D01*
X26329Y13068D01*
X26329Y13210D01*
X26357Y13296D01*
G54D22*
X10202Y04534D02*
X10560Y04534D01*
X10631Y04510D01*
X10679Y04462D01*
X10702Y04391D01*
X10702Y04343D01*
X10702Y04772D02*
X10202Y04772D01*
X10202Y04963D01*
X10226Y05010D01*
X10250Y05034D01*
X10298Y05058D01*
X10369Y05058D01*
X10417Y05034D01*
X10440Y05010D01*
X10464Y04963D01*
X10464Y04772D01*
X10202Y05510D02*
X10202Y05272D01*
X10440Y05248D01*
X10417Y05272D01*
X10393Y05320D01*
X10393Y05439D01*
X10417Y05486D01*
X10440Y05510D01*
X10488Y05534D01*
X10607Y05534D01*
X10655Y05510D01*
X10679Y05486D01*
X10702Y05439D01*
X10702Y05320D01*
X10679Y05272D01*
X10655Y05248D01*
G54D23*
X09523Y04598D02*
X09559Y04598D01*
X09566Y04596D01*
X09571Y04591D01*
X09573Y04584D01*
X09573Y04579D01*
X09523Y04622D02*
X09564Y04622D01*
X09568Y04624D01*
X09571Y04627D01*
X09573Y04631D01*
X09573Y04641D01*
X09571Y04646D01*
X09568Y04648D01*
X09564Y04650D01*
X09523Y04650D01*
X09573Y04674D02*
X09523Y04674D01*
X09559Y04691D01*
X09523Y04707D01*
X09573Y04707D01*
X09573Y04731D02*
X09523Y04731D01*
X09523Y04750D01*
X09526Y04755D01*
X09528Y04757D01*
X09533Y04759D01*
X09540Y04759D01*
X09545Y04757D01*
X09547Y04755D01*
X09549Y04750D01*
X09549Y04731D01*
X09547Y04781D02*
X09547Y04798D01*
X09573Y04805D02*
X09573Y04781D01*
X09523Y04781D01*
X09523Y04805D01*
X09573Y04854D02*
X09549Y04838D01*
X09573Y04826D02*
X09523Y04826D01*
X09523Y04845D01*
X09526Y04850D01*
X09528Y04852D01*
X09533Y04854D01*
X09540Y04854D01*
X09545Y04852D01*
X09547Y04850D01*
X09549Y04845D01*
X09549Y04826D01*
X09554Y04876D02*
X09554Y04914D01*
X09528Y04936D02*
X09526Y04938D01*
X09523Y04943D01*
X09523Y04955D01*
X09526Y04959D01*
X09528Y04962D01*
X09533Y04964D01*
X09538Y04964D01*
X09545Y04962D01*
X09573Y04933D01*
X09573Y04964D01*
X09571Y04984D02*
X09573Y04991D01*
X09573Y05003D01*
X09571Y05007D01*
X09568Y05010D01*
X09564Y05012D01*
X09559Y05012D01*
X09554Y05010D01*
X09552Y05007D01*
X09549Y05003D01*
X09547Y04993D01*
X09545Y04988D01*
X09542Y04986D01*
X09538Y04984D01*
X09533Y04984D01*
X09528Y04986D01*
X09526Y04988D01*
X09523Y04993D01*
X09523Y05005D01*
X09526Y05012D01*
X09573Y05034D02*
X09523Y05034D01*
X09559Y05051D01*
X09523Y05067D01*
X09573Y05067D01*
X09573Y05091D02*
X09523Y05091D01*
X09523Y05103D01*
X09526Y05110D01*
X09530Y05115D01*
X09535Y05117D01*
X09545Y05119D01*
X09552Y05119D01*
X09561Y05117D01*
X09566Y05115D01*
X09571Y05110D01*
X09573Y05103D01*
X09573Y05091D01*
X09554Y05141D02*
X09554Y05179D01*
X09573Y05203D02*
X09523Y05203D01*
X09573Y05231D01*
X09523Y05231D01*
X09523Y05264D02*
X09523Y05274D01*
X09526Y05279D01*
X09530Y05283D01*
X09540Y05286D01*
X09557Y05286D01*
X09566Y05283D01*
X09571Y05279D01*
X09573Y05274D01*
X09573Y05264D01*
X09571Y05260D01*
X09566Y05255D01*
X09557Y05253D01*
X09540Y05253D01*
X09530Y05255D01*
X09526Y05260D01*
X09523Y05264D01*
G54D20*
X21143Y16006D02*
X21143Y15519D01*
X21123Y15422D01*
X21082Y15357D01*
X21021Y15325D01*
X20980Y15325D01*
X21347Y15325D02*
X21347Y16006D01*
X21510Y16006D01*
X21551Y15973D01*
X21571Y15941D01*
X21591Y15876D01*
X21591Y15779D01*
X21571Y15714D01*
X21551Y15682D01*
X21510Y15649D01*
X21347Y15649D01*
X21755Y15941D02*
X21775Y15973D01*
X21816Y16006D01*
X21918Y16006D01*
X21958Y15973D01*
X21979Y15941D01*
X21999Y15876D01*
X21999Y15811D01*
X21979Y15714D01*
X21734Y15325D01*
X21999Y15325D01*
X21143Y17006D02*
X21143Y16519D01*
X21123Y16422D01*
X21082Y16357D01*
X21021Y16325D01*
X20980Y16325D01*
X21347Y16325D02*
X21347Y17006D01*
X21510Y17006D01*
X21551Y16973D01*
X21571Y16941D01*
X21591Y16876D01*
X21591Y16779D01*
X21571Y16714D01*
X21551Y16682D01*
X21510Y16649D01*
X21347Y16649D01*
X21958Y16779D02*
X21958Y16325D01*
X21856Y17038D02*
X21755Y16552D01*
X22019Y16552D01*
G54D21*
X18278Y13364D02*
X18294Y13333D01*
X18296Y13250D01*
X18283Y13200D01*
X18240Y13131D01*
X18180Y13092D01*
X18127Y13079D01*
X18029Y13079D01*
X17960Y13097D01*
X17874Y13147D01*
X17835Y13184D01*
X17803Y13248D01*
X17800Y13330D01*
X17813Y13380D01*
X17857Y13450D01*
X17887Y13469D01*
X18124Y13894D02*
X18445Y13808D01*
X17906Y13817D02*
X18217Y13598D01*
X18305Y13926D01*
G54D20*
X17684Y22725D02*
X17684Y23406D01*
X17847Y23406D01*
X17888Y23373D01*
X17908Y23341D01*
X17928Y23276D01*
X17928Y23179D01*
X17908Y23114D01*
X17888Y23082D01*
X17847Y23049D01*
X17684Y23049D01*
X18071Y23406D02*
X18336Y23406D01*
X18193Y23146D01*
X18255Y23146D01*
X18295Y23114D01*
X18316Y23082D01*
X18336Y23017D01*
X18336Y22855D01*
X18316Y22790D01*
X18295Y22757D01*
X18255Y22725D01*
X18132Y22725D01*
X18092Y22757D01*
X18071Y22790D01*
G54D21*
X22153Y22814D02*
X22134Y22786D01*
X22077Y22757D01*
X22039Y22757D01*
X21981Y22786D01*
X21943Y22843D01*
X21924Y22900D01*
X21905Y23014D01*
X21905Y23100D01*
X21924Y23214D01*
X21943Y23271D01*
X21981Y23329D01*
X22039Y23357D01*
X22077Y23357D01*
X22134Y23329D01*
X22153Y23300D01*
X22400Y23357D02*
X22477Y23357D01*
X22515Y23329D01*
X22553Y23271D01*
X22572Y23157D01*
X22572Y22957D01*
X22553Y22843D01*
X22515Y22786D01*
X22477Y22757D01*
X22400Y22757D01*
X22362Y22786D01*
X22324Y22843D01*
X22305Y22957D01*
X22305Y23157D01*
X22324Y23271D01*
X22362Y23329D01*
X22400Y23357D01*
X22743Y22757D02*
X22743Y23357D01*
X22972Y22757D01*
X22972Y23357D01*
X23162Y22757D02*
X23162Y23357D01*
X23391Y22757D01*
X23391Y23357D01*
X23486Y22700D02*
X23791Y22700D01*
X23905Y22757D02*
X23981Y22757D01*
X24020Y22786D01*
X24039Y22814D01*
X24077Y22900D01*
X24096Y23014D01*
X24096Y23243D01*
X24077Y23300D01*
X24058Y23329D01*
X24020Y23357D01*
X23943Y23357D01*
X23905Y23329D01*
X23886Y23300D01*
X23867Y23243D01*
X23867Y23100D01*
X23886Y23043D01*
X23905Y23014D01*
X23943Y22986D01*
X24020Y22986D01*
X24058Y23014D01*
X24077Y23043D01*
X24096Y23100D01*
G54D20*
X31184Y22725D02*
X31184Y23406D01*
X31347Y23406D01*
X31388Y23373D01*
X31408Y23341D01*
X31428Y23276D01*
X31428Y23179D01*
X31408Y23114D01*
X31388Y23082D01*
X31347Y23049D01*
X31184Y23049D01*
X31795Y23179D02*
X31795Y22725D01*
X31693Y23438D02*
X31592Y22952D01*
X31856Y22952D01*
G54D11*
X22393Y14043D02*
X22879Y14043D01*
X22936Y14071D01*
X22964Y14100D01*
X22993Y14157D01*
X22993Y14271D01*
X22964Y14329D01*
X22936Y14357D01*
X22879Y14386D01*
X22393Y14386D01*
X22393Y14615D02*
X22393Y14986D01*
X22621Y14786D01*
X22621Y14872D01*
X22650Y14929D01*
X22679Y14958D01*
X22736Y14986D01*
X22879Y14986D01*
X22936Y14958D01*
X22964Y14929D01*
X22993Y14872D01*
X22993Y14700D01*
X22964Y14643D01*
X22936Y14615D01*
X23393Y12657D02*
X23879Y12657D01*
X23936Y12685D01*
X23964Y12714D01*
X23993Y12771D01*
X23993Y12885D01*
X23964Y12943D01*
X23936Y12971D01*
X23879Y13000D01*
X23393Y13000D01*
X23936Y13286D02*
X23964Y13314D01*
X23993Y13286D01*
X23964Y13257D01*
X23936Y13286D01*
X23993Y13286D01*
X23679Y13772D02*
X23679Y13572D01*
X23993Y13572D02*
X23393Y13572D01*
X23393Y13858D01*
X23993Y14372D02*
X23993Y14086D01*
X23393Y14086D01*
X24050Y14429D02*
X24050Y14886D01*
X23821Y15000D02*
X23821Y15286D01*
X23993Y14943D02*
X23393Y15143D01*
X23993Y15343D01*
X23993Y15543D02*
X23393Y15543D01*
X23993Y15886D01*
X23393Y15886D01*
X23393Y16086D02*
X23393Y16429D01*
X23993Y16258D02*
X23393Y16258D01*
G54D25*
X10700Y05021D02*
X10686Y04993D01*
X10657Y04964D01*
X10614Y04921D01*
X10600Y04893D01*
X10600Y04864D01*
X10671Y04879D02*
X10657Y04850D01*
X10629Y04821D01*
X10571Y04807D01*
X10471Y04807D01*
X10414Y04821D01*
X10386Y04850D01*
X10371Y04879D01*
X10371Y04936D01*
X10386Y04964D01*
X10414Y04993D01*
X10471Y05007D01*
X10571Y05007D01*
X10629Y04993D01*
X10657Y04964D01*
X10671Y04936D01*
X10671Y04879D01*
X10671Y05293D02*
X10671Y05121D01*
X10671Y05207D02*
X10371Y05207D01*
X10414Y05178D01*
X10443Y05150D01*
X10457Y05121D01*
X11521Y04007D02*
X11221Y04007D01*
X11436Y04107D01*
X11221Y04207D01*
X11521Y04207D01*
X11221Y04408D02*
X11221Y04465D01*
X11236Y04493D01*
X11264Y04522D01*
X11321Y04536D01*
X11421Y04536D01*
X11479Y04522D01*
X11507Y04493D01*
X11521Y04465D01*
X11521Y04408D01*
X11507Y04379D01*
X11479Y04350D01*
X11421Y04336D01*
X11321Y04336D01*
X11264Y04350D01*
X11236Y04379D01*
X11221Y04408D01*
X11507Y04650D02*
X11521Y04693D01*
X11521Y04764D01*
X11507Y04793D01*
X11493Y04807D01*
X11464Y04822D01*
X11436Y04822D01*
X11407Y04807D01*
X11393Y04793D01*
X11379Y04764D01*
X11364Y04707D01*
X11350Y04679D01*
X11336Y04664D01*
X11307Y04650D01*
X11279Y04650D01*
X11250Y04664D01*
X11236Y04679D01*
X11221Y04707D01*
X11221Y04779D01*
X11236Y04822D01*
X11364Y05050D02*
X11364Y04950D01*
X11521Y04950D02*
X11221Y04950D01*
X11221Y05093D01*
X11364Y05207D02*
X11364Y05307D01*
X11521Y05350D02*
X11521Y05207D01*
X11221Y05207D01*
X11221Y05350D01*
X11221Y05436D02*
X11221Y05607D01*
X11521Y05521D02*
X11221Y05521D01*
X11550Y05636D02*
X11550Y05865D01*
X11521Y05936D02*
X11221Y05936D01*
X11221Y06051D01*
X11236Y06079D01*
X11250Y06094D01*
X11279Y06108D01*
X11321Y06108D01*
X11350Y06094D01*
X11364Y06079D01*
X11379Y06051D01*
X11379Y05936D01*
G54D20*
X08775Y10584D02*
X08094Y10584D01*
X08094Y10747D01*
X08127Y10788D01*
X08159Y10808D01*
X08224Y10828D01*
X08321Y10828D01*
X08386Y10808D01*
X08418Y10788D01*
X08451Y10747D01*
X08451Y10584D01*
X08775Y11032D02*
X08775Y11114D01*
X08743Y11155D01*
X08710Y11175D01*
X08613Y11216D01*
X08483Y11236D01*
X08224Y11236D01*
X08159Y11216D01*
X08127Y11195D01*
X08094Y11155D01*
X08094Y11073D01*
X08127Y11032D01*
X08159Y11012D01*
X08224Y10992D01*
X08386Y10992D01*
X08451Y11012D01*
X08483Y11032D01*
X08516Y11073D01*
X08516Y11155D01*
X08483Y11195D01*
X08451Y11216D01*
X08386Y11236D01*
G54D14*
X19798Y11586D02*
X19784Y11897D01*
X19550Y11729D02*
X19825Y12206D01*
X19990Y12110D01*
X20018Y12064D01*
X20026Y12030D01*
X20021Y11973D01*
X19981Y11904D01*
X19934Y11871D01*
X19900Y11860D01*
X19846Y11861D01*
X19681Y11956D01*
X19798Y12686D02*
X19784Y12997D01*
X19550Y12829D02*
X19825Y13306D01*
X19990Y13210D01*
X20018Y13164D01*
X20026Y13130D01*
X20021Y13073D01*
X19981Y13004D01*
X19934Y12971D01*
X19900Y12960D01*
X19846Y12961D01*
X19681Y13056D01*
M02*
