M48
INCH,TZ
T10C0.020
T11C0.024
T12C0.031
T13C0.032
T14C0.039
T15C0.060
T16C0.125
T17C0.126
%
T10
X042600Y045000
X045400Y032300
X045400Y032900
X046500Y032300
X046500Y032800
X046800Y030000
X047600Y044700
X048000Y033500
X048000Y040500
X048600Y032300
X048600Y032900
X049900Y034400
X050250Y044250
X050300Y034800
X050300Y040600
X050700Y032400
X050900Y040800
X050900Y041400
X050900Y041900
X050900Y042400
X050900Y043000
X051000Y033900
X051250Y035500
X051400Y041100
X051400Y041600
X051400Y042100
X051400Y042500
X051400Y043000
X052100Y037800
X052500Y032800
X052500Y042200
X052750Y046000
X053400Y043200
X053650Y038200
X053900Y041700
X054000Y032800
X054400Y033900
X055300Y039900
X055300Y041700
X055300Y042350
X055300Y043100
X056200Y038500
X056500Y033550
X056600Y039200
X056700Y042300
X056700Y042900
X056700Y043500
X057100Y035800
X057300Y043700
X057650Y041850
X058900Y030100
T11
X040900Y039706
X040900Y040494
T12
X054793Y036007
X054793Y037007
X054793Y037976
X054793Y038976
X055297Y036507
X055297Y038476
X055797Y036007
X055797Y037007
X055797Y037976
X055797Y038976
T13
X038500Y039600
X038500Y040600
X040400Y030950
X041400Y031050
X042400Y030950
X043400Y031050
X044000Y034450
X044000Y047550
X044000Y049950
X044400Y030950
X045000Y034550
X045000Y047450
X045000Y050100
X045400Y031050
X046000Y034450
X046000Y047550
X046000Y049950
X046400Y030950
X047000Y034550
X047000Y047450
X047000Y050050
X047400Y031050
X048000Y029000
X048000Y049950
X048582Y039632
X048700Y043500
X048700Y045500
X048700Y047500
X048800Y042500
X048800Y044500
X048800Y046500
X049000Y029000
X049000Y030950
X049000Y050050
X049501Y037250
X049501Y038350
X049618Y035768
X050000Y029000
X050000Y031050
X050950Y046500
X050950Y048500
X051000Y029000
X051000Y030950
X051000Y049950
X051050Y045500
X051050Y047500
X052000Y029000
X052000Y031050
X052000Y033400
X052000Y034400
X052000Y050050
X052099Y038750
X052099Y039850
X053000Y029000
X053000Y030950
X053000Y033400
X053000Y034400
X053000Y049950
X054000Y029000
X054000Y031050
X054000Y050050
X055000Y029000
X055000Y030950
X055000Y049950
X056000Y029000
X056000Y031050
X056000Y050050
X057000Y049950
X058000Y030950
X058000Y050050
X059000Y031050
X060000Y030950
X061000Y031050
X062000Y029000
X062000Y030950
X063000Y029000
X063000Y031050
T14
X039700Y039411
X039700Y040789
T15
X049200Y041250
T16
X036500Y050000
X037000Y031000
T17
X054832Y048417
X068808Y032866
M30

