G04 (created by PCBNEW-RS274X (2012-01-10 BZR 3351)-testing) date Thursday, January 26, 2012 09:50:59 PM*
G01*
G70*
G90*
%MOIN*%
G04 Gerber Fmt 3.4, Leading zero omitted, Abs format*
%FSLAX34Y34*%
G04 APERTURE LIST*
%ADD10C,0.006000*%
%ADD11C,0.005000*%
%ADD12O,0.080000X0.120000*%
%ADD13C,0.175000*%
%ADD14R,0.059400X0.059400*%
%ADD15C,0.059400*%
%ADD16R,0.079100X0.079100*%
%ADD17C,0.079100*%
%ADD18C,0.100000*%
%ADD19R,0.075000X0.075000*%
%ADD20C,0.075000*%
%ADD21C,0.080000*%
%ADD22C,0.067200*%
%ADD23C,0.177500*%
%ADD24C,0.047600*%
%ADD25R,0.055000X0.075000*%
%ADD26R,0.040000X0.050000*%
%ADD27R,0.075000X0.055000*%
G04 APERTURE END LIST*
G54D10*
G54D11*
X20300Y17650D02*
X20299Y17641D01*
X20296Y17631D01*
X20291Y17623D01*
X20285Y17615D01*
X20277Y17609D01*
X20269Y17604D01*
X20260Y17602D01*
X20250Y17601D01*
X20241Y17601D01*
X20232Y17604D01*
X20223Y17609D01*
X20216Y17615D01*
X20209Y17622D01*
X20205Y17631D01*
X20202Y17640D01*
X20201Y17650D01*
X20201Y17659D01*
X20204Y17668D01*
X20208Y17677D01*
X20215Y17684D01*
X20222Y17691D01*
X20230Y17695D01*
X20240Y17698D01*
X20249Y17699D01*
X20258Y17699D01*
X20268Y17696D01*
X20276Y17692D01*
X20284Y17686D01*
X20290Y17678D01*
X20295Y17670D01*
X20298Y17661D01*
X20299Y17651D01*
X20300Y17650D01*
X19800Y17650D02*
X20200Y17650D01*
X20200Y17650D02*
X20200Y18250D01*
X20200Y18250D02*
X19800Y18250D01*
X19400Y18250D02*
X19000Y18250D01*
X19000Y18250D02*
X19000Y17650D01*
X19000Y17650D02*
X19400Y17650D01*
X20700Y10900D02*
X20700Y11600D01*
X20700Y11600D02*
X19500Y11600D01*
X19500Y11600D02*
X19500Y10900D01*
X19500Y10900D02*
X20700Y10900D01*
X25350Y10650D02*
X25349Y10641D01*
X25346Y10631D01*
X25341Y10623D01*
X25335Y10615D01*
X25327Y10609D01*
X25319Y10604D01*
X25310Y10602D01*
X25300Y10601D01*
X25291Y10601D01*
X25282Y10604D01*
X25273Y10609D01*
X25266Y10615D01*
X25259Y10622D01*
X25255Y10631D01*
X25252Y10640D01*
X25251Y10650D01*
X25251Y10659D01*
X25254Y10668D01*
X25258Y10677D01*
X25265Y10684D01*
X25272Y10691D01*
X25280Y10695D01*
X25290Y10698D01*
X25299Y10699D01*
X25308Y10699D01*
X25318Y10696D01*
X25326Y10692D01*
X25334Y10686D01*
X25340Y10678D01*
X25345Y10670D01*
X25348Y10661D01*
X25349Y10651D01*
X25350Y10650D01*
X25300Y10200D02*
X25300Y10600D01*
X25300Y10600D02*
X24700Y10600D01*
X24700Y10600D02*
X24700Y10200D01*
X24700Y09800D02*
X24700Y09400D01*
X24700Y09400D02*
X25300Y09400D01*
X25300Y09400D02*
X25300Y09800D01*
X23950Y10650D02*
X23949Y10641D01*
X23946Y10631D01*
X23941Y10623D01*
X23935Y10615D01*
X23927Y10609D01*
X23919Y10604D01*
X23910Y10602D01*
X23900Y10601D01*
X23891Y10601D01*
X23882Y10604D01*
X23873Y10609D01*
X23866Y10615D01*
X23859Y10622D01*
X23855Y10631D01*
X23852Y10640D01*
X23851Y10650D01*
X23851Y10659D01*
X23854Y10668D01*
X23858Y10677D01*
X23865Y10684D01*
X23872Y10691D01*
X23880Y10695D01*
X23890Y10698D01*
X23899Y10699D01*
X23908Y10699D01*
X23918Y10696D01*
X23926Y10692D01*
X23934Y10686D01*
X23940Y10678D01*
X23945Y10670D01*
X23948Y10661D01*
X23949Y10651D01*
X23950Y10650D01*
X23900Y10200D02*
X23900Y10600D01*
X23900Y10600D02*
X23300Y10600D01*
X23300Y10600D02*
X23300Y10200D01*
X23300Y09800D02*
X23300Y09400D01*
X23300Y09400D02*
X23900Y09400D01*
X23900Y09400D02*
X23900Y09800D01*
X23400Y10900D02*
X23399Y10891D01*
X23396Y10881D01*
X23391Y10873D01*
X23385Y10865D01*
X23377Y10859D01*
X23369Y10854D01*
X23360Y10852D01*
X23350Y10851D01*
X23341Y10851D01*
X23332Y10854D01*
X23323Y10859D01*
X23316Y10865D01*
X23309Y10872D01*
X23305Y10881D01*
X23302Y10890D01*
X23301Y10900D01*
X23301Y10909D01*
X23304Y10918D01*
X23308Y10927D01*
X23315Y10934D01*
X23322Y10941D01*
X23330Y10945D01*
X23340Y10948D01*
X23349Y10949D01*
X23358Y10949D01*
X23368Y10946D01*
X23376Y10942D01*
X23384Y10936D01*
X23390Y10928D01*
X23395Y10920D01*
X23398Y10911D01*
X23399Y10901D01*
X23400Y10900D01*
X22900Y10900D02*
X23300Y10900D01*
X23300Y10900D02*
X23300Y11500D01*
X23300Y11500D02*
X22900Y11500D01*
X22500Y11500D02*
X22100Y11500D01*
X22100Y11500D02*
X22100Y10900D01*
X22100Y10900D02*
X22500Y10900D01*
X19642Y17873D02*
X19654Y17861D01*
X19689Y17849D01*
X19713Y17849D01*
X19749Y17861D01*
X19773Y17885D01*
X19784Y17908D01*
X19796Y17956D01*
X19796Y17992D01*
X19784Y18039D01*
X19773Y18063D01*
X19749Y18087D01*
X19713Y18099D01*
X19689Y18099D01*
X19654Y18087D01*
X19642Y18075D01*
X19415Y18099D02*
X19534Y18099D01*
X19546Y17980D01*
X19534Y17992D01*
X19511Y18004D01*
X19451Y18004D01*
X19427Y17992D01*
X19415Y17980D01*
X19404Y17956D01*
X19404Y17896D01*
X19415Y17873D01*
X19427Y17861D01*
X19451Y17849D01*
X19511Y17849D01*
X19534Y17861D01*
X19546Y17873D01*
X20290Y11279D02*
X20290Y11036D01*
X20279Y11007D01*
X20267Y10993D01*
X20243Y10979D01*
X20195Y10979D01*
X20171Y10993D01*
X20160Y11007D01*
X20148Y11036D01*
X20148Y11279D01*
X19898Y10979D02*
X20040Y10979D01*
X19969Y10979D02*
X19969Y11279D01*
X19993Y11236D01*
X20017Y11207D01*
X20040Y11193D01*
X25077Y10042D02*
X25089Y10054D01*
X25101Y10089D01*
X25101Y10113D01*
X25089Y10149D01*
X25065Y10173D01*
X25042Y10184D01*
X24994Y10196D01*
X24958Y10196D01*
X24911Y10184D01*
X24887Y10173D01*
X24863Y10149D01*
X24851Y10113D01*
X24851Y10089D01*
X24863Y10054D01*
X24875Y10042D01*
X24851Y09827D02*
X24851Y09875D01*
X24863Y09899D01*
X24875Y09911D01*
X24911Y09934D01*
X24958Y09946D01*
X25054Y09946D01*
X25077Y09934D01*
X25089Y09923D01*
X25101Y09899D01*
X25101Y09851D01*
X25089Y09827D01*
X25077Y09815D01*
X25054Y09804D01*
X24994Y09804D01*
X24970Y09815D01*
X24958Y09827D01*
X24946Y09851D01*
X24946Y09899D01*
X24958Y09923D01*
X24970Y09934D01*
X24994Y09946D01*
X23677Y10042D02*
X23689Y10054D01*
X23701Y10089D01*
X23701Y10113D01*
X23689Y10149D01*
X23665Y10173D01*
X23642Y10184D01*
X23594Y10196D01*
X23558Y10196D01*
X23511Y10184D01*
X23487Y10173D01*
X23463Y10149D01*
X23451Y10113D01*
X23451Y10089D01*
X23463Y10054D01*
X23475Y10042D01*
X23451Y09958D02*
X23451Y09792D01*
X23701Y09899D01*
X22742Y11123D02*
X22754Y11111D01*
X22789Y11099D01*
X22813Y11099D01*
X22849Y11111D01*
X22873Y11135D01*
X22884Y11158D01*
X22896Y11206D01*
X22896Y11242D01*
X22884Y11289D01*
X22873Y11313D01*
X22849Y11337D01*
X22813Y11349D01*
X22789Y11349D01*
X22754Y11337D01*
X22742Y11325D01*
X22599Y11242D02*
X22623Y11254D01*
X22634Y11265D01*
X22646Y11289D01*
X22646Y11301D01*
X22634Y11325D01*
X22623Y11337D01*
X22599Y11349D01*
X22551Y11349D01*
X22527Y11337D01*
X22515Y11325D01*
X22504Y11301D01*
X22504Y11289D01*
X22515Y11265D01*
X22527Y11254D01*
X22551Y11242D01*
X22599Y11242D01*
X22623Y11230D01*
X22634Y11218D01*
X22646Y11194D01*
X22646Y11146D01*
X22634Y11123D01*
X22623Y11111D01*
X22599Y11099D01*
X22551Y11099D01*
X22527Y11111D01*
X22515Y11123D01*
X22504Y11146D01*
X22504Y11194D01*
X22515Y11218D01*
X22527Y11230D01*
X22551Y11242D01*
%LPC*%
G54D12*
X27000Y20050D03*
X28000Y19950D03*
X29000Y20050D03*
X30000Y19950D03*
X31000Y20050D03*
X32000Y19950D03*
X27000Y00950D03*
X26000Y01050D03*
X25000Y00950D03*
X24000Y01050D03*
X23000Y00950D03*
X20000Y01050D03*
X21000Y00950D03*
X22000Y01050D03*
X18000Y00950D03*
X17000Y01050D03*
X16000Y00950D03*
X14000Y00900D03*
X13000Y01050D03*
X25000Y19950D03*
X24000Y20050D03*
X23000Y19950D03*
X22000Y20050D03*
X21000Y19950D03*
X20000Y20050D03*
X19000Y19950D03*
X18000Y20050D03*
X16400Y19950D03*
X15400Y20050D03*
X14400Y19950D03*
X13400Y20050D03*
X12400Y19950D03*
X11400Y20050D03*
X10400Y19950D03*
X09400Y20050D03*
X15000Y01050D03*
G54D13*
X06000Y20000D03*
X05500Y01000D03*
G54D14*
X09900Y11294D03*
G54D15*
X09900Y10506D03*
G54D16*
X08700Y10211D03*
G54D17*
X08700Y11589D03*
G54D18*
X18200Y09750D03*
G54D19*
X20050Y05500D03*
G54D20*
X19950Y04500D03*
X20050Y03500D03*
X19950Y02500D03*
G54D19*
X17800Y08500D03*
G54D20*
X17700Y07500D03*
X17800Y06500D03*
X17700Y05500D03*
X17800Y04500D03*
X17700Y03500D03*
G54D21*
X16000Y03550D03*
X15000Y03450D03*
X14000Y03550D03*
X13000Y03450D03*
X13000Y16550D03*
X14000Y16450D03*
X15000Y16550D03*
X16000Y16450D03*
G54D22*
X23793Y12024D03*
X24797Y12024D03*
X24797Y13024D03*
X23793Y13024D03*
X24297Y12524D03*
G54D23*
X23832Y02583D03*
X37808Y18134D03*
G54D22*
X24297Y14493D03*
X23793Y14993D03*
X24797Y14993D03*
X24797Y13993D03*
X23793Y13993D03*
G54D24*
X24297Y10563D03*
X24297Y06563D03*
G54D19*
X22000Y16600D03*
G54D20*
X21000Y16600D03*
G54D19*
X22000Y17600D03*
G54D20*
X21000Y17600D03*
G54D10*
G36*
X17847Y10909D02*
X17123Y11103D01*
X17317Y11827D01*
X18041Y11633D01*
X17847Y10909D01*
X17847Y10909D01*
G37*
G54D20*
X18618Y15232D03*
G54D19*
X17000Y22000D03*
G54D20*
X18000Y22000D03*
X19000Y22000D03*
X20000Y22000D03*
X21000Y22000D03*
X22000Y22000D03*
X23000Y22000D03*
X24000Y22000D03*
X25000Y22000D03*
G54D19*
X31000Y22000D03*
G54D20*
X32000Y22000D03*
G54D25*
X19975Y17950D03*
X19225Y17950D03*
G54D26*
X19725Y11750D03*
X20475Y11750D03*
X19725Y10750D03*
X20100Y11750D03*
X20475Y10750D03*
G54D27*
X25000Y10375D03*
X25000Y09625D03*
X23600Y10375D03*
X23600Y09625D03*
G54D25*
X23075Y11200D03*
X22325Y11200D03*
G54D19*
X07500Y11400D03*
G54D20*
X07500Y10400D03*
X18501Y12650D03*
X21099Y11150D03*
X18501Y13750D03*
X21099Y12250D03*
G54D19*
X27000Y-00750D03*
G54D20*
X26000Y-00750D03*
X25000Y-00750D03*
X24000Y-00750D03*
X23000Y-00750D03*
X22000Y-00750D03*
X21000Y-00750D03*
X20000Y-00750D03*
G54D19*
X18000Y-00750D03*
G54D20*
X17000Y-00750D03*
X16000Y-00750D03*
X15000Y-00750D03*
X14000Y-00750D03*
X13000Y-00750D03*
G54D19*
X09250Y22000D03*
G54D20*
X10250Y22000D03*
X11250Y22000D03*
X12250Y22000D03*
X13250Y22000D03*
M02*
