G04 (created by PCBNEW-RS274X (2011-nov-12)-testing) date Thu 19 Jan 2012 10:10:30 PM EST*
G01*
G70*
G90*
%MOIN*%
G04 Gerber Fmt 3.4, Leading zero omitted, Abs format*
%FSLAX34Y34*%
G04 APERTURE LIST*
%ADD10C,0.006000*%
%ADD11R,0.059400X0.059400*%
%ADD12C,0.059400*%
%ADD13R,0.079100X0.079100*%
%ADD14C,0.079100*%
%ADD15C,0.100000*%
%ADD16R,0.075000X0.075000*%
%ADD17C,0.075000*%
%ADD18O,0.080000X0.120000*%
%ADD19C,0.175000*%
%ADD20R,0.045000X0.070000*%
%ADD21R,0.067200X0.169600*%
%ADD22R,0.055000X0.075000*%
%ADD23R,0.075000X0.055000*%
%ADD24R,0.067200X0.067200*%
%ADD25C,0.080000*%
%ADD26C,0.067200*%
%ADD27R,0.070000X0.040000*%
%ADD28C,0.177500*%
%ADD29C,0.047600*%
%ADD30R,0.120000X0.070000*%
%ADD31R,0.061300X0.059400*%
%ADD32R,0.106600X0.061300*%
%ADD33R,0.056000X0.056000*%
%ADD34C,0.010000*%
G04 APERTURE END LIST*
G54D10*
G54D11*
X09900Y11294D03*
G54D12*
X09900Y10506D03*
G54D13*
X08700Y10211D03*
G54D14*
X08700Y11589D03*
G54D15*
X18200Y09750D03*
G54D16*
X20050Y05500D03*
G54D17*
X19950Y04500D03*
X20050Y03500D03*
X19950Y02500D03*
G54D16*
X17800Y08500D03*
G54D17*
X17700Y07500D03*
X17800Y06500D03*
X17700Y05500D03*
X17800Y04500D03*
X17700Y03500D03*
G54D18*
X27000Y20050D03*
X28000Y19950D03*
X29000Y20050D03*
X30000Y19950D03*
X31000Y20050D03*
X32000Y19950D03*
X27000Y00950D03*
X26000Y01050D03*
X25000Y00950D03*
X24000Y01050D03*
X23000Y00950D03*
X20000Y01050D03*
X21000Y00950D03*
X22000Y01050D03*
X18000Y00950D03*
X17000Y01050D03*
X16000Y00950D03*
X14000Y00900D03*
X13000Y01050D03*
X25000Y19950D03*
X24000Y20050D03*
X23000Y19950D03*
X22000Y20050D03*
X21000Y19950D03*
X20000Y20050D03*
X19000Y19950D03*
X18000Y20050D03*
X16400Y19950D03*
X15400Y20050D03*
X14400Y19950D03*
X13400Y20050D03*
X12400Y19950D03*
X11400Y20050D03*
X10400Y19950D03*
X09400Y20050D03*
X15000Y01050D03*
G54D19*
X06000Y20000D03*
X05500Y01000D03*
G54D20*
X16400Y18750D03*
X16750Y18750D03*
X17100Y18750D03*
X18150Y18750D03*
X18500Y18750D03*
X18850Y18750D03*
G54D21*
X09500Y17500D03*
X09500Y15000D03*
X05750Y17500D03*
X05750Y15000D03*
G54D22*
X14875Y15500D03*
X14125Y15500D03*
G54D23*
X29000Y22375D03*
X29000Y21625D03*
G54D22*
X08875Y06850D03*
X08125Y06850D03*
X21125Y08250D03*
X21875Y08250D03*
X21125Y05750D03*
X21875Y05750D03*
G54D23*
X15750Y22375D03*
X15750Y21625D03*
G54D24*
X28000Y21587D03*
X28000Y22413D03*
X10763Y06850D03*
X09937Y06850D03*
X21913Y09250D03*
X21087Y09250D03*
X21913Y07000D03*
X21087Y07000D03*
X14750Y21587D03*
X14750Y22413D03*
G54D25*
X16000Y03550D03*
X15000Y03450D03*
X14000Y03550D03*
X13000Y03450D03*
X13000Y16550D03*
X14000Y16450D03*
X15000Y16550D03*
X16000Y16450D03*
G54D26*
X23793Y12024D03*
X24797Y12024D03*
X24797Y13024D03*
X23793Y13024D03*
X24297Y12524D03*
G54D27*
X24932Y10815D03*
X24932Y10315D03*
X24932Y09815D03*
X24932Y09315D03*
X24932Y08815D03*
X24932Y08315D03*
X24932Y07815D03*
X24932Y07315D03*
X24932Y06815D03*
X24932Y06315D03*
X23661Y06315D03*
X23661Y06815D03*
X23661Y07315D03*
X23661Y07815D03*
X23661Y08315D03*
X23661Y08815D03*
X23661Y09315D03*
X23661Y09815D03*
X23661Y10315D03*
X23661Y10815D03*
G54D28*
X23832Y02583D03*
X37808Y18134D03*
G54D26*
X24297Y14493D03*
X23793Y14993D03*
X24797Y14993D03*
X24797Y13993D03*
X23793Y13993D03*
G54D29*
X24297Y10563D03*
X24297Y06563D03*
G54D30*
X09550Y05850D03*
X09550Y04850D03*
G54D16*
X22000Y16600D03*
G54D17*
X21000Y16600D03*
G54D16*
X22000Y17600D03*
G54D17*
X21000Y17600D03*
G54D10*
G36*
X17847Y10909D02*
X17123Y11103D01*
X17317Y11827D01*
X18041Y11633D01*
X17847Y10909D01*
X17847Y10909D01*
G37*
G54D17*
X18618Y15232D03*
G54D16*
X17000Y22000D03*
G54D17*
X18000Y22000D03*
X19000Y22000D03*
X20000Y22000D03*
X21000Y22000D03*
X22000Y22000D03*
X23000Y22000D03*
X24000Y22000D03*
X25000Y22000D03*
G54D16*
X31000Y22000D03*
G54D17*
X32000Y22000D03*
G54D31*
X21841Y14500D03*
G54D32*
X21250Y15071D03*
X21250Y13929D03*
G54D33*
X11000Y04700D03*
X11000Y05400D03*
X11800Y05050D03*
G54D16*
X07500Y11400D03*
G54D17*
X07500Y10400D03*
X18501Y12650D03*
X21099Y11150D03*
X18501Y13750D03*
X21099Y12250D03*
G54D10*
G36*
X38800Y01600D02*
X38800Y19200D01*
X32400Y19200D01*
X32400Y18200D01*
X27600Y18200D01*
X27600Y05000D01*
X23400Y05000D01*
X23200Y04800D01*
X23200Y03800D01*
X22800Y03000D01*
X22800Y01600D01*
X38800Y01600D01*
X38800Y01600D01*
G37*
G54D34*
X38800Y01600D02*
X38800Y19200D01*
X32400Y19200D01*
X32400Y18200D01*
X27600Y18200D01*
X27600Y05000D01*
X23400Y05000D01*
X23200Y04800D01*
X23200Y03800D01*
X22800Y03000D01*
X22800Y01600D01*
X38800Y01600D01*
M02*
